M48
; DRILL file {KiCad 5.1.10-88a1d61d58~88~ubuntu18.04.1} date Sat Jun  5 10:09:25 2021
; FORMAT={-:-/ absolute / metric / decimal}
; #@! TF.CreationDate,2021-06-05T10:09:25+03:00
; #@! TF.GenerationSoftware,Kicad,Pcbnew,5.1.10-88a1d61d58~88~ubuntu18.04.1
; #@! TF.FileFunction,Plated,1,4,PTH
FMAT,2
METRIC
T1C0.400
T2C0.650
T3C0.700
T4C1.000
%
G90
G05
T1
X140.463Y-86.417
X140.641Y-93.333
X140.869Y-78.385
X141.401Y-85.235
X141.427Y-95.542
X141.427Y-98.031
X141.453Y-97.066
X141.478Y-108.064
X141.478Y-112.268
X142.457Y-108.718
X142.601Y-85.54
X142.759Y-112.164
X142.961Y-109.582
X143.662Y-98.336
X143.774Y-112.168
X144.145Y-97.472
X144.221Y-100.33
X144.431Y-73.724
X144.478Y-85.219
X144.526Y-106.617
X144.591Y-90.115
X144.722Y-111.85
X144.782Y-74.661
X144.844Y-81.28
X144.932Y-83.566
X145.034Y-78.803
X145.241Y-103.208
X145.323Y-73.272
X145.339Y-98.463
X145.478Y-92.837
X145.883Y-76.541
X146.101Y-83.312
X146.113Y-78.549
X146.507Y-88.849
X146.539Y-72.752
X147.984Y-108.793
X148.212Y-88.831
X148.463Y-75.946
X148.676Y-83.486
X149.013Y-102.696
X149.2Y-100.724
X149.2Y-116.789
X149.2Y-116.789
X149.288Y-104.648
X149.612Y-88.586
X150.304Y-83.502
X150.547Y-88.941
X150.558Y-81.343
X150.622Y-78.549
X151.408Y-88.433
X152.209Y-83.502
X152.241Y-75.914
X152.258Y-109.034
X152.463Y-79.057
X152.844Y-92.519
X153.137Y-96.99
X153.416Y-111.887
X153.924Y-93.916
X153.924Y-104.394
X155.245Y-110.084
X155.372Y-101.714
X155.448Y-100.393
X156.011Y-94.932
X156.21Y-112.217
X157.226Y-108.153
X157.53Y-97.93
X157.705Y-96.012
X157.861Y-77.851
X157.949Y-74.091
X159.512Y-112.776
T4
X137.795Y-73.406
X137.795Y-75.946
X137.795Y-78.486
X137.795Y-81.026
X137.795Y-83.566
X137.795Y-86.106
X137.795Y-88.646
X137.795Y-91.186
X137.795Y-93.726
X137.795Y-96.266
X137.795Y-98.806
X137.795Y-101.346
X137.795Y-103.886
X137.795Y-106.426
X137.795Y-108.966
X137.795Y-111.506
X137.795Y-114.046
X137.795Y-116.586
X147.955Y-94.361
X147.955Y-96.901
X147.955Y-99.441
X150.495Y-94.361
X150.495Y-96.901
X150.495Y-99.441
X157.429Y-103.886
X157.429Y-106.426
X160.655Y-73.406
X160.655Y-75.946
X160.655Y-78.486
X160.655Y-81.026
X160.655Y-83.566
X160.655Y-86.106
X160.655Y-88.646
X160.655Y-91.186
X160.655Y-93.726
X160.655Y-96.266
X160.655Y-98.806
X160.655Y-101.346
X160.655Y-103.886
X160.655Y-106.426
X160.655Y-108.966
X160.655Y-111.506
X160.655Y-114.046
X160.655Y-116.586
T2
X141.065Y-113.885G85X141.065Y-113.485
G05
X145.905Y-113.885G85X145.905Y-113.485
G05
X152.449Y-113.897G85X152.449Y-113.497
G05
X157.289Y-113.897G85X157.289Y-113.497
G05
T3
X140.755Y-116.935G85X140.755Y-116.435
G05
X146.215Y-116.935G85X146.215Y-116.435
G05
X152.139Y-116.947G85X152.139Y-116.447
G05
X157.599Y-116.947G85X157.599Y-116.447
G05
T0
M30
