M48
; DRILL file {KiCad 5.1.10-88a1d61d58~88~ubuntu18.04.1} date Sun May 30 13:25:52 2021
; FORMAT={-:-/ absolute / metric / decimal}
; #@! TF.CreationDate,2021-05-30T13:25:52+03:00
; #@! TF.GenerationSoftware,Kicad,Pcbnew,5.1.10-88a1d61d58~88~ubuntu18.04.1
; #@! TF.FileFunction,Plated,1,4,PTH
FMAT,2
METRIC
T1C0.400
T2C0.650
T3C0.700
T4C1.000
%
G90
G05
T1
X139.827Y-72.771
X140.144Y-102.743
X140.272Y-112.141
X140.463Y-86.417
X140.587Y-78.667
X140.641Y-93.333
X140.868Y-75.387
X141.16Y-105.029
X141.401Y-85.235
X141.478Y-98.108
X141.478Y-112.268
X142.601Y-85.54
X142.759Y-112.164
X142.847Y-109.356
X143.774Y-112.168
X144.221Y-100.33
X144.478Y-85.219
X144.526Y-106.617
X144.591Y-90.115
X144.653Y-72.39
X144.653Y-95.441
X144.722Y-111.85
X144.932Y-83.566
X145.097Y-98.044
X145.241Y-103.208
X145.478Y-92.837
X145.669Y-72.39
X145.961Y-99.959
X145.961Y-78.805
X146.05Y-79.883
X146.05Y-80.899
X146.101Y-83.312
X146.304Y-73.533
X146.304Y-74.789
X146.304Y-76.189
X146.304Y-77.343
X146.507Y-88.849
X146.939Y-111.125
X146.964Y-82.55
X147.984Y-110.143
X148.212Y-88.831
X148.59Y-80.162
X148.676Y-83.486
X148.87Y-76.244
X149.013Y-102.696
X149.098Y-101.663
X149.2Y-116.789
X149.2Y-116.789
X149.288Y-104.648
X149.352Y-72.593
X149.429Y-74.194
X149.612Y-88.586
X149.987Y-80.899
X150.266Y-77.572
X150.547Y-88.941
X151.408Y-88.433
X152.095Y-77.622
X152.214Y-93.911
X152.258Y-109.034
X152.844Y-92.519
X152.904Y-75.714
X152.908Y-81.28
X153.01Y-82.702
X153.01Y-83.718
X153.099Y-98.171
X153.416Y-72.771
X153.416Y-111.887
X153.924Y-104.394
X154.94Y-102.87
X155.245Y-110.084
X155.448Y-100.393
X156.011Y-94.932
X156.21Y-112.217
X157.226Y-108.153
X157.53Y-97.93
X157.705Y-96.012
X157.861Y-77.851
X159.512Y-112.776
T4
X137.795Y-73.406
X137.795Y-75.946
X137.795Y-78.486
X137.795Y-81.026
X137.795Y-83.566
X137.795Y-86.106
X137.795Y-88.646
X137.795Y-91.186
X137.795Y-93.726
X137.795Y-96.266
X137.795Y-98.806
X137.795Y-101.346
X137.795Y-103.886
X137.795Y-106.426
X137.795Y-108.966
X137.795Y-111.506
X137.795Y-114.046
X137.795Y-116.586
X147.955Y-94.361
X147.955Y-96.901
X147.955Y-99.441
X150.495Y-94.361
X150.495Y-96.901
X150.495Y-99.441
X157.429Y-103.886
X157.429Y-106.426
X160.655Y-73.406
X160.655Y-75.946
X160.655Y-78.486
X160.655Y-81.026
X160.655Y-83.566
X160.655Y-86.106
X160.655Y-88.646
X160.655Y-91.186
X160.655Y-93.726
X160.655Y-96.266
X160.655Y-98.806
X160.655Y-101.346
X160.655Y-103.886
X160.655Y-106.426
X160.655Y-108.966
X160.655Y-111.506
X160.655Y-114.046
X160.655Y-116.586
T2
X141.065Y-113.885G85X141.065Y-113.485
G05
X145.905Y-113.885G85X145.905Y-113.485
G05
X152.449Y-113.897G85X152.449Y-113.497
G05
X157.289Y-113.897G85X157.289Y-113.497
G05
T3
X140.755Y-116.935G85X140.755Y-116.435
G05
X146.215Y-116.935G85X146.215Y-116.435
G05
X152.139Y-116.947G85X152.139Y-116.447
G05
X157.599Y-116.947G85X157.599Y-116.447
G05
T0
M30
