%TF.GenerationSoftware,KiCad,Pcbnew,5.1.10-88a1d61d58~88~ubuntu18.04.1*%
%TF.CreationDate,2021-05-30T13:33:07+03:00*%
%TF.ProjectId,ebyte-E73-2G4M08S1x-board,65627974-652d-4453-9733-2d3247344d30,rev?*%
%TF.SameCoordinates,Original*%
%TF.FileFunction,Copper,L4,Bot*%
%TF.FilePolarity,Positive*%
%FSLAX46Y46*%
G04 Gerber Fmt 4.6, Leading zero omitted, Abs format (unit mm)*
G04 Created by KiCad (PCBNEW 5.1.10-88a1d61d58~88~ubuntu18.04.1) date 2021-05-30 13:33:07*
%MOMM*%
%LPD*%
G01*
G04 APERTURE LIST*
%TA.AperFunction,ComponentPad*%
%ADD10O,1.350000X1.700000*%
%TD*%
%TA.AperFunction,ComponentPad*%
%ADD11O,1.100000X1.500000*%
%TD*%
%TA.AperFunction,ComponentPad*%
%ADD12O,1.700000X1.700000*%
%TD*%
%TA.AperFunction,ComponentPad*%
%ADD13R,1.700000X1.700000*%
%TD*%
%TA.AperFunction,SMDPad,CuDef*%
%ADD14R,0.300000X1.400000*%
%TD*%
%TA.AperFunction,SMDPad,CuDef*%
%ADD15R,0.600000X0.450000*%
%TD*%
%TA.AperFunction,SMDPad,CuDef*%
%ADD16R,0.450000X0.600000*%
%TD*%
%TA.AperFunction,SMDPad,CuDef*%
%ADD17R,1.060000X0.650000*%
%TD*%
%TA.AperFunction,SMDPad,CuDef*%
%ADD18R,0.900000X0.800000*%
%TD*%
%TA.AperFunction,ViaPad*%
%ADD19C,0.800000*%
%TD*%
%TA.AperFunction,Conductor*%
%ADD20C,0.400000*%
%TD*%
%TA.AperFunction,Conductor*%
%ADD21C,0.200000*%
%TD*%
G04 APERTURE END LIST*
%TO.P,C11,2*%
%TO.N,VBUS*%
%TA.AperFunction,SMDPad,CuDef*%
G36*
G01*
X148405000Y-113923000D02*
X148405000Y-114423000D01*
G75*
G02*
X148180000Y-114648000I-225000J0D01*
G01*
X147730000Y-114648000D01*
G75*
G02*
X147505000Y-114423000I0J225000D01*
G01*
X147505000Y-113923000D01*
G75*
G02*
X147730000Y-113698000I225000J0D01*
G01*
X148180000Y-113698000D01*
G75*
G02*
X148405000Y-113923000I0J-225000D01*
G01*
G37*
%TD.AperFunction*%
%TO.P,C11,1*%
%TO.N,GND*%
%TA.AperFunction,SMDPad,CuDef*%
G36*
G01*
X149955000Y-113923000D02*
X149955000Y-114423000D01*
G75*
G02*
X149730000Y-114648000I-225000J0D01*
G01*
X149280000Y-114648000D01*
G75*
G02*
X149055000Y-114423000I0J225000D01*
G01*
X149055000Y-113923000D01*
G75*
G02*
X149280000Y-113698000I225000J0D01*
G01*
X149730000Y-113698000D01*
G75*
G02*
X149955000Y-113923000I0J-225000D01*
G01*
G37*
%TD.AperFunction*%
%TD*%
%TO.P,C9,2*%
%TO.N,GND*%
%TA.AperFunction,SMDPad,CuDef*%
G36*
G01*
X150922800Y-73094000D02*
X150422800Y-73094000D01*
G75*
G02*
X150197800Y-72869000I0J225000D01*
G01*
X150197800Y-72419000D01*
G75*
G02*
X150422800Y-72194000I225000J0D01*
G01*
X150922800Y-72194000D01*
G75*
G02*
X151147800Y-72419000I0J-225000D01*
G01*
X151147800Y-72869000D01*
G75*
G02*
X150922800Y-73094000I-225000J0D01*
G01*
G37*
%TD.AperFunction*%
%TO.P,C9,1*%
%TO.N,VDD*%
%TA.AperFunction,SMDPad,CuDef*%
G36*
G01*
X150922800Y-74644000D02*
X150422800Y-74644000D01*
G75*
G02*
X150197800Y-74419000I0J225000D01*
G01*
X150197800Y-73969000D01*
G75*
G02*
X150422800Y-73744000I225000J0D01*
G01*
X150922800Y-73744000D01*
G75*
G02*
X151147800Y-73969000I0J-225000D01*
G01*
X151147800Y-74419000D01*
G75*
G02*
X150922800Y-74644000I-225000J0D01*
G01*
G37*
%TD.AperFunction*%
%TD*%
%TO.P,C10,2*%
%TO.N,GND*%
%TA.AperFunction,SMDPad,CuDef*%
G36*
G01*
X148332000Y-73043200D02*
X147832000Y-73043200D01*
G75*
G02*
X147607000Y-72818200I0J225000D01*
G01*
X147607000Y-72368200D01*
G75*
G02*
X147832000Y-72143200I225000J0D01*
G01*
X148332000Y-72143200D01*
G75*
G02*
X148557000Y-72368200I0J-225000D01*
G01*
X148557000Y-72818200D01*
G75*
G02*
X148332000Y-73043200I-225000J0D01*
G01*
G37*
%TD.AperFunction*%
%TO.P,C10,1*%
%TO.N,VDD*%
%TA.AperFunction,SMDPad,CuDef*%
G36*
G01*
X148332000Y-74593200D02*
X147832000Y-74593200D01*
G75*
G02*
X147607000Y-74368200I0J225000D01*
G01*
X147607000Y-73918200D01*
G75*
G02*
X147832000Y-73693200I225000J0D01*
G01*
X148332000Y-73693200D01*
G75*
G02*
X148557000Y-73918200I0J-225000D01*
G01*
X148557000Y-74368200D01*
G75*
G02*
X148332000Y-74593200I-225000J0D01*
G01*
G37*
%TD.AperFunction*%
%TD*%
D10*
%TO.P,J1,6*%
%TO.N,Net-(J1-Pad6)*%
X146215000Y-116685000D03*
X140755000Y-116685000D03*
D11*
X145905000Y-113685000D03*
X141065000Y-113685000D03*
%TD*%
D10*
%TO.P,J2,6*%
%TO.N,Net-(J1-Pad6)*%
X157599000Y-116697000D03*
X152139000Y-116697000D03*
D11*
X157289000Y-113697000D03*
X152449000Y-113697000D03*
%TD*%
%TO.P,R2,2*%
%TO.N,GND*%
%TA.AperFunction,SMDPad,CuDef*%
G36*
G01*
X151809000Y-110511000D02*
X151809000Y-109961000D01*
G75*
G02*
X152009000Y-109761000I200000J0D01*
G01*
X152409000Y-109761000D01*
G75*
G02*
X152609000Y-109961000I0J-200000D01*
G01*
X152609000Y-110511000D01*
G75*
G02*
X152409000Y-110711000I-200000J0D01*
G01*
X152009000Y-110711000D01*
G75*
G02*
X151809000Y-110511000I0J200000D01*
G01*
G37*
%TD.AperFunction*%
%TO.P,R2,1*%
%TO.N,VBUS*%
%TA.AperFunction,SMDPad,CuDef*%
G36*
G01*
X150159000Y-110511000D02*
X150159000Y-109961000D01*
G75*
G02*
X150359000Y-109761000I200000J0D01*
G01*
X150759000Y-109761000D01*
G75*
G02*
X150959000Y-109961000I0J-200000D01*
G01*
X150959000Y-110511000D01*
G75*
G02*
X150759000Y-110711000I-200000J0D01*
G01*
X150359000Y-110711000D01*
G75*
G02*
X150159000Y-110511000I0J200000D01*
G01*
G37*
%TD.AperFunction*%
%TD*%
D12*
%TO.P,J5,18*%
%TO.N,VBUS*%
X160655000Y-116586000D03*
%TO.P,J5,17*%
%TO.N,GND*%
X160655000Y-114046000D03*
%TO.P,J5,16*%
X160655000Y-111506000D03*
%TO.P,J5,15*%
%TO.N,VDD*%
X160655000Y-108966000D03*
%TO.P,J5,14*%
%TO.N,P0.04*%
X160655000Y-106426000D03*
%TO.P,J5,13*%
%TO.N,P1.09*%
X160655000Y-103886000D03*
%TO.P,J5,12*%
%TO.N,P0.08*%
X160655000Y-101346000D03*
%TO.P,J5,11*%
%TO.N,P0.05*%
X160655000Y-98806000D03*
%TO.P,J5,10*%
%TO.N,P0.06*%
X160655000Y-96266000D03*
%TO.P,J5,9*%
%TO.N,P0.26*%
X160655000Y-93726000D03*
%TO.P,J5,8*%
%TO.N,P0.30*%
X160655000Y-91186000D03*
%TO.P,J5,7*%
%TO.N,P0.31*%
X160655000Y-88646000D03*
%TO.P,J5,6*%
%TO.N,P0.29*%
X160655000Y-86106000D03*
%TO.P,J5,5*%
%TO.N,P0.02*%
X160655000Y-83566000D03*
%TO.P,J5,4*%
%TO.N,P1.05*%
X160655000Y-81026000D03*
%TO.P,J5,3*%
%TO.N,P0.28*%
X160655000Y-78486000D03*
%TO.P,J5,2*%
%TO.N,P0.03*%
X160655000Y-75946000D03*
D13*
%TO.P,J5,1*%
%TO.N,P0.25*%
X160655000Y-73406000D03*
%TD*%
D14*
%TO.P,U3,10*%
%TO.N,Net-(C3-Pad2)*%
X143367000Y-106512000D03*
%TO.P,U3,9*%
%TO.N,P0.06*%
X142867000Y-106512000D03*
%TO.P,U3,8*%
%TO.N,P0.08*%
X142367000Y-106512000D03*
%TO.P,U3,7*%
%TO.N,VBUS*%
X141867000Y-106512000D03*
%TO.P,U3,6*%
%TO.N,Net-(D8-Pad2)*%
X141367000Y-106512000D03*
%TO.P,U3,5*%
%TO.N,P0.05*%
X141367000Y-110912000D03*
%TO.P,U3,4*%
%TO.N,P0.07*%
X141867000Y-110912000D03*
%TO.P,U3,3*%
%TO.N,GND*%
X142367000Y-110912000D03*
%TO.P,U3,2*%
%TO.N,/UART_D-*%
X142867000Y-110912000D03*
%TO.P,U3,1*%
%TO.N,/UART_D+*%
X143367000Y-110912000D03*
%TD*%
%TO.P,C1,2*%
%TO.N,GND*%
%TA.AperFunction,SMDPad,CuDef*%
G36*
G01*
X153920000Y-109657000D02*
X153420000Y-109657000D01*
G75*
G02*
X153195000Y-109432000I0J225000D01*
G01*
X153195000Y-108982000D01*
G75*
G02*
X153420000Y-108757000I225000J0D01*
G01*
X153920000Y-108757000D01*
G75*
G02*
X154145000Y-108982000I0J-225000D01*
G01*
X154145000Y-109432000D01*
G75*
G02*
X153920000Y-109657000I-225000J0D01*
G01*
G37*
%TD.AperFunction*%
%TO.P,C1,1*%
%TO.N,VBUS*%
%TA.AperFunction,SMDPad,CuDef*%
G36*
G01*
X153920000Y-111207000D02*
X153420000Y-111207000D01*
G75*
G02*
X153195000Y-110982000I0J225000D01*
G01*
X153195000Y-110532000D01*
G75*
G02*
X153420000Y-110307000I225000J0D01*
G01*
X153920000Y-110307000D01*
G75*
G02*
X154145000Y-110532000I0J-225000D01*
G01*
X154145000Y-110982000D01*
G75*
G02*
X153920000Y-111207000I-225000J0D01*
G01*
G37*
%TD.AperFunction*%
%TD*%
D15*
%TO.P,D3,2*%
%TO.N,/USB2VBUS*%
X152307000Y-112077500D03*
%TO.P,D3,1*%
%TO.N,VBUS*%
X150207000Y-112077500D03*
%TD*%
%TO.P,U4,16*%
%TO.N,VDD*%
%TA.AperFunction,SMDPad,CuDef*%
G36*
G01*
X148050000Y-82139000D02*
X148050000Y-81789000D01*
G75*
G02*
X148150000Y-81689000I100000J0D01*
G01*
X148350000Y-81689000D01*
G75*
G02*
X148450000Y-81789000I0J-100000D01*
G01*
X148450000Y-82139000D01*
G75*
G02*
X148350000Y-82239000I-100000J0D01*
G01*
X148150000Y-82239000D01*
G75*
G02*
X148050000Y-82139000I0J100000D01*
G01*
G37*
%TD.AperFunction*%
%TO.P,U4,15*%
%TA.AperFunction,SMDPad,CuDef*%
G36*
G01*
X148700000Y-82139000D02*
X148700000Y-81789000D01*
G75*
G02*
X148800000Y-81689000I100000J0D01*
G01*
X149000000Y-81689000D01*
G75*
G02*
X149100000Y-81789000I0J-100000D01*
G01*
X149100000Y-82139000D01*
G75*
G02*
X149000000Y-82239000I-100000J0D01*
G01*
X148800000Y-82239000D01*
G75*
G02*
X148700000Y-82139000I0J100000D01*
G01*
G37*
%TD.AperFunction*%
%TO.P,U4,14*%
%TO.N,Net-(C6-Pad1)*%
%TA.AperFunction,SMDPad,CuDef*%
G36*
G01*
X149350000Y-82139000D02*
X149350000Y-81789000D01*
G75*
G02*
X149450000Y-81689000I100000J0D01*
G01*
X149650000Y-81689000D01*
G75*
G02*
X149750000Y-81789000I0J-100000D01*
G01*
X149750000Y-82139000D01*
G75*
G02*
X149650000Y-82239000I-100000J0D01*
G01*
X149450000Y-82239000D01*
G75*
G02*
X149350000Y-82139000I0J100000D01*
G01*
G37*
%TD.AperFunction*%
%TO.P,U4,13*%
%TO.N,GND*%
%TA.AperFunction,SMDPad,CuDef*%
G36*
G01*
X150000000Y-82139000D02*
X150000000Y-81789000D01*
G75*
G02*
X150100000Y-81689000I100000J0D01*
G01*
X150300000Y-81689000D01*
G75*
G02*
X150400000Y-81789000I0J-100000D01*
G01*
X150400000Y-82139000D01*
G75*
G02*
X150300000Y-82239000I-100000J0D01*
G01*
X150100000Y-82239000D01*
G75*
G02*
X150000000Y-82139000I0J100000D01*
G01*
G37*
%TD.AperFunction*%
%TO.P,U4,12*%
%TA.AperFunction,SMDPad,CuDef*%
G36*
G01*
X150650000Y-81339000D02*
X150650000Y-81139000D01*
G75*
G02*
X150750000Y-81039000I100000J0D01*
G01*
X151100000Y-81039000D01*
G75*
G02*
X151200000Y-81139000I0J-100000D01*
G01*
X151200000Y-81339000D01*
G75*
G02*
X151100000Y-81439000I-100000J0D01*
G01*
X150750000Y-81439000D01*
G75*
G02*
X150650000Y-81339000I0J100000D01*
G01*
G37*
%TD.AperFunction*%
%TO.P,U4,11*%
%TA.AperFunction,SMDPad,CuDef*%
G36*
G01*
X150650000Y-80689000D02*
X150650000Y-80489000D01*
G75*
G02*
X150750000Y-80389000I100000J0D01*
G01*
X151100000Y-80389000D01*
G75*
G02*
X151200000Y-80489000I0J-100000D01*
G01*
X151200000Y-80689000D01*
G75*
G02*
X151100000Y-80789000I-100000J0D01*
G01*
X150750000Y-80789000D01*
G75*
G02*
X150650000Y-80689000I0J100000D01*
G01*
G37*
%TD.AperFunction*%
%TO.P,U4,10*%
%TA.AperFunction,SMDPad,CuDef*%
G36*
G01*
X150650000Y-80039000D02*
X150650000Y-79839000D01*
G75*
G02*
X150750000Y-79739000I100000J0D01*
G01*
X151100000Y-79739000D01*
G75*
G02*
X151200000Y-79839000I0J-100000D01*
G01*
X151200000Y-80039000D01*
G75*
G02*
X151100000Y-80139000I-100000J0D01*
G01*
X150750000Y-80139000D01*
G75*
G02*
X150650000Y-80039000I0J100000D01*
G01*
G37*
%TD.AperFunction*%
%TO.P,U4,9*%
%TA.AperFunction,SMDPad,CuDef*%
G36*
G01*
X150650000Y-79389000D02*
X150650000Y-79189000D01*
G75*
G02*
X150750000Y-79089000I100000J0D01*
G01*
X151100000Y-79089000D01*
G75*
G02*
X151200000Y-79189000I0J-100000D01*
G01*
X151200000Y-79389000D01*
G75*
G02*
X151100000Y-79489000I-100000J0D01*
G01*
X150750000Y-79489000D01*
G75*
G02*
X150650000Y-79389000I0J100000D01*
G01*
G37*
%TD.AperFunction*%
%TO.P,U4,8*%
%TA.AperFunction,SMDPad,CuDef*%
G36*
G01*
X150000000Y-78739000D02*
X150000000Y-78389000D01*
G75*
G02*
X150100000Y-78289000I100000J0D01*
G01*
X150300000Y-78289000D01*
G75*
G02*
X150400000Y-78389000I0J-100000D01*
G01*
X150400000Y-78739000D01*
G75*
G02*
X150300000Y-78839000I-100000J0D01*
G01*
X150100000Y-78839000D01*
G75*
G02*
X150000000Y-78739000I0J100000D01*
G01*
G37*
%TD.AperFunction*%
%TO.P,U4,7*%
%TO.N,P0.25*%
%TA.AperFunction,SMDPad,CuDef*%
G36*
G01*
X149350000Y-78739000D02*
X149350000Y-78389000D01*
G75*
G02*
X149450000Y-78289000I100000J0D01*
G01*
X149650000Y-78289000D01*
G75*
G02*
X149750000Y-78389000I0J-100000D01*
G01*
X149750000Y-78739000D01*
G75*
G02*
X149650000Y-78839000I-100000J0D01*
G01*
X149450000Y-78839000D01*
G75*
G02*
X149350000Y-78739000I0J100000D01*
G01*
G37*
%TD.AperFunction*%
%TO.P,U4,6*%
%TO.N,P0.26*%
%TA.AperFunction,SMDPad,CuDef*%
G36*
G01*
X148700000Y-78739000D02*
X148700000Y-78389000D01*
G75*
G02*
X148800000Y-78289000I100000J0D01*
G01*
X149000000Y-78289000D01*
G75*
G02*
X149100000Y-78389000I0J-100000D01*
G01*
X149100000Y-78739000D01*
G75*
G02*
X149000000Y-78839000I-100000J0D01*
G01*
X148800000Y-78839000D01*
G75*
G02*
X148700000Y-78739000I0J100000D01*
G01*
G37*
%TD.AperFunction*%
%TO.P,U4,5*%
%TO.N,P0.24*%
%TA.AperFunction,SMDPad,CuDef*%
G36*
G01*
X148050000Y-78739000D02*
X148050000Y-78389000D01*
G75*
G02*
X148150000Y-78289000I100000J0D01*
G01*
X148350000Y-78289000D01*
G75*
G02*
X148450000Y-78389000I0J-100000D01*
G01*
X148450000Y-78739000D01*
G75*
G02*
X148350000Y-78839000I-100000J0D01*
G01*
X148150000Y-78839000D01*
G75*
G02*
X148050000Y-78739000I0J100000D01*
G01*
G37*
%TD.AperFunction*%
%TO.P,U4,4*%
%TO.N,P0.22*%
%TA.AperFunction,SMDPad,CuDef*%
G36*
G01*
X147250000Y-79389000D02*
X147250000Y-79189000D01*
G75*
G02*
X147350000Y-79089000I100000J0D01*
G01*
X147700000Y-79089000D01*
G75*
G02*
X147800000Y-79189000I0J-100000D01*
G01*
X147800000Y-79389000D01*
G75*
G02*
X147700000Y-79489000I-100000J0D01*
G01*
X147350000Y-79489000D01*
G75*
G02*
X147250000Y-79389000I0J100000D01*
G01*
G37*
%TD.AperFunction*%
%TO.P,U4,3*%
%TO.N,P0.20*%
%TA.AperFunction,SMDPad,CuDef*%
G36*
G01*
X147250000Y-80039000D02*
X147250000Y-79839000D01*
G75*
G02*
X147350000Y-79739000I100000J0D01*
G01*
X147700000Y-79739000D01*
G75*
G02*
X147800000Y-79839000I0J-100000D01*
G01*
X147800000Y-80039000D01*
G75*
G02*
X147700000Y-80139000I-100000J0D01*
G01*
X147350000Y-80139000D01*
G75*
G02*
X147250000Y-80039000I0J100000D01*
G01*
G37*
%TD.AperFunction*%
%TO.P,U4,2*%
%TO.N,P0.17*%
%TA.AperFunction,SMDPad,CuDef*%
G36*
G01*
X147250000Y-80689000D02*
X147250000Y-80489000D01*
G75*
G02*
X147350000Y-80389000I100000J0D01*
G01*
X147700000Y-80389000D01*
G75*
G02*
X147800000Y-80489000I0J-100000D01*
G01*
X147800000Y-80689000D01*
G75*
G02*
X147700000Y-80789000I-100000J0D01*
G01*
X147350000Y-80789000D01*
G75*
G02*
X147250000Y-80689000I0J100000D01*
G01*
G37*
%TD.AperFunction*%
%TO.P,U4,1*%
%TO.N,VDD*%
%TA.AperFunction,SMDPad,CuDef*%
G36*
G01*
X147250000Y-81339000D02*
X147250000Y-81139000D01*
G75*
G02*
X147350000Y-81039000I100000J0D01*
G01*
X147700000Y-81039000D01*
G75*
G02*
X147800000Y-81139000I0J-100000D01*
G01*
X147800000Y-81339000D01*
G75*
G02*
X147700000Y-81439000I-100000J0D01*
G01*
X147350000Y-81439000D01*
G75*
G02*
X147250000Y-81339000I0J100000D01*
G01*
G37*
%TD.AperFunction*%
%TD*%
%TO.P,D2,2*%
%TO.N,/USB1VBUS*%
X145855000Y-112141000D03*
%TO.P,D2,1*%
%TO.N,VBUS*%
X147955000Y-112141000D03*
%TD*%
%TO.P,C3,2*%
%TO.N,Net-(C3-Pad2)*%
%TA.AperFunction,SMDPad,CuDef*%
G36*
G01*
X145347500Y-108958500D02*
X144847500Y-108958500D01*
G75*
G02*
X144622500Y-108733500I0J225000D01*
G01*
X144622500Y-108283500D01*
G75*
G02*
X144847500Y-108058500I225000J0D01*
G01*
X145347500Y-108058500D01*
G75*
G02*
X145572500Y-108283500I0J-225000D01*
G01*
X145572500Y-108733500D01*
G75*
G02*
X145347500Y-108958500I-225000J0D01*
G01*
G37*
%TD.AperFunction*%
%TO.P,C3,1*%
%TO.N,GND*%
%TA.AperFunction,SMDPad,CuDef*%
G36*
G01*
X145347500Y-110508500D02*
X144847500Y-110508500D01*
G75*
G02*
X144622500Y-110283500I0J225000D01*
G01*
X144622500Y-109833500D01*
G75*
G02*
X144847500Y-109608500I225000J0D01*
G01*
X145347500Y-109608500D01*
G75*
G02*
X145572500Y-109833500I0J-225000D01*
G01*
X145572500Y-110283500D01*
G75*
G02*
X145347500Y-110508500I-225000J0D01*
G01*
G37*
%TD.AperFunction*%
%TD*%
D16*
%TO.P,D1,2*%
%TO.N,VBUS*%
X147002500Y-110143000D03*
%TO.P,D1,1*%
%TO.N,VDDH*%
X147002500Y-108043000D03*
%TD*%
D17*
%TO.P,U1,5*%
%TO.N,Net-(R3-Pad2)*%
X155300500Y-109159000D03*
%TO.P,U1,4*%
%TO.N,VBUS*%
X155300500Y-111059000D03*
%TO.P,U1,3*%
%TO.N,VBAT*%
X157500500Y-111059000D03*
%TO.P,U1,2*%
%TO.N,GND*%
X157500500Y-110109000D03*
%TO.P,U1,1*%
%TO.N,Net-(D4-Pad1)*%
X157500500Y-109159000D03*
%TD*%
%TO.P,C5,2*%
%TO.N,GND*%
%TA.AperFunction,SMDPad,CuDef*%
G36*
G01*
X155393200Y-104894800D02*
X154893200Y-104894800D01*
G75*
G02*
X154668200Y-104669800I0J225000D01*
G01*
X154668200Y-104219800D01*
G75*
G02*
X154893200Y-103994800I225000J0D01*
G01*
X155393200Y-103994800D01*
G75*
G02*
X155618200Y-104219800I0J-225000D01*
G01*
X155618200Y-104669800D01*
G75*
G02*
X155393200Y-104894800I-225000J0D01*
G01*
G37*
%TD.AperFunction*%
%TO.P,C5,1*%
%TO.N,VBAT*%
%TA.AperFunction,SMDPad,CuDef*%
G36*
G01*
X155393200Y-106444800D02*
X154893200Y-106444800D01*
G75*
G02*
X154668200Y-106219800I0J225000D01*
G01*
X154668200Y-105769800D01*
G75*
G02*
X154893200Y-105544800I225000J0D01*
G01*
X155393200Y-105544800D01*
G75*
G02*
X155618200Y-105769800I0J-225000D01*
G01*
X155618200Y-106219800D01*
G75*
G02*
X155393200Y-106444800I-225000J0D01*
G01*
G37*
%TD.AperFunction*%
%TD*%
D12*
%TO.P,J4,18*%
%TO.N,VBUS*%
X137795000Y-116586000D03*
%TO.P,J4,17*%
%TO.N,GND*%
X137795000Y-114046000D03*
%TO.P,J4,16*%
X137795000Y-111506000D03*
%TO.P,J4,15*%
%TO.N,VDD*%
X137795000Y-108966000D03*
%TO.P,J4,14*%
%TO.N,P0.12*%
X137795000Y-106426000D03*
%TO.P,J4,13*%
%TO.N,P0.07*%
X137795000Y-103886000D03*
%TO.P,J4,12*%
%TO.N,P0.15*%
X137795000Y-101346000D03*
%TO.P,J4,11*%
%TO.N,P0.17*%
X137795000Y-98806000D03*
%TO.P,J4,10*%
%TO.N,P0.20*%
X137795000Y-96266000D03*
%TO.P,J4,9*%
%TO.N,P0.13*%
X137795000Y-93726000D03*
%TO.P,J4,8*%
%TO.N,P0.22*%
X137795000Y-91186000D03*
%TO.P,J4,7*%
%TO.N,P0.24*%
X137795000Y-88646000D03*
%TO.P,J4,6*%
%TO.N,SWO*%
X137795000Y-86106000D03*
%TO.P,J4,5*%
%TO.N,P1.02*%
X137795000Y-83566000D03*
%TO.P,J4,4*%
%TO.N,P1.04*%
X137795000Y-81026000D03*
%TO.P,J4,3*%
%TO.N,P0.09*%
X137795000Y-78486000D03*
%TO.P,J4,2*%
%TO.N,P1.06*%
X137795000Y-75946000D03*
D13*
%TO.P,J4,1*%
%TO.N,P0.10*%
X137795000Y-73406000D03*
%TD*%
%TO.P,R3,2*%
%TO.N,Net-(R3-Pad2)*%
%TA.AperFunction,SMDPad,CuDef*%
G36*
G01*
X154794000Y-107780500D02*
X154794000Y-107230500D01*
G75*
G02*
X154994000Y-107030500I200000J0D01*
G01*
X155394000Y-107030500D01*
G75*
G02*
X155594000Y-107230500I0J-200000D01*
G01*
X155594000Y-107780500D01*
G75*
G02*
X155394000Y-107980500I-200000J0D01*
G01*
X154994000Y-107980500D01*
G75*
G02*
X154794000Y-107780500I0J200000D01*
G01*
G37*
%TD.AperFunction*%
%TO.P,R3,1*%
%TO.N,GND*%
%TA.AperFunction,SMDPad,CuDef*%
G36*
G01*
X153144000Y-107780500D02*
X153144000Y-107230500D01*
G75*
G02*
X153344000Y-107030500I200000J0D01*
G01*
X153744000Y-107030500D01*
G75*
G02*
X153944000Y-107230500I0J-200000D01*
G01*
X153944000Y-107780500D01*
G75*
G02*
X153744000Y-107980500I-200000J0D01*
G01*
X153344000Y-107980500D01*
G75*
G02*
X153144000Y-107780500I0J200000D01*
G01*
G37*
%TD.AperFunction*%
%TD*%
D18*
%TO.P,Q1,3*%
%TO.N,VBAT*%
X150796500Y-107632500D03*
%TO.P,Q1,2*%
%TO.N,VDDH*%
X148796500Y-106682500D03*
%TO.P,Q1,1*%
%TO.N,VBUS*%
X148796500Y-108582500D03*
%TD*%
%TO.P,C4,2*%
%TO.N,GND*%
%TA.AperFunction,SMDPad,CuDef*%
G36*
G01*
X142565000Y-99881500D02*
X142565000Y-99381500D01*
G75*
G02*
X142790000Y-99156500I225000J0D01*
G01*
X143240000Y-99156500D01*
G75*
G02*
X143465000Y-99381500I0J-225000D01*
G01*
X143465000Y-99881500D01*
G75*
G02*
X143240000Y-100106500I-225000J0D01*
G01*
X142790000Y-100106500D01*
G75*
G02*
X142565000Y-99881500I0J225000D01*
G01*
G37*
%TD.AperFunction*%
%TO.P,C4,1*%
%TO.N,VDD*%
%TA.AperFunction,SMDPad,CuDef*%
G36*
G01*
X141015000Y-99881500D02*
X141015000Y-99381500D01*
G75*
G02*
X141240000Y-99156500I225000J0D01*
G01*
X141690000Y-99156500D01*
G75*
G02*
X141915000Y-99381500I0J-225000D01*
G01*
X141915000Y-99881500D01*
G75*
G02*
X141690000Y-100106500I-225000J0D01*
G01*
X141240000Y-100106500D01*
G75*
G02*
X141015000Y-99881500I0J225000D01*
G01*
G37*
%TD.AperFunction*%
%TD*%
D17*
%TO.P,U2,5*%
%TO.N,VDD*%
X141444800Y-101462800D03*
%TO.P,U2,4*%
%TO.N,N/C*%
X141444800Y-103362800D03*
%TO.P,U2,3*%
%TO.N,VDDH*%
X143644800Y-103362800D03*
%TO.P,U2,2*%
%TO.N,GND*%
X143644800Y-102412800D03*
%TO.P,U2,1*%
%TO.N,VDDH*%
X143644800Y-101462800D03*
%TD*%
%TO.P,C2,2*%
%TO.N,GND*%
%TA.AperFunction,SMDPad,CuDef*%
G36*
G01*
X146438500Y-101723000D02*
X146438500Y-101223000D01*
G75*
G02*
X146663500Y-100998000I225000J0D01*
G01*
X147113500Y-100998000D01*
G75*
G02*
X147338500Y-101223000I0J-225000D01*
G01*
X147338500Y-101723000D01*
G75*
G02*
X147113500Y-101948000I-225000J0D01*
G01*
X146663500Y-101948000D01*
G75*
G02*
X146438500Y-101723000I0J225000D01*
G01*
G37*
%TD.AperFunction*%
%TO.P,C2,1*%
%TO.N,VDDH*%
%TA.AperFunction,SMDPad,CuDef*%
G36*
G01*
X144888500Y-101723000D02*
X144888500Y-101223000D01*
G75*
G02*
X145113500Y-100998000I225000J0D01*
G01*
X145563500Y-100998000D01*
G75*
G02*
X145788500Y-101223000I0J-225000D01*
G01*
X145788500Y-101723000D01*
G75*
G02*
X145563500Y-101948000I-225000J0D01*
G01*
X145113500Y-101948000D01*
G75*
G02*
X144888500Y-101723000I0J225000D01*
G01*
G37*
%TD.AperFunction*%
%TD*%
%TO.P,C6,2*%
%TO.N,GND*%
%TA.AperFunction,SMDPad,CuDef*%
G36*
G01*
X152586500Y-78986500D02*
X152086500Y-78986500D01*
G75*
G02*
X151861500Y-78761500I0J225000D01*
G01*
X151861500Y-78311500D01*
G75*
G02*
X152086500Y-78086500I225000J0D01*
G01*
X152586500Y-78086500D01*
G75*
G02*
X152811500Y-78311500I0J-225000D01*
G01*
X152811500Y-78761500D01*
G75*
G02*
X152586500Y-78986500I-225000J0D01*
G01*
G37*
%TD.AperFunction*%
%TO.P,C6,1*%
%TO.N,Net-(C6-Pad1)*%
%TA.AperFunction,SMDPad,CuDef*%
G36*
G01*
X152586500Y-80536500D02*
X152086500Y-80536500D01*
G75*
G02*
X151861500Y-80311500I0J225000D01*
G01*
X151861500Y-79861500D01*
G75*
G02*
X152086500Y-79636500I225000J0D01*
G01*
X152586500Y-79636500D01*
G75*
G02*
X152811500Y-79861500I0J-225000D01*
G01*
X152811500Y-80311500D01*
G75*
G02*
X152586500Y-80536500I-225000J0D01*
G01*
G37*
%TD.AperFunction*%
%TD*%
D12*
%TO.P,J7,6*%
%TO.N,SWC*%
X150495000Y-99441000D03*
%TO.P,J7,5*%
%TO.N,GND*%
X147955000Y-99441000D03*
%TO.P,J7,4*%
%TO.N,SWD*%
X150495000Y-96901000D03*
%TO.P,J7,3*%
%TO.N,RST*%
X147955000Y-96901000D03*
%TO.P,J7,2*%
%TO.N,VDD*%
X150495000Y-94361000D03*
D13*
%TO.P,J7,1*%
%TO.N,SWO*%
X147955000Y-94361000D03*
%TD*%
D12*
%TO.P,J3,2*%
%TO.N,VBAT*%
X157429200Y-106426000D03*
D13*
%TO.P,J3,1*%
%TO.N,GND*%
X157429200Y-103886000D03*
%TD*%
D19*
%TO.N,GND*%
X157861000Y-77851000D03*
X149987000Y-80899000D03*
X156210000Y-112217200D03*
X149199600Y-116789200D03*
X144722307Y-111850410D03*
X152908000Y-81280000D03*
X152095200Y-77622400D03*
X150266400Y-77571600D03*
X149352000Y-72593200D03*
X144477990Y-85219154D03*
X148212011Y-88831378D03*
X144221200Y-100330000D03*
X153416000Y-72771000D03*
X144653000Y-72390000D03*
X159512000Y-112776000D03*
X139827000Y-72771000D03*
X145669000Y-72390000D03*
X152258160Y-109033545D03*
X149288500Y-104648000D03*
X144653000Y-95440500D03*
X157704968Y-96012000D03*
X142846842Y-109356307D03*
X149199600Y-116789200D03*
%TO.N,VBUS*%
X155244800Y-110084002D03*
X141400540Y-85234774D03*
X147984500Y-110143000D03*
%TO.N,VDD*%
X148590000Y-80162400D03*
X149428800Y-74194000D03*
X140463272Y-86417191D03*
X149612022Y-88585956D03*
X149012593Y-102696254D03*
X145478500Y-92837000D03*
X140144500Y-102743000D03*
X155448000Y-100393500D03*
%TO.N,SWD*%
X145097500Y-98044000D03*
X141478000Y-98107500D03*
%TO.N,SWC*%
X140868400Y-75387200D03*
%TO.N,RST*%
X153098500Y-98171000D03*
X142600553Y-85540473D03*
X144591010Y-90115484D03*
%TO.N,VDDH*%
X144526000Y-106616500D03*
X146507200Y-88849200D03*
X145961010Y-99959496D03*
X145240906Y-103207837D03*
%TO.N,P0.15*%
X144932400Y-83566000D03*
X140640862Y-93333362D03*
%TO.N,P0.12*%
X148675856Y-83486280D03*
X149098000Y-101663500D03*
%TO.N,P0.08*%
X153009600Y-83718400D03*
X157530482Y-97930018D03*
%TO.N,P0.06*%
X154940000Y-102870000D03*
X153924000Y-104394000D03*
%TO.N,P0.05*%
X151407938Y-88433035D03*
X152844500Y-92519500D03*
X146939000Y-111125000D03*
X140271500Y-112141000D03*
%TO.N,P0.07*%
X146100800Y-83312000D03*
%TO.N,Net-(D4-Pad1)*%
X157226000Y-108153200D03*
%TO.N,P0.20*%
X146050000Y-79883000D03*
%TO.N,P0.17*%
X146050000Y-80899000D03*
%TO.N,P0.04*%
X153009600Y-82702400D03*
X156011498Y-94932500D03*
%TO.N,P1.09*%
X150546752Y-88941347D03*
X152213671Y-93911009D03*
%TO.N,P1.06*%
X146304000Y-73533000D03*
%TO.N,P1.04*%
X146304000Y-74788790D03*
%TO.N,P1.02*%
X146304000Y-76188810D03*
%TO.N,SWO*%
X146304000Y-77343000D03*
X146964400Y-82550000D03*
%TO.N,P0.26*%
X148869616Y-76243804D03*
%TO.N,P0.25*%
X152903900Y-75713936D03*
%TO.N,P0.24*%
X140586981Y-78666811D03*
%TO.N,P0.22*%
X145961087Y-78805010D03*
%TO.N,/UART_D-*%
X142759388Y-112164002D03*
%TO.N,/UART_D+*%
X143774106Y-112168119D03*
%TO.N,/USB1VBUS*%
X141478000Y-112268000D03*
%TO.N,/USB2VBUS*%
X153416000Y-111887000D03*
%TO.N,Net-(D8-Pad2)*%
X141160500Y-105029000D03*
%TD*%
D20*
%TO.N,GND*%
X150200000Y-81112000D02*
X149987000Y-80899000D01*
X150200000Y-81964000D02*
X150200000Y-81112000D01*
X150327000Y-81239000D02*
X149987000Y-80899000D01*
X150925000Y-81239000D02*
X150327000Y-81239000D01*
X150297000Y-80589000D02*
X149987000Y-80899000D01*
X150925000Y-80589000D02*
X150297000Y-80589000D01*
X150925000Y-79939000D02*
X150312000Y-79939000D01*
X150312000Y-79939000D02*
X150297000Y-79954000D01*
X150200000Y-80686000D02*
X149987000Y-80899000D01*
X150327000Y-79289000D02*
X150200000Y-79416000D01*
X150925000Y-79289000D02*
X150327000Y-79289000D01*
X150200000Y-78564000D02*
X150200000Y-79416000D01*
X150200000Y-79416000D02*
X150200000Y-80686000D01*
X153544000Y-109219000D02*
X153543000Y-109220000D01*
X153544000Y-107696000D02*
X153544000Y-109219000D01*
X156870400Y-104444800D02*
X157429200Y-103886000D01*
X155143200Y-104444800D02*
X156870400Y-104444800D01*
X144729200Y-111843517D02*
X144722307Y-111850410D01*
X150925000Y-79289000D02*
X151343000Y-79289000D01*
X150200000Y-78564000D02*
X150200000Y-77638000D01*
X150200000Y-77638000D02*
X150266400Y-77571600D01*
X149402800Y-72644000D02*
X149352000Y-72593200D01*
X150672800Y-72644000D02*
X149402800Y-72644000D01*
X144068800Y-100177600D02*
X144221200Y-100330000D01*
X148082000Y-72593200D02*
X149352000Y-72593200D01*
X153543000Y-109220000D02*
X152444615Y-109220000D01*
X152444615Y-109220000D02*
X152258160Y-109033545D01*
X152273000Y-109048385D02*
X152258160Y-109033545D01*
X143522700Y-99631500D02*
X144221200Y-100330000D01*
X143015000Y-99631500D02*
X143522700Y-99631500D01*
X156875498Y-110109000D02*
X156400500Y-110583998D01*
X157500500Y-110109000D02*
X156875498Y-110109000D01*
X156400500Y-112026700D02*
X156210000Y-112217200D01*
X156400500Y-110583998D02*
X156400500Y-112026700D01*
X152209000Y-109082705D02*
X152258160Y-109033545D01*
X152209000Y-110236000D02*
X152209000Y-109082705D01*
X145097500Y-111475217D02*
X144722307Y-111850410D01*
X145097500Y-110058500D02*
X145097500Y-111475217D01*
X151343000Y-79289000D02*
X151343000Y-78717500D01*
X151524000Y-78536500D02*
X152336500Y-78536500D01*
X151343000Y-78717500D02*
X151524000Y-78536500D01*
X152095200Y-77622400D02*
X152095200Y-77673200D01*
X152336500Y-77914500D02*
X152336500Y-78536500D01*
X152095200Y-77673200D02*
X152336500Y-77914500D01*
X147955000Y-99441000D02*
X146875500Y-100520500D01*
X146875500Y-101460000D02*
X146888500Y-101473000D01*
X146875500Y-100520500D02*
X146875500Y-101460000D01*
X143649765Y-102407835D02*
X143644800Y-102412800D01*
X146575665Y-102407835D02*
X143649765Y-102407835D01*
X146888500Y-101473000D02*
X146888500Y-102095000D01*
X146888500Y-102095000D02*
X146575665Y-102407835D01*
D21*
X142367000Y-109836149D02*
X142846842Y-109356307D01*
X142367000Y-110912000D02*
X142367000Y-109836149D01*
D20*
X149505000Y-114173000D02*
X149505000Y-116483800D01*
X149505000Y-116483800D02*
X149199600Y-116789200D01*
%TO.N,VBUS*%
X155110000Y-110218802D02*
X155244800Y-110084002D01*
X155110000Y-111059000D02*
X155110000Y-110218802D01*
X159515990Y-115446990D02*
X160655000Y-116586000D01*
X157495473Y-115446990D02*
X159515990Y-115446990D01*
X155110000Y-113061517D02*
X157495473Y-115446990D01*
X155110000Y-111059000D02*
X155110000Y-113061517D01*
X138946010Y-115434990D02*
X146947010Y-115434990D01*
X137795000Y-116586000D02*
X138946010Y-115434990D01*
X147955000Y-114427000D02*
X147955000Y-112141000D01*
X146947010Y-115434990D02*
X147955000Y-114427000D01*
X150530000Y-110143000D02*
X150623000Y-110236000D01*
X150207000Y-111887000D02*
X150207000Y-111476500D01*
X150207000Y-111476500D02*
X150623000Y-111060500D01*
X150673510Y-111111010D02*
X150623000Y-111060500D01*
X153201990Y-111111010D02*
X150673510Y-111111010D01*
X153543000Y-110770000D02*
X153201990Y-111111010D01*
X154305600Y-110770000D02*
X153543000Y-110770000D01*
X155110000Y-111059000D02*
X154594600Y-111059000D01*
X154594600Y-111059000D02*
X154305600Y-110770000D01*
X148796500Y-110129500D02*
X148810000Y-110143000D01*
X148796500Y-108582500D02*
X148796500Y-110129500D01*
X148810000Y-110143000D02*
X150530000Y-110143000D01*
X147955000Y-110236000D02*
X148048000Y-110143000D01*
X147862000Y-110143000D02*
X147984500Y-110143000D01*
X147955000Y-112141000D02*
X147955000Y-110236000D01*
X148048000Y-110143000D02*
X148810000Y-110143000D01*
X147984500Y-110143000D02*
X148048000Y-110143000D01*
X150559000Y-110996500D02*
X150673510Y-111111010D01*
X150559000Y-110236000D02*
X150559000Y-110996500D01*
X147984500Y-110143000D02*
X147002500Y-110143000D01*
D21*
X145564968Y-109308490D02*
X145986500Y-109730022D01*
X145986500Y-109730022D02*
X145986500Y-111188500D01*
X146939000Y-112141000D02*
X147955000Y-112141000D01*
X145986500Y-111188500D02*
X146939000Y-112141000D01*
X143788990Y-109308490D02*
X144169990Y-109308490D01*
X144169990Y-109308490D02*
X145564968Y-109308490D01*
X144106490Y-109308490D02*
X144169990Y-109308490D01*
X141867000Y-107386500D02*
X141867000Y-106512000D01*
X142081250Y-107600750D02*
X141867000Y-107386500D01*
X141992501Y-107512001D02*
X142081250Y-107600750D01*
X142081250Y-107600750D02*
X143788990Y-109308490D01*
D20*
%TO.N,VDD*%
X147525000Y-81239000D02*
X148377000Y-81239000D01*
X148250000Y-81366000D02*
X148377000Y-81239000D01*
X148250000Y-81964000D02*
X148250000Y-81366000D01*
X148885000Y-81239000D02*
X148377000Y-81239000D01*
X148900000Y-81254000D02*
X148885000Y-81239000D01*
X148900000Y-81964000D02*
X148900000Y-81254000D01*
X148900000Y-81254000D02*
X148900000Y-80472400D01*
X148900000Y-80472400D02*
X148590000Y-80162400D01*
X148132800Y-74194000D02*
X148082000Y-74143200D01*
X150672800Y-74194000D02*
X149428800Y-74194000D01*
X149428800Y-74194000D02*
X148132800Y-74194000D01*
X141424700Y-101462800D02*
X140144500Y-102743000D01*
X141444800Y-101462800D02*
X141424700Y-101462800D01*
X141465000Y-101442600D02*
X141444800Y-101462800D01*
X141465000Y-99631500D02*
X141465000Y-101442600D01*
D21*
%TO.N,SWD*%
X145097500Y-98044000D02*
X141541500Y-98044000D01*
X141541500Y-98044000D02*
X141478000Y-98107500D01*
%TO.N,SWC*%
X151993600Y-75488800D02*
X140970000Y-75488800D01*
X140970000Y-75488800D02*
X140868400Y-75387200D01*
X154030604Y-75013935D02*
X152468465Y-75013935D01*
X159504999Y-97085801D02*
X159504999Y-80488330D01*
X159504999Y-80488330D02*
X154030604Y-75013935D01*
X157149800Y-99441000D02*
X159504999Y-97085801D01*
X152468465Y-75013935D02*
X151993600Y-75488800D01*
X150495000Y-99441000D02*
X157149800Y-99441000D01*
%TO.N,RST*%
X142600553Y-85540473D02*
X142600553Y-88125027D01*
X142600553Y-88125027D02*
X144591010Y-90115484D01*
X153073100Y-98145600D02*
X153098500Y-98171000D01*
X149250400Y-98145600D02*
X153073100Y-98145600D01*
X147955000Y-96901000D02*
X148005800Y-96901000D01*
X148005800Y-96901000D02*
X149250400Y-98145600D01*
D20*
%TO.N,VBAT*%
X157310000Y-111059000D02*
X158282600Y-111059000D01*
X158282600Y-111059000D02*
X158597600Y-110744000D01*
X158597600Y-107594400D02*
X157429200Y-106426000D01*
X158597600Y-110744000D02*
X158597600Y-107594400D01*
X156998000Y-105994800D02*
X157429200Y-106426000D01*
X155143200Y-105994800D02*
X156998000Y-105994800D01*
X153085200Y-105994800D02*
X155143200Y-105994800D01*
X150796500Y-107632500D02*
X151447500Y-107632500D01*
X151447500Y-107632500D02*
X153085200Y-105994800D01*
%TO.N,VDDH*%
X143644800Y-103362800D02*
X142986800Y-103362800D01*
X142986800Y-103362800D02*
X142646400Y-103022400D01*
X142885200Y-101462800D02*
X143644800Y-101462800D01*
X142646400Y-101701600D02*
X142885200Y-101462800D01*
X142646400Y-103022400D02*
X142646400Y-102362000D01*
X142646400Y-102362000D02*
X142646400Y-101701600D01*
X145085943Y-103362800D02*
X145240906Y-103207837D01*
X143644800Y-103362800D02*
X145085943Y-103362800D01*
X148730500Y-106616500D02*
X148796500Y-106682500D01*
X144526000Y-106616500D02*
X146812000Y-106616500D01*
X147002500Y-108043000D02*
X147002500Y-106616500D01*
X146812000Y-106616500D02*
X147002500Y-106616500D01*
X147002500Y-106616500D02*
X148730500Y-106616500D01*
X145328300Y-101462800D02*
X145338500Y-101473000D01*
X143644800Y-101462800D02*
X145328300Y-101462800D01*
X145338500Y-100582006D02*
X145961010Y-99959496D01*
X145338500Y-101473000D02*
X145338500Y-100582006D01*
D21*
%TO.N,P0.15*%
X144932400Y-83566000D02*
X144932400Y-84637562D01*
X140045024Y-99095976D02*
X140045024Y-98143476D01*
X137795000Y-101346000D02*
X140045024Y-99095976D01*
X140045024Y-93929200D02*
X140045024Y-98143476D01*
X140045024Y-98143476D02*
X140045024Y-98257978D01*
X140640862Y-93333362D02*
X140045024Y-93929200D01*
X145291012Y-84996174D02*
X145114169Y-84819331D01*
X145114169Y-84819331D02*
X145177991Y-84883153D01*
X144932400Y-84637562D02*
X145114169Y-84819331D01*
X140640862Y-93333362D02*
X141670624Y-92303600D01*
X141670624Y-92303600D02*
X144407582Y-92303600D01*
X144407582Y-92303600D02*
X145291012Y-91420170D01*
X145291012Y-91420170D02*
X145291012Y-84996174D01*
%TO.N,P0.12*%
X149105001Y-101656499D02*
X149098000Y-101663500D01*
X148279501Y-98051001D02*
X149105001Y-98876501D01*
X147402999Y-98051001D02*
X148279501Y-98051001D01*
X146804999Y-97453001D02*
X147402999Y-98051001D01*
X146804999Y-96348999D02*
X146804999Y-97453001D01*
X149105001Y-98876501D02*
X149105001Y-101656499D01*
X147642997Y-95511001D02*
X146804999Y-96348999D01*
X151041576Y-85852000D02*
X155244800Y-85852000D01*
X148675856Y-83486280D02*
X151041576Y-85852000D01*
X155244800Y-85852000D02*
X156768800Y-87376000D01*
X156768800Y-87376000D02*
X156768800Y-92354400D01*
X156768800Y-92354400D02*
X153612199Y-95511001D01*
X153612199Y-95511001D02*
X147642997Y-95511001D01*
X148532315Y-101663500D02*
X149098000Y-101663500D01*
X145866816Y-104328999D02*
X148532315Y-101663500D01*
X139892001Y-104328999D02*
X145866816Y-104328999D01*
X137795000Y-106426000D02*
X139892001Y-104328999D01*
%TO.N,P0.08*%
X158404978Y-86878578D02*
X158404978Y-97055522D01*
X158404978Y-97055522D02*
X157530482Y-97930018D01*
X155244800Y-83718400D02*
X158404978Y-86878578D01*
X153009600Y-83718400D02*
X155244800Y-83718400D01*
X159452919Y-101346000D02*
X160655000Y-101346000D01*
X157729198Y-101346000D02*
X159452919Y-101346000D01*
X155482800Y-103592398D02*
X157729198Y-101346000D01*
X147654111Y-105012389D02*
X149074102Y-103592398D01*
X142910909Y-105012389D02*
X147654111Y-105012389D01*
X142367000Y-105556298D02*
X142910909Y-105012389D01*
X142367000Y-106512000D02*
X142367000Y-105556298D01*
X149074102Y-103592398D02*
X155482800Y-103592398D01*
%TO.N,P0.06*%
X154940000Y-102870000D02*
X160655000Y-97155000D01*
X160655000Y-97155000D02*
X160655000Y-96266000D01*
X150622000Y-104394000D02*
X151066500Y-104394000D01*
X149504001Y-105511999D02*
X150622000Y-104394000D01*
X151066500Y-104394000D02*
X153924000Y-104394000D01*
X142976999Y-105511999D02*
X149504001Y-105511999D01*
X142867000Y-106512000D02*
X142867000Y-105621998D01*
X142867000Y-105621998D02*
X142976999Y-105511999D01*
%TO.N,P0.05*%
X151407938Y-91487932D02*
X151993944Y-92073938D01*
X151407938Y-88433035D02*
X151407938Y-91487932D01*
X152398938Y-92073938D02*
X151993944Y-92073938D01*
X152844500Y-92519500D02*
X152398938Y-92073938D01*
X148292998Y-107696000D02*
X148292998Y-107739002D01*
X149225000Y-107696000D02*
X148292998Y-107696000D01*
X151676210Y-105244790D02*
X149225000Y-107696000D01*
X158533990Y-105244790D02*
X151676210Y-105244790D01*
X159308800Y-106984800D02*
X159308800Y-106019600D01*
X159308800Y-106019600D02*
X158533990Y-105244790D01*
X159900001Y-107576001D02*
X159308800Y-106984800D01*
X161805001Y-99956001D02*
X161805001Y-107180999D01*
X160655000Y-98806000D02*
X161805001Y-99956001D01*
X161805001Y-107180999D02*
X161409999Y-107576001D01*
X161409999Y-107576001D02*
X159900001Y-107576001D01*
X141367000Y-111045500D02*
X140271500Y-112141000D01*
X141367000Y-110912000D02*
X141367000Y-111045500D01*
X146477499Y-109554501D02*
X146589750Y-109442250D01*
X146477499Y-110663499D02*
X146477499Y-109554501D01*
X146939000Y-111125000D02*
X146477499Y-110663499D01*
X148292998Y-107739002D02*
X146589750Y-109442250D01*
%TO.N,P0.07*%
X141867000Y-109300291D02*
X141863238Y-109296529D01*
X145700801Y-91576081D02*
X144573271Y-92703611D01*
X138644999Y-103036001D02*
X137795000Y-103886000D01*
X140445035Y-101235965D02*
X138644999Y-103036001D01*
X140445035Y-95012965D02*
X140445035Y-101235965D01*
X142754389Y-92703611D02*
X140445035Y-95012965D01*
X144573271Y-92703611D02*
X142754389Y-92703611D01*
X145700801Y-83711999D02*
X145700801Y-91576081D01*
X146100800Y-83312000D02*
X145700801Y-83711999D01*
X141867000Y-109402500D02*
X141867000Y-109228000D01*
X141867000Y-110912000D02*
X141867000Y-109402500D01*
X141867000Y-109402500D02*
X141867000Y-109300291D01*
X141867000Y-108910500D02*
X141867000Y-109300291D01*
X140652500Y-107696000D02*
X141867000Y-108910500D01*
X137362998Y-107696000D02*
X140652500Y-107696000D01*
X136588500Y-106921502D02*
X137362998Y-107696000D01*
X137795000Y-103886000D02*
X136588500Y-105092500D01*
X136588500Y-105092500D02*
X136588500Y-106921502D01*
%TO.N,Net-(C6-Pad1)*%
X149850010Y-82539010D02*
X149550000Y-82239000D01*
X149550000Y-82239000D02*
X149550000Y-81964000D01*
X150465692Y-82539010D02*
X149850010Y-82539010D01*
X150467712Y-82536990D02*
X150465692Y-82539010D01*
X150615008Y-82536990D02*
X150467712Y-82536990D01*
X152336500Y-80815498D02*
X150615008Y-82536990D01*
X152336500Y-80086500D02*
X152336500Y-80815498D01*
%TO.N,Net-(D4-Pad1)*%
X157310000Y-108237200D02*
X157226000Y-108153200D01*
X157500500Y-109159000D02*
X156720500Y-109159000D01*
X156720500Y-109159000D02*
X156654500Y-109093000D01*
X156654500Y-109093000D02*
X156654500Y-108394500D01*
X156895800Y-108153200D02*
X157226000Y-108153200D01*
X156654500Y-108394500D02*
X156895800Y-108153200D01*
%TO.N,P0.20*%
X146106000Y-79939000D02*
X146050000Y-79883000D01*
X147525000Y-79939000D02*
X146106000Y-79939000D01*
X139745023Y-85533738D02*
X139345012Y-85933749D01*
X146050000Y-79883000D02*
X143172900Y-79883000D01*
X143172900Y-79883000D02*
X139745023Y-83310877D01*
X139745023Y-83310877D02*
X139745023Y-85533738D01*
X139345012Y-85933749D02*
X139345012Y-92936484D01*
X139345012Y-92936484D02*
X138945001Y-93336495D01*
X138945001Y-93336495D02*
X138945001Y-95115999D01*
X138945001Y-95115999D02*
X137795000Y-96266000D01*
%TO.N,P0.17*%
X146360000Y-80589000D02*
X146050000Y-80899000D01*
X147525000Y-80589000D02*
X146360000Y-80589000D01*
X140145034Y-83476566D02*
X140145034Y-85717190D01*
X139345012Y-93502184D02*
X139345012Y-97255988D01*
X139745023Y-93102173D02*
X139345012Y-93502184D01*
X139345012Y-97255988D02*
X137795000Y-98806000D01*
X146050000Y-80899000D02*
X142722600Y-80899000D01*
X142722600Y-80899000D02*
X140145034Y-83476566D01*
X140145034Y-85717190D02*
X139745023Y-86117201D01*
X139745023Y-86117201D02*
X139745023Y-93102173D01*
%TO.N,P0.04*%
X151892000Y-83820000D02*
X151892000Y-84378800D01*
X151892000Y-84378800D02*
X152196800Y-84683600D01*
X152196800Y-84683600D02*
X155244800Y-84683600D01*
X155244800Y-84683600D02*
X157704976Y-87143776D01*
X153009600Y-82702400D02*
X151892000Y-83820000D01*
X157704976Y-93239022D02*
X157704976Y-93120024D01*
X156011498Y-94932500D02*
X157704976Y-93239022D01*
X157704976Y-87143776D02*
X157704976Y-93120024D01*
%TO.N,P1.09*%
X150546752Y-92244090D02*
X152213671Y-93911009D01*
X150546752Y-88941347D02*
X150546752Y-92244090D01*
%TO.N,P1.06*%
X146304000Y-73533000D02*
X140716000Y-73533000D01*
X138303000Y-75946000D02*
X137795000Y-75946000D01*
X140716000Y-73533000D02*
X138303000Y-75946000D01*
%TO.N,P1.04*%
X137795000Y-81026000D02*
X138945001Y-79875999D01*
X138945001Y-79875999D02*
X138945001Y-76274597D01*
X140830807Y-74388791D02*
X145904001Y-74388791D01*
X138945001Y-76274597D02*
X140830807Y-74388791D01*
X145904001Y-74388791D02*
X146304000Y-74788790D01*
%TO.N,P1.02*%
X139345012Y-82013788D02*
X139345012Y-77997390D01*
X141153592Y-76188810D02*
X146304000Y-76188810D01*
X139345012Y-77997390D02*
X141153592Y-76188810D01*
X137795000Y-83563800D02*
X139345012Y-82013788D01*
X137795000Y-83566000D02*
X137795000Y-83563800D01*
%TO.N,SWO*%
X139745023Y-78313977D02*
X139745023Y-82179477D01*
X146304000Y-77343000D02*
X140716000Y-77343000D01*
X138945001Y-84955999D02*
X137795000Y-86106000D01*
X140716000Y-77343000D02*
X139745023Y-78313977D01*
X139745023Y-82179477D02*
X138945001Y-82979499D01*
X138945001Y-82979499D02*
X138945001Y-84955999D01*
X148912012Y-93403988D02*
X148912012Y-85063297D01*
X148912012Y-85063297D02*
X146964400Y-83115685D01*
X146964400Y-83115685D02*
X146964400Y-82550000D01*
X147955000Y-94361000D02*
X148912012Y-93403988D01*
%TO.N,P0.26*%
X148900000Y-78564000D02*
X148900000Y-76274188D01*
X148900000Y-76274188D02*
X148869616Y-76243804D01*
%TO.N,P0.25*%
X150657265Y-76113935D02*
X152503901Y-76113935D01*
X149550000Y-78564000D02*
X149550000Y-77221200D01*
X149550000Y-77221200D02*
X150657265Y-76113935D01*
X152503901Y-76113935D02*
X152903900Y-75713936D01*
%TO.N,P0.24*%
X148066000Y-78105000D02*
X141148792Y-78105000D01*
X141148792Y-78105000D02*
X140586981Y-78666811D01*
X148250000Y-78564000D02*
X148250000Y-78289000D01*
X148250000Y-78289000D02*
X148066000Y-78105000D01*
%TO.N,P0.22*%
X146445077Y-79289000D02*
X145961087Y-78805010D01*
X147525000Y-79289000D02*
X146445077Y-79289000D01*
X145961087Y-78805010D02*
X143685190Y-78805010D01*
X138945001Y-90035999D02*
X137795000Y-91186000D01*
X138945001Y-85768060D02*
X138945001Y-90035999D01*
X139345012Y-85368049D02*
X138945001Y-85768060D01*
X139345012Y-83145188D02*
X139345012Y-85368049D01*
X143685190Y-78805010D02*
X139345012Y-83145188D01*
%TO.N,Net-(R3-Pad2)*%
X155194000Y-109075000D02*
X155110000Y-109159000D01*
X155194000Y-107696000D02*
X155194000Y-109075000D01*
%TO.N,/UART_D-*%
X142867000Y-112056390D02*
X142759388Y-112164002D01*
X142867000Y-110912000D02*
X142867000Y-112056390D01*
%TO.N,/UART_D+*%
X143367000Y-110912000D02*
X143774106Y-111319106D01*
X143774106Y-111319106D02*
X143774106Y-112168119D01*
D20*
%TO.N,/USB1VBUS*%
X142178121Y-112968121D02*
X145027879Y-112968121D01*
X141478000Y-112268000D02*
X142178121Y-112968121D01*
X145027879Y-112968121D02*
X145855000Y-112141000D01*
%TO.N,/USB2VBUS*%
X153225500Y-112077500D02*
X153416000Y-111887000D01*
X152307000Y-112077500D02*
X153225500Y-112077500D01*
D21*
%TO.N,Net-(D8-Pad2)*%
X141331800Y-106476800D02*
X141367000Y-106512000D01*
X141367000Y-105235500D02*
X141160500Y-105029000D01*
X141367000Y-106512000D02*
X141367000Y-105235500D01*
%TO.N,Net-(C3-Pad2)*%
X143872200Y-108508500D02*
X145097500Y-108508500D01*
X143367000Y-108003300D02*
X143872200Y-108508500D01*
X143367000Y-106512000D02*
X143367000Y-108003300D01*
%TD*%
M02*
