%TF.GenerationSoftware,KiCad,Pcbnew,5.1.10-88a1d61d58~88~ubuntu18.04.1*%
%TF.CreationDate,2021-05-30T13:33:07+03:00*%
%TF.ProjectId,ebyte-E73-2G4M08S1x-board,65627974-652d-4453-9733-2d3247344d30,rev?*%
%TF.SameCoordinates,Original*%
%TF.FileFunction,Soldermask,Bot*%
%TF.FilePolarity,Negative*%
%FSLAX46Y46*%
G04 Gerber Fmt 4.6, Leading zero omitted, Abs format (unit mm)*
G04 Created by KiCad (PCBNEW 5.1.10-88a1d61d58~88~ubuntu18.04.1) date 2021-05-30 13:33:07*
%MOMM*%
%LPD*%
G01*
G04 APERTURE LIST*
%ADD10O,1.350000X1.700000*%
%ADD11O,1.100000X1.500000*%
%ADD12O,1.700000X1.700000*%
%ADD13R,1.700000X1.700000*%
%ADD14R,0.300000X1.400000*%
%ADD15R,0.600000X0.450000*%
%ADD16R,0.450000X0.600000*%
%ADD17R,1.060000X0.650000*%
%ADD18R,0.900000X0.800000*%
G04 APERTURE END LIST*
%TO.C,C11*%
G36*
G01*
X148405000Y-113923000D02*
X148405000Y-114423000D01*
G75*
G02*
X148180000Y-114648000I-225000J0D01*
G01*
X147730000Y-114648000D01*
G75*
G02*
X147505000Y-114423000I0J225000D01*
G01*
X147505000Y-113923000D01*
G75*
G02*
X147730000Y-113698000I225000J0D01*
G01*
X148180000Y-113698000D01*
G75*
G02*
X148405000Y-113923000I0J-225000D01*
G01*
G37*
G36*
G01*
X149955000Y-113923000D02*
X149955000Y-114423000D01*
G75*
G02*
X149730000Y-114648000I-225000J0D01*
G01*
X149280000Y-114648000D01*
G75*
G02*
X149055000Y-114423000I0J225000D01*
G01*
X149055000Y-113923000D01*
G75*
G02*
X149280000Y-113698000I225000J0D01*
G01*
X149730000Y-113698000D01*
G75*
G02*
X149955000Y-113923000I0J-225000D01*
G01*
G37*
%TD*%
%TO.C,C9*%
G36*
G01*
X150922800Y-73094000D02*
X150422800Y-73094000D01*
G75*
G02*
X150197800Y-72869000I0J225000D01*
G01*
X150197800Y-72419000D01*
G75*
G02*
X150422800Y-72194000I225000J0D01*
G01*
X150922800Y-72194000D01*
G75*
G02*
X151147800Y-72419000I0J-225000D01*
G01*
X151147800Y-72869000D01*
G75*
G02*
X150922800Y-73094000I-225000J0D01*
G01*
G37*
G36*
G01*
X150922800Y-74644000D02*
X150422800Y-74644000D01*
G75*
G02*
X150197800Y-74419000I0J225000D01*
G01*
X150197800Y-73969000D01*
G75*
G02*
X150422800Y-73744000I225000J0D01*
G01*
X150922800Y-73744000D01*
G75*
G02*
X151147800Y-73969000I0J-225000D01*
G01*
X151147800Y-74419000D01*
G75*
G02*
X150922800Y-74644000I-225000J0D01*
G01*
G37*
%TD*%
%TO.C,C10*%
G36*
G01*
X148332000Y-73043200D02*
X147832000Y-73043200D01*
G75*
G02*
X147607000Y-72818200I0J225000D01*
G01*
X147607000Y-72368200D01*
G75*
G02*
X147832000Y-72143200I225000J0D01*
G01*
X148332000Y-72143200D01*
G75*
G02*
X148557000Y-72368200I0J-225000D01*
G01*
X148557000Y-72818200D01*
G75*
G02*
X148332000Y-73043200I-225000J0D01*
G01*
G37*
G36*
G01*
X148332000Y-74593200D02*
X147832000Y-74593200D01*
G75*
G02*
X147607000Y-74368200I0J225000D01*
G01*
X147607000Y-73918200D01*
G75*
G02*
X147832000Y-73693200I225000J0D01*
G01*
X148332000Y-73693200D01*
G75*
G02*
X148557000Y-73918200I0J-225000D01*
G01*
X148557000Y-74368200D01*
G75*
G02*
X148332000Y-74593200I-225000J0D01*
G01*
G37*
%TD*%
D10*
%TO.C,J1*%
X146215000Y-116685000D03*
X140755000Y-116685000D03*
D11*
X145905000Y-113685000D03*
X141065000Y-113685000D03*
%TD*%
D10*
%TO.C,J2*%
X157599000Y-116697000D03*
X152139000Y-116697000D03*
D11*
X157289000Y-113697000D03*
X152449000Y-113697000D03*
%TD*%
%TO.C,R2*%
G36*
G01*
X151809000Y-110511000D02*
X151809000Y-109961000D01*
G75*
G02*
X152009000Y-109761000I200000J0D01*
G01*
X152409000Y-109761000D01*
G75*
G02*
X152609000Y-109961000I0J-200000D01*
G01*
X152609000Y-110511000D01*
G75*
G02*
X152409000Y-110711000I-200000J0D01*
G01*
X152009000Y-110711000D01*
G75*
G02*
X151809000Y-110511000I0J200000D01*
G01*
G37*
G36*
G01*
X150159000Y-110511000D02*
X150159000Y-109961000D01*
G75*
G02*
X150359000Y-109761000I200000J0D01*
G01*
X150759000Y-109761000D01*
G75*
G02*
X150959000Y-109961000I0J-200000D01*
G01*
X150959000Y-110511000D01*
G75*
G02*
X150759000Y-110711000I-200000J0D01*
G01*
X150359000Y-110711000D01*
G75*
G02*
X150159000Y-110511000I0J200000D01*
G01*
G37*
%TD*%
D12*
%TO.C,J5*%
X160655000Y-116586000D03*
X160655000Y-114046000D03*
X160655000Y-111506000D03*
X160655000Y-108966000D03*
X160655000Y-106426000D03*
X160655000Y-103886000D03*
X160655000Y-101346000D03*
X160655000Y-98806000D03*
X160655000Y-96266000D03*
X160655000Y-93726000D03*
X160655000Y-91186000D03*
X160655000Y-88646000D03*
X160655000Y-86106000D03*
X160655000Y-83566000D03*
X160655000Y-81026000D03*
X160655000Y-78486000D03*
X160655000Y-75946000D03*
D13*
X160655000Y-73406000D03*
%TD*%
D14*
%TO.C,U3*%
X143367000Y-106512000D03*
X142867000Y-106512000D03*
X142367000Y-106512000D03*
X141867000Y-106512000D03*
X141367000Y-106512000D03*
X141367000Y-110912000D03*
X141867000Y-110912000D03*
X142367000Y-110912000D03*
X142867000Y-110912000D03*
X143367000Y-110912000D03*
%TD*%
%TO.C,C1*%
G36*
G01*
X153920000Y-109657000D02*
X153420000Y-109657000D01*
G75*
G02*
X153195000Y-109432000I0J225000D01*
G01*
X153195000Y-108982000D01*
G75*
G02*
X153420000Y-108757000I225000J0D01*
G01*
X153920000Y-108757000D01*
G75*
G02*
X154145000Y-108982000I0J-225000D01*
G01*
X154145000Y-109432000D01*
G75*
G02*
X153920000Y-109657000I-225000J0D01*
G01*
G37*
G36*
G01*
X153920000Y-111207000D02*
X153420000Y-111207000D01*
G75*
G02*
X153195000Y-110982000I0J225000D01*
G01*
X153195000Y-110532000D01*
G75*
G02*
X153420000Y-110307000I225000J0D01*
G01*
X153920000Y-110307000D01*
G75*
G02*
X154145000Y-110532000I0J-225000D01*
G01*
X154145000Y-110982000D01*
G75*
G02*
X153920000Y-111207000I-225000J0D01*
G01*
G37*
%TD*%
D15*
%TO.C,D3*%
X152307000Y-112077500D03*
X150207000Y-112077500D03*
%TD*%
%TO.C,U4*%
G36*
G01*
X148050000Y-82139000D02*
X148050000Y-81789000D01*
G75*
G02*
X148150000Y-81689000I100000J0D01*
G01*
X148350000Y-81689000D01*
G75*
G02*
X148450000Y-81789000I0J-100000D01*
G01*
X148450000Y-82139000D01*
G75*
G02*
X148350000Y-82239000I-100000J0D01*
G01*
X148150000Y-82239000D01*
G75*
G02*
X148050000Y-82139000I0J100000D01*
G01*
G37*
G36*
G01*
X148700000Y-82139000D02*
X148700000Y-81789000D01*
G75*
G02*
X148800000Y-81689000I100000J0D01*
G01*
X149000000Y-81689000D01*
G75*
G02*
X149100000Y-81789000I0J-100000D01*
G01*
X149100000Y-82139000D01*
G75*
G02*
X149000000Y-82239000I-100000J0D01*
G01*
X148800000Y-82239000D01*
G75*
G02*
X148700000Y-82139000I0J100000D01*
G01*
G37*
G36*
G01*
X149350000Y-82139000D02*
X149350000Y-81789000D01*
G75*
G02*
X149450000Y-81689000I100000J0D01*
G01*
X149650000Y-81689000D01*
G75*
G02*
X149750000Y-81789000I0J-100000D01*
G01*
X149750000Y-82139000D01*
G75*
G02*
X149650000Y-82239000I-100000J0D01*
G01*
X149450000Y-82239000D01*
G75*
G02*
X149350000Y-82139000I0J100000D01*
G01*
G37*
G36*
G01*
X150000000Y-82139000D02*
X150000000Y-81789000D01*
G75*
G02*
X150100000Y-81689000I100000J0D01*
G01*
X150300000Y-81689000D01*
G75*
G02*
X150400000Y-81789000I0J-100000D01*
G01*
X150400000Y-82139000D01*
G75*
G02*
X150300000Y-82239000I-100000J0D01*
G01*
X150100000Y-82239000D01*
G75*
G02*
X150000000Y-82139000I0J100000D01*
G01*
G37*
G36*
G01*
X150650000Y-81339000D02*
X150650000Y-81139000D01*
G75*
G02*
X150750000Y-81039000I100000J0D01*
G01*
X151100000Y-81039000D01*
G75*
G02*
X151200000Y-81139000I0J-100000D01*
G01*
X151200000Y-81339000D01*
G75*
G02*
X151100000Y-81439000I-100000J0D01*
G01*
X150750000Y-81439000D01*
G75*
G02*
X150650000Y-81339000I0J100000D01*
G01*
G37*
G36*
G01*
X150650000Y-80689000D02*
X150650000Y-80489000D01*
G75*
G02*
X150750000Y-80389000I100000J0D01*
G01*
X151100000Y-80389000D01*
G75*
G02*
X151200000Y-80489000I0J-100000D01*
G01*
X151200000Y-80689000D01*
G75*
G02*
X151100000Y-80789000I-100000J0D01*
G01*
X150750000Y-80789000D01*
G75*
G02*
X150650000Y-80689000I0J100000D01*
G01*
G37*
G36*
G01*
X150650000Y-80039000D02*
X150650000Y-79839000D01*
G75*
G02*
X150750000Y-79739000I100000J0D01*
G01*
X151100000Y-79739000D01*
G75*
G02*
X151200000Y-79839000I0J-100000D01*
G01*
X151200000Y-80039000D01*
G75*
G02*
X151100000Y-80139000I-100000J0D01*
G01*
X150750000Y-80139000D01*
G75*
G02*
X150650000Y-80039000I0J100000D01*
G01*
G37*
G36*
G01*
X150650000Y-79389000D02*
X150650000Y-79189000D01*
G75*
G02*
X150750000Y-79089000I100000J0D01*
G01*
X151100000Y-79089000D01*
G75*
G02*
X151200000Y-79189000I0J-100000D01*
G01*
X151200000Y-79389000D01*
G75*
G02*
X151100000Y-79489000I-100000J0D01*
G01*
X150750000Y-79489000D01*
G75*
G02*
X150650000Y-79389000I0J100000D01*
G01*
G37*
G36*
G01*
X150000000Y-78739000D02*
X150000000Y-78389000D01*
G75*
G02*
X150100000Y-78289000I100000J0D01*
G01*
X150300000Y-78289000D01*
G75*
G02*
X150400000Y-78389000I0J-100000D01*
G01*
X150400000Y-78739000D01*
G75*
G02*
X150300000Y-78839000I-100000J0D01*
G01*
X150100000Y-78839000D01*
G75*
G02*
X150000000Y-78739000I0J100000D01*
G01*
G37*
G36*
G01*
X149350000Y-78739000D02*
X149350000Y-78389000D01*
G75*
G02*
X149450000Y-78289000I100000J0D01*
G01*
X149650000Y-78289000D01*
G75*
G02*
X149750000Y-78389000I0J-100000D01*
G01*
X149750000Y-78739000D01*
G75*
G02*
X149650000Y-78839000I-100000J0D01*
G01*
X149450000Y-78839000D01*
G75*
G02*
X149350000Y-78739000I0J100000D01*
G01*
G37*
G36*
G01*
X148700000Y-78739000D02*
X148700000Y-78389000D01*
G75*
G02*
X148800000Y-78289000I100000J0D01*
G01*
X149000000Y-78289000D01*
G75*
G02*
X149100000Y-78389000I0J-100000D01*
G01*
X149100000Y-78739000D01*
G75*
G02*
X149000000Y-78839000I-100000J0D01*
G01*
X148800000Y-78839000D01*
G75*
G02*
X148700000Y-78739000I0J100000D01*
G01*
G37*
G36*
G01*
X148050000Y-78739000D02*
X148050000Y-78389000D01*
G75*
G02*
X148150000Y-78289000I100000J0D01*
G01*
X148350000Y-78289000D01*
G75*
G02*
X148450000Y-78389000I0J-100000D01*
G01*
X148450000Y-78739000D01*
G75*
G02*
X148350000Y-78839000I-100000J0D01*
G01*
X148150000Y-78839000D01*
G75*
G02*
X148050000Y-78739000I0J100000D01*
G01*
G37*
G36*
G01*
X147250000Y-79389000D02*
X147250000Y-79189000D01*
G75*
G02*
X147350000Y-79089000I100000J0D01*
G01*
X147700000Y-79089000D01*
G75*
G02*
X147800000Y-79189000I0J-100000D01*
G01*
X147800000Y-79389000D01*
G75*
G02*
X147700000Y-79489000I-100000J0D01*
G01*
X147350000Y-79489000D01*
G75*
G02*
X147250000Y-79389000I0J100000D01*
G01*
G37*
G36*
G01*
X147250000Y-80039000D02*
X147250000Y-79839000D01*
G75*
G02*
X147350000Y-79739000I100000J0D01*
G01*
X147700000Y-79739000D01*
G75*
G02*
X147800000Y-79839000I0J-100000D01*
G01*
X147800000Y-80039000D01*
G75*
G02*
X147700000Y-80139000I-100000J0D01*
G01*
X147350000Y-80139000D01*
G75*
G02*
X147250000Y-80039000I0J100000D01*
G01*
G37*
G36*
G01*
X147250000Y-80689000D02*
X147250000Y-80489000D01*
G75*
G02*
X147350000Y-80389000I100000J0D01*
G01*
X147700000Y-80389000D01*
G75*
G02*
X147800000Y-80489000I0J-100000D01*
G01*
X147800000Y-80689000D01*
G75*
G02*
X147700000Y-80789000I-100000J0D01*
G01*
X147350000Y-80789000D01*
G75*
G02*
X147250000Y-80689000I0J100000D01*
G01*
G37*
G36*
G01*
X147250000Y-81339000D02*
X147250000Y-81139000D01*
G75*
G02*
X147350000Y-81039000I100000J0D01*
G01*
X147700000Y-81039000D01*
G75*
G02*
X147800000Y-81139000I0J-100000D01*
G01*
X147800000Y-81339000D01*
G75*
G02*
X147700000Y-81439000I-100000J0D01*
G01*
X147350000Y-81439000D01*
G75*
G02*
X147250000Y-81339000I0J100000D01*
G01*
G37*
%TD*%
%TO.C,D2*%
X145855000Y-112141000D03*
X147955000Y-112141000D03*
%TD*%
%TO.C,C3*%
G36*
G01*
X145347500Y-108958500D02*
X144847500Y-108958500D01*
G75*
G02*
X144622500Y-108733500I0J225000D01*
G01*
X144622500Y-108283500D01*
G75*
G02*
X144847500Y-108058500I225000J0D01*
G01*
X145347500Y-108058500D01*
G75*
G02*
X145572500Y-108283500I0J-225000D01*
G01*
X145572500Y-108733500D01*
G75*
G02*
X145347500Y-108958500I-225000J0D01*
G01*
G37*
G36*
G01*
X145347500Y-110508500D02*
X144847500Y-110508500D01*
G75*
G02*
X144622500Y-110283500I0J225000D01*
G01*
X144622500Y-109833500D01*
G75*
G02*
X144847500Y-109608500I225000J0D01*
G01*
X145347500Y-109608500D01*
G75*
G02*
X145572500Y-109833500I0J-225000D01*
G01*
X145572500Y-110283500D01*
G75*
G02*
X145347500Y-110508500I-225000J0D01*
G01*
G37*
%TD*%
D16*
%TO.C,D1*%
X147002500Y-110143000D03*
X147002500Y-108043000D03*
%TD*%
D17*
%TO.C,U1*%
X155300500Y-109159000D03*
X155300500Y-111059000D03*
X157500500Y-111059000D03*
X157500500Y-110109000D03*
X157500500Y-109159000D03*
%TD*%
%TO.C,C5*%
G36*
G01*
X155393200Y-104894800D02*
X154893200Y-104894800D01*
G75*
G02*
X154668200Y-104669800I0J225000D01*
G01*
X154668200Y-104219800D01*
G75*
G02*
X154893200Y-103994800I225000J0D01*
G01*
X155393200Y-103994800D01*
G75*
G02*
X155618200Y-104219800I0J-225000D01*
G01*
X155618200Y-104669800D01*
G75*
G02*
X155393200Y-104894800I-225000J0D01*
G01*
G37*
G36*
G01*
X155393200Y-106444800D02*
X154893200Y-106444800D01*
G75*
G02*
X154668200Y-106219800I0J225000D01*
G01*
X154668200Y-105769800D01*
G75*
G02*
X154893200Y-105544800I225000J0D01*
G01*
X155393200Y-105544800D01*
G75*
G02*
X155618200Y-105769800I0J-225000D01*
G01*
X155618200Y-106219800D01*
G75*
G02*
X155393200Y-106444800I-225000J0D01*
G01*
G37*
%TD*%
D12*
%TO.C,J4*%
X137795000Y-116586000D03*
X137795000Y-114046000D03*
X137795000Y-111506000D03*
X137795000Y-108966000D03*
X137795000Y-106426000D03*
X137795000Y-103886000D03*
X137795000Y-101346000D03*
X137795000Y-98806000D03*
X137795000Y-96266000D03*
X137795000Y-93726000D03*
X137795000Y-91186000D03*
X137795000Y-88646000D03*
X137795000Y-86106000D03*
X137795000Y-83566000D03*
X137795000Y-81026000D03*
X137795000Y-78486000D03*
X137795000Y-75946000D03*
D13*
X137795000Y-73406000D03*
%TD*%
%TO.C,R3*%
G36*
G01*
X154794000Y-107780500D02*
X154794000Y-107230500D01*
G75*
G02*
X154994000Y-107030500I200000J0D01*
G01*
X155394000Y-107030500D01*
G75*
G02*
X155594000Y-107230500I0J-200000D01*
G01*
X155594000Y-107780500D01*
G75*
G02*
X155394000Y-107980500I-200000J0D01*
G01*
X154994000Y-107980500D01*
G75*
G02*
X154794000Y-107780500I0J200000D01*
G01*
G37*
G36*
G01*
X153144000Y-107780500D02*
X153144000Y-107230500D01*
G75*
G02*
X153344000Y-107030500I200000J0D01*
G01*
X153744000Y-107030500D01*
G75*
G02*
X153944000Y-107230500I0J-200000D01*
G01*
X153944000Y-107780500D01*
G75*
G02*
X153744000Y-107980500I-200000J0D01*
G01*
X153344000Y-107980500D01*
G75*
G02*
X153144000Y-107780500I0J200000D01*
G01*
G37*
%TD*%
D18*
%TO.C,Q1*%
X150796500Y-107632500D03*
X148796500Y-106682500D03*
X148796500Y-108582500D03*
%TD*%
%TO.C,C4*%
G36*
G01*
X142565000Y-99881500D02*
X142565000Y-99381500D01*
G75*
G02*
X142790000Y-99156500I225000J0D01*
G01*
X143240000Y-99156500D01*
G75*
G02*
X143465000Y-99381500I0J-225000D01*
G01*
X143465000Y-99881500D01*
G75*
G02*
X143240000Y-100106500I-225000J0D01*
G01*
X142790000Y-100106500D01*
G75*
G02*
X142565000Y-99881500I0J225000D01*
G01*
G37*
G36*
G01*
X141015000Y-99881500D02*
X141015000Y-99381500D01*
G75*
G02*
X141240000Y-99156500I225000J0D01*
G01*
X141690000Y-99156500D01*
G75*
G02*
X141915000Y-99381500I0J-225000D01*
G01*
X141915000Y-99881500D01*
G75*
G02*
X141690000Y-100106500I-225000J0D01*
G01*
X141240000Y-100106500D01*
G75*
G02*
X141015000Y-99881500I0J225000D01*
G01*
G37*
%TD*%
D17*
%TO.C,U2*%
X141444800Y-101462800D03*
X141444800Y-103362800D03*
X143644800Y-103362800D03*
X143644800Y-102412800D03*
X143644800Y-101462800D03*
%TD*%
%TO.C,C2*%
G36*
G01*
X146438500Y-101723000D02*
X146438500Y-101223000D01*
G75*
G02*
X146663500Y-100998000I225000J0D01*
G01*
X147113500Y-100998000D01*
G75*
G02*
X147338500Y-101223000I0J-225000D01*
G01*
X147338500Y-101723000D01*
G75*
G02*
X147113500Y-101948000I-225000J0D01*
G01*
X146663500Y-101948000D01*
G75*
G02*
X146438500Y-101723000I0J225000D01*
G01*
G37*
G36*
G01*
X144888500Y-101723000D02*
X144888500Y-101223000D01*
G75*
G02*
X145113500Y-100998000I225000J0D01*
G01*
X145563500Y-100998000D01*
G75*
G02*
X145788500Y-101223000I0J-225000D01*
G01*
X145788500Y-101723000D01*
G75*
G02*
X145563500Y-101948000I-225000J0D01*
G01*
X145113500Y-101948000D01*
G75*
G02*
X144888500Y-101723000I0J225000D01*
G01*
G37*
%TD*%
%TO.C,C6*%
G36*
G01*
X152586500Y-78986500D02*
X152086500Y-78986500D01*
G75*
G02*
X151861500Y-78761500I0J225000D01*
G01*
X151861500Y-78311500D01*
G75*
G02*
X152086500Y-78086500I225000J0D01*
G01*
X152586500Y-78086500D01*
G75*
G02*
X152811500Y-78311500I0J-225000D01*
G01*
X152811500Y-78761500D01*
G75*
G02*
X152586500Y-78986500I-225000J0D01*
G01*
G37*
G36*
G01*
X152586500Y-80536500D02*
X152086500Y-80536500D01*
G75*
G02*
X151861500Y-80311500I0J225000D01*
G01*
X151861500Y-79861500D01*
G75*
G02*
X152086500Y-79636500I225000J0D01*
G01*
X152586500Y-79636500D01*
G75*
G02*
X152811500Y-79861500I0J-225000D01*
G01*
X152811500Y-80311500D01*
G75*
G02*
X152586500Y-80536500I-225000J0D01*
G01*
G37*
%TD*%
D12*
%TO.C,J7*%
X150495000Y-99441000D03*
X147955000Y-99441000D03*
X150495000Y-96901000D03*
X147955000Y-96901000D03*
X150495000Y-94361000D03*
D13*
X147955000Y-94361000D03*
%TD*%
D12*
%TO.C,J3*%
X157429200Y-106426000D03*
D13*
X157429200Y-103886000D03*
%TD*%
M02*
