%TF.GenerationSoftware,KiCad,Pcbnew,5.1.10-88a1d61d58~88~ubuntu18.04.1*%
%TF.CreationDate,2021-06-05T10:08:30+03:00*%
%TF.ProjectId,ebyte-E73-2G4M08S1x-board,65627974-652d-4453-9733-2d3247344d30,rev?*%
%TF.SameCoordinates,Original*%
%TF.FileFunction,Paste,Bot*%
%TF.FilePolarity,Positive*%
%FSLAX46Y46*%
G04 Gerber Fmt 4.6, Leading zero omitted, Abs format (unit mm)*
G04 Created by KiCad (PCBNEW 5.1.10-88a1d61d58~88~ubuntu18.04.1) date 2021-06-05 10:08:30*
%MOMM*%
%LPD*%
G01*
G04 APERTURE LIST*
%ADD10R,0.300000X1.400000*%
%ADD11R,0.600000X0.450000*%
%ADD12R,0.450000X0.600000*%
%ADD13R,1.060000X0.650000*%
%ADD14R,0.900000X0.800000*%
G04 APERTURE END LIST*
%TO.C,C11*%
G36*
G01*
X148405000Y-113923000D02*
X148405000Y-114423000D01*
G75*
G02*
X148180000Y-114648000I-225000J0D01*
G01*
X147730000Y-114648000D01*
G75*
G02*
X147505000Y-114423000I0J225000D01*
G01*
X147505000Y-113923000D01*
G75*
G02*
X147730000Y-113698000I225000J0D01*
G01*
X148180000Y-113698000D01*
G75*
G02*
X148405000Y-113923000I0J-225000D01*
G01*
G37*
G36*
G01*
X149955000Y-113923000D02*
X149955000Y-114423000D01*
G75*
G02*
X149730000Y-114648000I-225000J0D01*
G01*
X149280000Y-114648000D01*
G75*
G02*
X149055000Y-114423000I0J225000D01*
G01*
X149055000Y-113923000D01*
G75*
G02*
X149280000Y-113698000I225000J0D01*
G01*
X149730000Y-113698000D01*
G75*
G02*
X149955000Y-113923000I0J-225000D01*
G01*
G37*
%TD*%
%TO.C,C9*%
G36*
G01*
X147387500Y-80919500D02*
X147887500Y-80919500D01*
G75*
G02*
X148112500Y-81144500I0J-225000D01*
G01*
X148112500Y-81594500D01*
G75*
G02*
X147887500Y-81819500I-225000J0D01*
G01*
X147387500Y-81819500D01*
G75*
G02*
X147162500Y-81594500I0J225000D01*
G01*
X147162500Y-81144500D01*
G75*
G02*
X147387500Y-80919500I225000J0D01*
G01*
G37*
G36*
G01*
X147387500Y-79369500D02*
X147887500Y-79369500D01*
G75*
G02*
X148112500Y-79594500I0J-225000D01*
G01*
X148112500Y-80044500D01*
G75*
G02*
X147887500Y-80269500I-225000J0D01*
G01*
X147387500Y-80269500D01*
G75*
G02*
X147162500Y-80044500I0J225000D01*
G01*
X147162500Y-79594500D01*
G75*
G02*
X147387500Y-79369500I225000J0D01*
G01*
G37*
%TD*%
%TO.C,C10*%
G36*
G01*
X145800000Y-80919500D02*
X146300000Y-80919500D01*
G75*
G02*
X146525000Y-81144500I0J-225000D01*
G01*
X146525000Y-81594500D01*
G75*
G02*
X146300000Y-81819500I-225000J0D01*
G01*
X145800000Y-81819500D01*
G75*
G02*
X145575000Y-81594500I0J225000D01*
G01*
X145575000Y-81144500D01*
G75*
G02*
X145800000Y-80919500I225000J0D01*
G01*
G37*
G36*
G01*
X145800000Y-79369500D02*
X146300000Y-79369500D01*
G75*
G02*
X146525000Y-79594500I0J-225000D01*
G01*
X146525000Y-80044500D01*
G75*
G02*
X146300000Y-80269500I-225000J0D01*
G01*
X145800000Y-80269500D01*
G75*
G02*
X145575000Y-80044500I0J225000D01*
G01*
X145575000Y-79594500D01*
G75*
G02*
X145800000Y-79369500I225000J0D01*
G01*
G37*
%TD*%
%TO.C,R2*%
G36*
G01*
X151809000Y-110511000D02*
X151809000Y-109961000D01*
G75*
G02*
X152009000Y-109761000I200000J0D01*
G01*
X152409000Y-109761000D01*
G75*
G02*
X152609000Y-109961000I0J-200000D01*
G01*
X152609000Y-110511000D01*
G75*
G02*
X152409000Y-110711000I-200000J0D01*
G01*
X152009000Y-110711000D01*
G75*
G02*
X151809000Y-110511000I0J200000D01*
G01*
G37*
G36*
G01*
X150159000Y-110511000D02*
X150159000Y-109961000D01*
G75*
G02*
X150359000Y-109761000I200000J0D01*
G01*
X150759000Y-109761000D01*
G75*
G02*
X150959000Y-109961000I0J-200000D01*
G01*
X150959000Y-110511000D01*
G75*
G02*
X150759000Y-110711000I-200000J0D01*
G01*
X150359000Y-110711000D01*
G75*
G02*
X150159000Y-110511000I0J200000D01*
G01*
G37*
%TD*%
D10*
%TO.C,U3*%
X143367000Y-106512000D03*
X142867000Y-106512000D03*
X142367000Y-106512000D03*
X141867000Y-106512000D03*
X141367000Y-106512000D03*
X141367000Y-110912000D03*
X141867000Y-110912000D03*
X142367000Y-110912000D03*
X142867000Y-110912000D03*
X143367000Y-110912000D03*
%TD*%
%TO.C,C1*%
G36*
G01*
X153920000Y-109657000D02*
X153420000Y-109657000D01*
G75*
G02*
X153195000Y-109432000I0J225000D01*
G01*
X153195000Y-108982000D01*
G75*
G02*
X153420000Y-108757000I225000J0D01*
G01*
X153920000Y-108757000D01*
G75*
G02*
X154145000Y-108982000I0J-225000D01*
G01*
X154145000Y-109432000D01*
G75*
G02*
X153920000Y-109657000I-225000J0D01*
G01*
G37*
G36*
G01*
X153920000Y-111207000D02*
X153420000Y-111207000D01*
G75*
G02*
X153195000Y-110982000I0J225000D01*
G01*
X153195000Y-110532000D01*
G75*
G02*
X153420000Y-110307000I225000J0D01*
G01*
X153920000Y-110307000D01*
G75*
G02*
X154145000Y-110532000I0J-225000D01*
G01*
X154145000Y-110982000D01*
G75*
G02*
X153920000Y-111207000I-225000J0D01*
G01*
G37*
%TD*%
D11*
%TO.C,D3*%
X152307000Y-112077500D03*
X150207000Y-112077500D03*
%TD*%
%TO.C,U4*%
G36*
G01*
X147478500Y-78202000D02*
X147478500Y-77852000D01*
G75*
G02*
X147578500Y-77752000I100000J0D01*
G01*
X147778500Y-77752000D01*
G75*
G02*
X147878500Y-77852000I0J-100000D01*
G01*
X147878500Y-78202000D01*
G75*
G02*
X147778500Y-78302000I-100000J0D01*
G01*
X147578500Y-78302000D01*
G75*
G02*
X147478500Y-78202000I0J100000D01*
G01*
G37*
G36*
G01*
X148128500Y-78202000D02*
X148128500Y-77852000D01*
G75*
G02*
X148228500Y-77752000I100000J0D01*
G01*
X148428500Y-77752000D01*
G75*
G02*
X148528500Y-77852000I0J-100000D01*
G01*
X148528500Y-78202000D01*
G75*
G02*
X148428500Y-78302000I-100000J0D01*
G01*
X148228500Y-78302000D01*
G75*
G02*
X148128500Y-78202000I0J100000D01*
G01*
G37*
G36*
G01*
X148778500Y-78202000D02*
X148778500Y-77852000D01*
G75*
G02*
X148878500Y-77752000I100000J0D01*
G01*
X149078500Y-77752000D01*
G75*
G02*
X149178500Y-77852000I0J-100000D01*
G01*
X149178500Y-78202000D01*
G75*
G02*
X149078500Y-78302000I-100000J0D01*
G01*
X148878500Y-78302000D01*
G75*
G02*
X148778500Y-78202000I0J100000D01*
G01*
G37*
G36*
G01*
X149428500Y-78202000D02*
X149428500Y-77852000D01*
G75*
G02*
X149528500Y-77752000I100000J0D01*
G01*
X149728500Y-77752000D01*
G75*
G02*
X149828500Y-77852000I0J-100000D01*
G01*
X149828500Y-78202000D01*
G75*
G02*
X149728500Y-78302000I-100000J0D01*
G01*
X149528500Y-78302000D01*
G75*
G02*
X149428500Y-78202000I0J100000D01*
G01*
G37*
G36*
G01*
X150078500Y-77402000D02*
X150078500Y-77202000D01*
G75*
G02*
X150178500Y-77102000I100000J0D01*
G01*
X150528500Y-77102000D01*
G75*
G02*
X150628500Y-77202000I0J-100000D01*
G01*
X150628500Y-77402000D01*
G75*
G02*
X150528500Y-77502000I-100000J0D01*
G01*
X150178500Y-77502000D01*
G75*
G02*
X150078500Y-77402000I0J100000D01*
G01*
G37*
G36*
G01*
X150078500Y-76752000D02*
X150078500Y-76552000D01*
G75*
G02*
X150178500Y-76452000I100000J0D01*
G01*
X150528500Y-76452000D01*
G75*
G02*
X150628500Y-76552000I0J-100000D01*
G01*
X150628500Y-76752000D01*
G75*
G02*
X150528500Y-76852000I-100000J0D01*
G01*
X150178500Y-76852000D01*
G75*
G02*
X150078500Y-76752000I0J100000D01*
G01*
G37*
G36*
G01*
X150078500Y-76102000D02*
X150078500Y-75902000D01*
G75*
G02*
X150178500Y-75802000I100000J0D01*
G01*
X150528500Y-75802000D01*
G75*
G02*
X150628500Y-75902000I0J-100000D01*
G01*
X150628500Y-76102000D01*
G75*
G02*
X150528500Y-76202000I-100000J0D01*
G01*
X150178500Y-76202000D01*
G75*
G02*
X150078500Y-76102000I0J100000D01*
G01*
G37*
G36*
G01*
X150078500Y-75452000D02*
X150078500Y-75252000D01*
G75*
G02*
X150178500Y-75152000I100000J0D01*
G01*
X150528500Y-75152000D01*
G75*
G02*
X150628500Y-75252000I0J-100000D01*
G01*
X150628500Y-75452000D01*
G75*
G02*
X150528500Y-75552000I-100000J0D01*
G01*
X150178500Y-75552000D01*
G75*
G02*
X150078500Y-75452000I0J100000D01*
G01*
G37*
G36*
G01*
X149428500Y-74802000D02*
X149428500Y-74452000D01*
G75*
G02*
X149528500Y-74352000I100000J0D01*
G01*
X149728500Y-74352000D01*
G75*
G02*
X149828500Y-74452000I0J-100000D01*
G01*
X149828500Y-74802000D01*
G75*
G02*
X149728500Y-74902000I-100000J0D01*
G01*
X149528500Y-74902000D01*
G75*
G02*
X149428500Y-74802000I0J100000D01*
G01*
G37*
G36*
G01*
X148778500Y-74802000D02*
X148778500Y-74452000D01*
G75*
G02*
X148878500Y-74352000I100000J0D01*
G01*
X149078500Y-74352000D01*
G75*
G02*
X149178500Y-74452000I0J-100000D01*
G01*
X149178500Y-74802000D01*
G75*
G02*
X149078500Y-74902000I-100000J0D01*
G01*
X148878500Y-74902000D01*
G75*
G02*
X148778500Y-74802000I0J100000D01*
G01*
G37*
G36*
G01*
X148128500Y-74802000D02*
X148128500Y-74452000D01*
G75*
G02*
X148228500Y-74352000I100000J0D01*
G01*
X148428500Y-74352000D01*
G75*
G02*
X148528500Y-74452000I0J-100000D01*
G01*
X148528500Y-74802000D01*
G75*
G02*
X148428500Y-74902000I-100000J0D01*
G01*
X148228500Y-74902000D01*
G75*
G02*
X148128500Y-74802000I0J100000D01*
G01*
G37*
G36*
G01*
X147478500Y-74802000D02*
X147478500Y-74452000D01*
G75*
G02*
X147578500Y-74352000I100000J0D01*
G01*
X147778500Y-74352000D01*
G75*
G02*
X147878500Y-74452000I0J-100000D01*
G01*
X147878500Y-74802000D01*
G75*
G02*
X147778500Y-74902000I-100000J0D01*
G01*
X147578500Y-74902000D01*
G75*
G02*
X147478500Y-74802000I0J100000D01*
G01*
G37*
G36*
G01*
X146678500Y-75452000D02*
X146678500Y-75252000D01*
G75*
G02*
X146778500Y-75152000I100000J0D01*
G01*
X147128500Y-75152000D01*
G75*
G02*
X147228500Y-75252000I0J-100000D01*
G01*
X147228500Y-75452000D01*
G75*
G02*
X147128500Y-75552000I-100000J0D01*
G01*
X146778500Y-75552000D01*
G75*
G02*
X146678500Y-75452000I0J100000D01*
G01*
G37*
G36*
G01*
X146678500Y-76102000D02*
X146678500Y-75902000D01*
G75*
G02*
X146778500Y-75802000I100000J0D01*
G01*
X147128500Y-75802000D01*
G75*
G02*
X147228500Y-75902000I0J-100000D01*
G01*
X147228500Y-76102000D01*
G75*
G02*
X147128500Y-76202000I-100000J0D01*
G01*
X146778500Y-76202000D01*
G75*
G02*
X146678500Y-76102000I0J100000D01*
G01*
G37*
G36*
G01*
X146678500Y-76752000D02*
X146678500Y-76552000D01*
G75*
G02*
X146778500Y-76452000I100000J0D01*
G01*
X147128500Y-76452000D01*
G75*
G02*
X147228500Y-76552000I0J-100000D01*
G01*
X147228500Y-76752000D01*
G75*
G02*
X147128500Y-76852000I-100000J0D01*
G01*
X146778500Y-76852000D01*
G75*
G02*
X146678500Y-76752000I0J100000D01*
G01*
G37*
G36*
G01*
X146678500Y-77402000D02*
X146678500Y-77202000D01*
G75*
G02*
X146778500Y-77102000I100000J0D01*
G01*
X147128500Y-77102000D01*
G75*
G02*
X147228500Y-77202000I0J-100000D01*
G01*
X147228500Y-77402000D01*
G75*
G02*
X147128500Y-77502000I-100000J0D01*
G01*
X146778500Y-77502000D01*
G75*
G02*
X146678500Y-77402000I0J100000D01*
G01*
G37*
%TD*%
%TO.C,D2*%
X145855000Y-112141000D03*
X147955000Y-112141000D03*
%TD*%
%TO.C,C3*%
G36*
G01*
X145347500Y-108958500D02*
X144847500Y-108958500D01*
G75*
G02*
X144622500Y-108733500I0J225000D01*
G01*
X144622500Y-108283500D01*
G75*
G02*
X144847500Y-108058500I225000J0D01*
G01*
X145347500Y-108058500D01*
G75*
G02*
X145572500Y-108283500I0J-225000D01*
G01*
X145572500Y-108733500D01*
G75*
G02*
X145347500Y-108958500I-225000J0D01*
G01*
G37*
G36*
G01*
X145347500Y-110508500D02*
X144847500Y-110508500D01*
G75*
G02*
X144622500Y-110283500I0J225000D01*
G01*
X144622500Y-109833500D01*
G75*
G02*
X144847500Y-109608500I225000J0D01*
G01*
X145347500Y-109608500D01*
G75*
G02*
X145572500Y-109833500I0J-225000D01*
G01*
X145572500Y-110283500D01*
G75*
G02*
X145347500Y-110508500I-225000J0D01*
G01*
G37*
%TD*%
D12*
%TO.C,D1*%
X147002500Y-110143000D03*
X147002500Y-108043000D03*
%TD*%
D13*
%TO.C,U1*%
X155300500Y-109159000D03*
X155300500Y-111059000D03*
X157500500Y-111059000D03*
X157500500Y-110109000D03*
X157500500Y-109159000D03*
%TD*%
%TO.C,C5*%
G36*
G01*
X155393200Y-104894800D02*
X154893200Y-104894800D01*
G75*
G02*
X154668200Y-104669800I0J225000D01*
G01*
X154668200Y-104219800D01*
G75*
G02*
X154893200Y-103994800I225000J0D01*
G01*
X155393200Y-103994800D01*
G75*
G02*
X155618200Y-104219800I0J-225000D01*
G01*
X155618200Y-104669800D01*
G75*
G02*
X155393200Y-104894800I-225000J0D01*
G01*
G37*
G36*
G01*
X155393200Y-106444800D02*
X154893200Y-106444800D01*
G75*
G02*
X154668200Y-106219800I0J225000D01*
G01*
X154668200Y-105769800D01*
G75*
G02*
X154893200Y-105544800I225000J0D01*
G01*
X155393200Y-105544800D01*
G75*
G02*
X155618200Y-105769800I0J-225000D01*
G01*
X155618200Y-106219800D01*
G75*
G02*
X155393200Y-106444800I-225000J0D01*
G01*
G37*
%TD*%
%TO.C,R3*%
G36*
G01*
X154794000Y-107780500D02*
X154794000Y-107230500D01*
G75*
G02*
X154994000Y-107030500I200000J0D01*
G01*
X155394000Y-107030500D01*
G75*
G02*
X155594000Y-107230500I0J-200000D01*
G01*
X155594000Y-107780500D01*
G75*
G02*
X155394000Y-107980500I-200000J0D01*
G01*
X154994000Y-107980500D01*
G75*
G02*
X154794000Y-107780500I0J200000D01*
G01*
G37*
G36*
G01*
X153144000Y-107780500D02*
X153144000Y-107230500D01*
G75*
G02*
X153344000Y-107030500I200000J0D01*
G01*
X153744000Y-107030500D01*
G75*
G02*
X153944000Y-107230500I0J-200000D01*
G01*
X153944000Y-107780500D01*
G75*
G02*
X153744000Y-107980500I-200000J0D01*
G01*
X153344000Y-107980500D01*
G75*
G02*
X153144000Y-107780500I0J200000D01*
G01*
G37*
%TD*%
D14*
%TO.C,Q1*%
X150987000Y-107581700D03*
X148987000Y-106631700D03*
X148987000Y-108531700D03*
%TD*%
%TO.C,C4*%
G36*
G01*
X142565000Y-99881500D02*
X142565000Y-99381500D01*
G75*
G02*
X142790000Y-99156500I225000J0D01*
G01*
X143240000Y-99156500D01*
G75*
G02*
X143465000Y-99381500I0J-225000D01*
G01*
X143465000Y-99881500D01*
G75*
G02*
X143240000Y-100106500I-225000J0D01*
G01*
X142790000Y-100106500D01*
G75*
G02*
X142565000Y-99881500I0J225000D01*
G01*
G37*
G36*
G01*
X141015000Y-99881500D02*
X141015000Y-99381500D01*
G75*
G02*
X141240000Y-99156500I225000J0D01*
G01*
X141690000Y-99156500D01*
G75*
G02*
X141915000Y-99381500I0J-225000D01*
G01*
X141915000Y-99881500D01*
G75*
G02*
X141690000Y-100106500I-225000J0D01*
G01*
X141240000Y-100106500D01*
G75*
G02*
X141015000Y-99881500I0J225000D01*
G01*
G37*
%TD*%
D13*
%TO.C,U2*%
X141444800Y-101462800D03*
X141444800Y-103362800D03*
X143644800Y-103362800D03*
X143644800Y-102412800D03*
X143644800Y-101462800D03*
%TD*%
%TO.C,C2*%
G36*
G01*
X146438500Y-101723000D02*
X146438500Y-101223000D01*
G75*
G02*
X146663500Y-100998000I225000J0D01*
G01*
X147113500Y-100998000D01*
G75*
G02*
X147338500Y-101223000I0J-225000D01*
G01*
X147338500Y-101723000D01*
G75*
G02*
X147113500Y-101948000I-225000J0D01*
G01*
X146663500Y-101948000D01*
G75*
G02*
X146438500Y-101723000I0J225000D01*
G01*
G37*
G36*
G01*
X144888500Y-101723000D02*
X144888500Y-101223000D01*
G75*
G02*
X145113500Y-100998000I225000J0D01*
G01*
X145563500Y-100998000D01*
G75*
G02*
X145788500Y-101223000I0J-225000D01*
G01*
X145788500Y-101723000D01*
G75*
G02*
X145563500Y-101948000I-225000J0D01*
G01*
X145113500Y-101948000D01*
G75*
G02*
X144888500Y-101723000I0J225000D01*
G01*
G37*
%TD*%
%TO.C,C6*%
G36*
G01*
X148975000Y-80919500D02*
X149475000Y-80919500D01*
G75*
G02*
X149700000Y-81144500I0J-225000D01*
G01*
X149700000Y-81594500D01*
G75*
G02*
X149475000Y-81819500I-225000J0D01*
G01*
X148975000Y-81819500D01*
G75*
G02*
X148750000Y-81594500I0J225000D01*
G01*
X148750000Y-81144500D01*
G75*
G02*
X148975000Y-80919500I225000J0D01*
G01*
G37*
G36*
G01*
X148975000Y-79369500D02*
X149475000Y-79369500D01*
G75*
G02*
X149700000Y-79594500I0J-225000D01*
G01*
X149700000Y-80044500D01*
G75*
G02*
X149475000Y-80269500I-225000J0D01*
G01*
X148975000Y-80269500D01*
G75*
G02*
X148750000Y-80044500I0J225000D01*
G01*
X148750000Y-79594500D01*
G75*
G02*
X148975000Y-79369500I225000J0D01*
G01*
G37*
%TD*%
M02*
