%TF.GenerationSoftware,KiCad,Pcbnew,5.1.10-88a1d61d58~88~ubuntu18.04.1*%
%TF.CreationDate,2021-06-05T10:08:30+03:00*%
%TF.ProjectId,ebyte-E73-2G4M08S1x-board,65627974-652d-4453-9733-2d3247344d30,rev?*%
%TF.SameCoordinates,Original*%
%TF.FileFunction,Copper,L4,Bot*%
%TF.FilePolarity,Positive*%
%FSLAX46Y46*%
G04 Gerber Fmt 4.6, Leading zero omitted, Abs format (unit mm)*
G04 Created by KiCad (PCBNEW 5.1.10-88a1d61d58~88~ubuntu18.04.1) date 2021-06-05 10:08:30*
%MOMM*%
%LPD*%
G01*
G04 APERTURE LIST*
%TA.AperFunction,ComponentPad*%
%ADD10O,1.350000X1.700000*%
%TD*%
%TA.AperFunction,ComponentPad*%
%ADD11O,1.100000X1.500000*%
%TD*%
%TA.AperFunction,ComponentPad*%
%ADD12O,1.700000X1.700000*%
%TD*%
%TA.AperFunction,ComponentPad*%
%ADD13R,1.700000X1.700000*%
%TD*%
%TA.AperFunction,SMDPad,CuDef*%
%ADD14R,0.300000X1.400000*%
%TD*%
%TA.AperFunction,SMDPad,CuDef*%
%ADD15R,0.600000X0.450000*%
%TD*%
%TA.AperFunction,SMDPad,CuDef*%
%ADD16R,0.450000X0.600000*%
%TD*%
%TA.AperFunction,SMDPad,CuDef*%
%ADD17R,1.060000X0.650000*%
%TD*%
%TA.AperFunction,SMDPad,CuDef*%
%ADD18R,0.900000X0.800000*%
%TD*%
%TA.AperFunction,ViaPad*%
%ADD19C,0.800000*%
%TD*%
%TA.AperFunction,Conductor*%
%ADD20C,0.400000*%
%TD*%
%TA.AperFunction,Conductor*%
%ADD21C,0.200000*%
%TD*%
%TA.AperFunction,Conductor*%
%ADD22C,0.254000*%
%TD*%
%TA.AperFunction,Conductor*%
%ADD23C,0.100000*%
%TD*%
G04 APERTURE END LIST*
%TO.P,C11,2*%
%TO.N,VBUS*%
%TA.AperFunction,SMDPad,CuDef*%
G36*
G01*
X148405000Y-113923000D02*
X148405000Y-114423000D01*
G75*
G02*
X148180000Y-114648000I-225000J0D01*
G01*
X147730000Y-114648000D01*
G75*
G02*
X147505000Y-114423000I0J225000D01*
G01*
X147505000Y-113923000D01*
G75*
G02*
X147730000Y-113698000I225000J0D01*
G01*
X148180000Y-113698000D01*
G75*
G02*
X148405000Y-113923000I0J-225000D01*
G01*
G37*
%TD.AperFunction*%
%TO.P,C11,1*%
%TO.N,GND*%
%TA.AperFunction,SMDPad,CuDef*%
G36*
G01*
X149955000Y-113923000D02*
X149955000Y-114423000D01*
G75*
G02*
X149730000Y-114648000I-225000J0D01*
G01*
X149280000Y-114648000D01*
G75*
G02*
X149055000Y-114423000I0J225000D01*
G01*
X149055000Y-113923000D01*
G75*
G02*
X149280000Y-113698000I225000J0D01*
G01*
X149730000Y-113698000D01*
G75*
G02*
X149955000Y-113923000I0J-225000D01*
G01*
G37*
%TD.AperFunction*%
%TD*%
%TO.P,C9,2*%
%TO.N,GND*%
%TA.AperFunction,SMDPad,CuDef*%
G36*
G01*
X147387500Y-80919500D02*
X147887500Y-80919500D01*
G75*
G02*
X148112500Y-81144500I0J-225000D01*
G01*
X148112500Y-81594500D01*
G75*
G02*
X147887500Y-81819500I-225000J0D01*
G01*
X147387500Y-81819500D01*
G75*
G02*
X147162500Y-81594500I0J225000D01*
G01*
X147162500Y-81144500D01*
G75*
G02*
X147387500Y-80919500I225000J0D01*
G01*
G37*
%TD.AperFunction*%
%TO.P,C9,1*%
%TO.N,VDD*%
%TA.AperFunction,SMDPad,CuDef*%
G36*
G01*
X147387500Y-79369500D02*
X147887500Y-79369500D01*
G75*
G02*
X148112500Y-79594500I0J-225000D01*
G01*
X148112500Y-80044500D01*
G75*
G02*
X147887500Y-80269500I-225000J0D01*
G01*
X147387500Y-80269500D01*
G75*
G02*
X147162500Y-80044500I0J225000D01*
G01*
X147162500Y-79594500D01*
G75*
G02*
X147387500Y-79369500I225000J0D01*
G01*
G37*
%TD.AperFunction*%
%TD*%
%TO.P,C10,2*%
%TO.N,GND*%
%TA.AperFunction,SMDPad,CuDef*%
G36*
G01*
X145800000Y-80919500D02*
X146300000Y-80919500D01*
G75*
G02*
X146525000Y-81144500I0J-225000D01*
G01*
X146525000Y-81594500D01*
G75*
G02*
X146300000Y-81819500I-225000J0D01*
G01*
X145800000Y-81819500D01*
G75*
G02*
X145575000Y-81594500I0J225000D01*
G01*
X145575000Y-81144500D01*
G75*
G02*
X145800000Y-80919500I225000J0D01*
G01*
G37*
%TD.AperFunction*%
%TO.P,C10,1*%
%TO.N,VDD*%
%TA.AperFunction,SMDPad,CuDef*%
G36*
G01*
X145800000Y-79369500D02*
X146300000Y-79369500D01*
G75*
G02*
X146525000Y-79594500I0J-225000D01*
G01*
X146525000Y-80044500D01*
G75*
G02*
X146300000Y-80269500I-225000J0D01*
G01*
X145800000Y-80269500D01*
G75*
G02*
X145575000Y-80044500I0J225000D01*
G01*
X145575000Y-79594500D01*
G75*
G02*
X145800000Y-79369500I225000J0D01*
G01*
G37*
%TD.AperFunction*%
%TD*%
D10*
%TO.P,J1,6*%
%TO.N,Net-(J1-Pad6)*%
X146215000Y-116685000D03*
X140755000Y-116685000D03*
D11*
X145905000Y-113685000D03*
X141065000Y-113685000D03*
%TD*%
D10*
%TO.P,J2,6*%
%TO.N,Net-(J1-Pad6)*%
X157599000Y-116697000D03*
X152139000Y-116697000D03*
D11*
X157289000Y-113697000D03*
X152449000Y-113697000D03*
%TD*%
%TO.P,R2,2*%
%TO.N,GND*%
%TA.AperFunction,SMDPad,CuDef*%
G36*
G01*
X151809000Y-110511000D02*
X151809000Y-109961000D01*
G75*
G02*
X152009000Y-109761000I200000J0D01*
G01*
X152409000Y-109761000D01*
G75*
G02*
X152609000Y-109961000I0J-200000D01*
G01*
X152609000Y-110511000D01*
G75*
G02*
X152409000Y-110711000I-200000J0D01*
G01*
X152009000Y-110711000D01*
G75*
G02*
X151809000Y-110511000I0J200000D01*
G01*
G37*
%TD.AperFunction*%
%TO.P,R2,1*%
%TO.N,VBUS*%
%TA.AperFunction,SMDPad,CuDef*%
G36*
G01*
X150159000Y-110511000D02*
X150159000Y-109961000D01*
G75*
G02*
X150359000Y-109761000I200000J0D01*
G01*
X150759000Y-109761000D01*
G75*
G02*
X150959000Y-109961000I0J-200000D01*
G01*
X150959000Y-110511000D01*
G75*
G02*
X150759000Y-110711000I-200000J0D01*
G01*
X150359000Y-110711000D01*
G75*
G02*
X150159000Y-110511000I0J200000D01*
G01*
G37*
%TD.AperFunction*%
%TD*%
D12*
%TO.P,J5,18*%
%TO.N,VBUS*%
X160655000Y-116586000D03*
%TO.P,J5,17*%
%TO.N,GND*%
X160655000Y-114046000D03*
%TO.P,J5,16*%
X160655000Y-111506000D03*
%TO.P,J5,15*%
%TO.N,VDD*%
X160655000Y-108966000D03*
%TO.P,J5,14*%
%TO.N,P0.04*%
X160655000Y-106426000D03*
%TO.P,J5,13*%
%TO.N,P1.09*%
X160655000Y-103886000D03*
%TO.P,J5,12*%
%TO.N,P0.08*%
X160655000Y-101346000D03*
%TO.P,J5,11*%
%TO.N,P0.05*%
X160655000Y-98806000D03*
%TO.P,J5,10*%
%TO.N,P0.06*%
X160655000Y-96266000D03*
%TO.P,J5,9*%
%TO.N,P0.26*%
X160655000Y-93726000D03*
%TO.P,J5,8*%
%TO.N,P0.30*%
X160655000Y-91186000D03*
%TO.P,J5,7*%
%TO.N,P0.31*%
X160655000Y-88646000D03*
%TO.P,J5,6*%
%TO.N,P0.29*%
X160655000Y-86106000D03*
%TO.P,J5,5*%
%TO.N,P0.02*%
X160655000Y-83566000D03*
%TO.P,J5,4*%
%TO.N,P1.05*%
X160655000Y-81026000D03*
%TO.P,J5,3*%
%TO.N,P0.28*%
X160655000Y-78486000D03*
%TO.P,J5,2*%
%TO.N,P0.03*%
X160655000Y-75946000D03*
D13*
%TO.P,J5,1*%
%TO.N,P0.25*%
X160655000Y-73406000D03*
%TD*%
D14*
%TO.P,U3,10*%
%TO.N,Net-(C3-Pad2)*%
X143367000Y-106512000D03*
%TO.P,U3,9*%
%TO.N,P0.06*%
X142867000Y-106512000D03*
%TO.P,U3,8*%
%TO.N,P0.08*%
X142367000Y-106512000D03*
%TO.P,U3,7*%
%TO.N,VBUS*%
X141867000Y-106512000D03*
%TO.P,U3,6*%
%TO.N,Net-(D8-Pad2)*%
X141367000Y-106512000D03*
%TO.P,U3,5*%
%TO.N,P0.05*%
X141367000Y-110912000D03*
%TO.P,U3,4*%
%TO.N,P0.07*%
X141867000Y-110912000D03*
%TO.P,U3,3*%
%TO.N,GND*%
X142367000Y-110912000D03*
%TO.P,U3,2*%
%TO.N,/UART_D-*%
X142867000Y-110912000D03*
%TO.P,U3,1*%
%TO.N,/UART_D+*%
X143367000Y-110912000D03*
%TD*%
%TO.P,C1,2*%
%TO.N,GND*%
%TA.AperFunction,SMDPad,CuDef*%
G36*
G01*
X153920000Y-109657000D02*
X153420000Y-109657000D01*
G75*
G02*
X153195000Y-109432000I0J225000D01*
G01*
X153195000Y-108982000D01*
G75*
G02*
X153420000Y-108757000I225000J0D01*
G01*
X153920000Y-108757000D01*
G75*
G02*
X154145000Y-108982000I0J-225000D01*
G01*
X154145000Y-109432000D01*
G75*
G02*
X153920000Y-109657000I-225000J0D01*
G01*
G37*
%TD.AperFunction*%
%TO.P,C1,1*%
%TO.N,VBUS*%
%TA.AperFunction,SMDPad,CuDef*%
G36*
G01*
X153920000Y-111207000D02*
X153420000Y-111207000D01*
G75*
G02*
X153195000Y-110982000I0J225000D01*
G01*
X153195000Y-110532000D01*
G75*
G02*
X153420000Y-110307000I225000J0D01*
G01*
X153920000Y-110307000D01*
G75*
G02*
X154145000Y-110532000I0J-225000D01*
G01*
X154145000Y-110982000D01*
G75*
G02*
X153920000Y-111207000I-225000J0D01*
G01*
G37*
%TD.AperFunction*%
%TD*%
D15*
%TO.P,D3,2*%
%TO.N,/USB2VBUS*%
X152307000Y-112077500D03*
%TO.P,D3,1*%
%TO.N,VBUS*%
X150207000Y-112077500D03*
%TD*%
%TO.P,U4,16*%
%TO.N,VDD*%
%TA.AperFunction,SMDPad,CuDef*%
G36*
G01*
X147478500Y-78202000D02*
X147478500Y-77852000D01*
G75*
G02*
X147578500Y-77752000I100000J0D01*
G01*
X147778500Y-77752000D01*
G75*
G02*
X147878500Y-77852000I0J-100000D01*
G01*
X147878500Y-78202000D01*
G75*
G02*
X147778500Y-78302000I-100000J0D01*
G01*
X147578500Y-78302000D01*
G75*
G02*
X147478500Y-78202000I0J100000D01*
G01*
G37*
%TD.AperFunction*%
%TO.P,U4,15*%
%TA.AperFunction,SMDPad,CuDef*%
G36*
G01*
X148128500Y-78202000D02*
X148128500Y-77852000D01*
G75*
G02*
X148228500Y-77752000I100000J0D01*
G01*
X148428500Y-77752000D01*
G75*
G02*
X148528500Y-77852000I0J-100000D01*
G01*
X148528500Y-78202000D01*
G75*
G02*
X148428500Y-78302000I-100000J0D01*
G01*
X148228500Y-78302000D01*
G75*
G02*
X148128500Y-78202000I0J100000D01*
G01*
G37*
%TD.AperFunction*%
%TO.P,U4,14*%
%TO.N,Net-(C6-Pad1)*%
%TA.AperFunction,SMDPad,CuDef*%
G36*
G01*
X148778500Y-78202000D02*
X148778500Y-77852000D01*
G75*
G02*
X148878500Y-77752000I100000J0D01*
G01*
X149078500Y-77752000D01*
G75*
G02*
X149178500Y-77852000I0J-100000D01*
G01*
X149178500Y-78202000D01*
G75*
G02*
X149078500Y-78302000I-100000J0D01*
G01*
X148878500Y-78302000D01*
G75*
G02*
X148778500Y-78202000I0J100000D01*
G01*
G37*
%TD.AperFunction*%
%TO.P,U4,13*%
%TO.N,GND*%
%TA.AperFunction,SMDPad,CuDef*%
G36*
G01*
X149428500Y-78202000D02*
X149428500Y-77852000D01*
G75*
G02*
X149528500Y-77752000I100000J0D01*
G01*
X149728500Y-77752000D01*
G75*
G02*
X149828500Y-77852000I0J-100000D01*
G01*
X149828500Y-78202000D01*
G75*
G02*
X149728500Y-78302000I-100000J0D01*
G01*
X149528500Y-78302000D01*
G75*
G02*
X149428500Y-78202000I0J100000D01*
G01*
G37*
%TD.AperFunction*%
%TO.P,U4,12*%
%TA.AperFunction,SMDPad,CuDef*%
G36*
G01*
X150078500Y-77402000D02*
X150078500Y-77202000D01*
G75*
G02*
X150178500Y-77102000I100000J0D01*
G01*
X150528500Y-77102000D01*
G75*
G02*
X150628500Y-77202000I0J-100000D01*
G01*
X150628500Y-77402000D01*
G75*
G02*
X150528500Y-77502000I-100000J0D01*
G01*
X150178500Y-77502000D01*
G75*
G02*
X150078500Y-77402000I0J100000D01*
G01*
G37*
%TD.AperFunction*%
%TO.P,U4,11*%
%TA.AperFunction,SMDPad,CuDef*%
G36*
G01*
X150078500Y-76752000D02*
X150078500Y-76552000D01*
G75*
G02*
X150178500Y-76452000I100000J0D01*
G01*
X150528500Y-76452000D01*
G75*
G02*
X150628500Y-76552000I0J-100000D01*
G01*
X150628500Y-76752000D01*
G75*
G02*
X150528500Y-76852000I-100000J0D01*
G01*
X150178500Y-76852000D01*
G75*
G02*
X150078500Y-76752000I0J100000D01*
G01*
G37*
%TD.AperFunction*%
%TO.P,U4,10*%
%TA.AperFunction,SMDPad,CuDef*%
G36*
G01*
X150078500Y-76102000D02*
X150078500Y-75902000D01*
G75*
G02*
X150178500Y-75802000I100000J0D01*
G01*
X150528500Y-75802000D01*
G75*
G02*
X150628500Y-75902000I0J-100000D01*
G01*
X150628500Y-76102000D01*
G75*
G02*
X150528500Y-76202000I-100000J0D01*
G01*
X150178500Y-76202000D01*
G75*
G02*
X150078500Y-76102000I0J100000D01*
G01*
G37*
%TD.AperFunction*%
%TO.P,U4,9*%
%TA.AperFunction,SMDPad,CuDef*%
G36*
G01*
X150078500Y-75452000D02*
X150078500Y-75252000D01*
G75*
G02*
X150178500Y-75152000I100000J0D01*
G01*
X150528500Y-75152000D01*
G75*
G02*
X150628500Y-75252000I0J-100000D01*
G01*
X150628500Y-75452000D01*
G75*
G02*
X150528500Y-75552000I-100000J0D01*
G01*
X150178500Y-75552000D01*
G75*
G02*
X150078500Y-75452000I0J100000D01*
G01*
G37*
%TD.AperFunction*%
%TO.P,U4,8*%
%TA.AperFunction,SMDPad,CuDef*%
G36*
G01*
X149428500Y-74802000D02*
X149428500Y-74452000D01*
G75*
G02*
X149528500Y-74352000I100000J0D01*
G01*
X149728500Y-74352000D01*
G75*
G02*
X149828500Y-74452000I0J-100000D01*
G01*
X149828500Y-74802000D01*
G75*
G02*
X149728500Y-74902000I-100000J0D01*
G01*
X149528500Y-74902000D01*
G75*
G02*
X149428500Y-74802000I0J100000D01*
G01*
G37*
%TD.AperFunction*%
%TO.P,U4,7*%
%TO.N,P0.25*%
%TA.AperFunction,SMDPad,CuDef*%
G36*
G01*
X148778500Y-74802000D02*
X148778500Y-74452000D01*
G75*
G02*
X148878500Y-74352000I100000J0D01*
G01*
X149078500Y-74352000D01*
G75*
G02*
X149178500Y-74452000I0J-100000D01*
G01*
X149178500Y-74802000D01*
G75*
G02*
X149078500Y-74902000I-100000J0D01*
G01*
X148878500Y-74902000D01*
G75*
G02*
X148778500Y-74802000I0J100000D01*
G01*
G37*
%TD.AperFunction*%
%TO.P,U4,6*%
%TO.N,P0.26*%
%TA.AperFunction,SMDPad,CuDef*%
G36*
G01*
X148128500Y-74802000D02*
X148128500Y-74452000D01*
G75*
G02*
X148228500Y-74352000I100000J0D01*
G01*
X148428500Y-74352000D01*
G75*
G02*
X148528500Y-74452000I0J-100000D01*
G01*
X148528500Y-74802000D01*
G75*
G02*
X148428500Y-74902000I-100000J0D01*
G01*
X148228500Y-74902000D01*
G75*
G02*
X148128500Y-74802000I0J100000D01*
G01*
G37*
%TD.AperFunction*%
%TO.P,U4,5*%
%TO.N,P0.24*%
%TA.AperFunction,SMDPad,CuDef*%
G36*
G01*
X147478500Y-74802000D02*
X147478500Y-74452000D01*
G75*
G02*
X147578500Y-74352000I100000J0D01*
G01*
X147778500Y-74352000D01*
G75*
G02*
X147878500Y-74452000I0J-100000D01*
G01*
X147878500Y-74802000D01*
G75*
G02*
X147778500Y-74902000I-100000J0D01*
G01*
X147578500Y-74902000D01*
G75*
G02*
X147478500Y-74802000I0J100000D01*
G01*
G37*
%TD.AperFunction*%
%TO.P,U4,4*%
%TO.N,P0.22*%
%TA.AperFunction,SMDPad,CuDef*%
G36*
G01*
X146678500Y-75452000D02*
X146678500Y-75252000D01*
G75*
G02*
X146778500Y-75152000I100000J0D01*
G01*
X147128500Y-75152000D01*
G75*
G02*
X147228500Y-75252000I0J-100000D01*
G01*
X147228500Y-75452000D01*
G75*
G02*
X147128500Y-75552000I-100000J0D01*
G01*
X146778500Y-75552000D01*
G75*
G02*
X146678500Y-75452000I0J100000D01*
G01*
G37*
%TD.AperFunction*%
%TO.P,U4,3*%
%TO.N,P0.20*%
%TA.AperFunction,SMDPad,CuDef*%
G36*
G01*
X146678500Y-76102000D02*
X146678500Y-75902000D01*
G75*
G02*
X146778500Y-75802000I100000J0D01*
G01*
X147128500Y-75802000D01*
G75*
G02*
X147228500Y-75902000I0J-100000D01*
G01*
X147228500Y-76102000D01*
G75*
G02*
X147128500Y-76202000I-100000J0D01*
G01*
X146778500Y-76202000D01*
G75*
G02*
X146678500Y-76102000I0J100000D01*
G01*
G37*
%TD.AperFunction*%
%TO.P,U4,2*%
%TO.N,P0.17*%
%TA.AperFunction,SMDPad,CuDef*%
G36*
G01*
X146678500Y-76752000D02*
X146678500Y-76552000D01*
G75*
G02*
X146778500Y-76452000I100000J0D01*
G01*
X147128500Y-76452000D01*
G75*
G02*
X147228500Y-76552000I0J-100000D01*
G01*
X147228500Y-76752000D01*
G75*
G02*
X147128500Y-76852000I-100000J0D01*
G01*
X146778500Y-76852000D01*
G75*
G02*
X146678500Y-76752000I0J100000D01*
G01*
G37*
%TD.AperFunction*%
%TO.P,U4,1*%
%TO.N,VDD*%
%TA.AperFunction,SMDPad,CuDef*%
G36*
G01*
X146678500Y-77402000D02*
X146678500Y-77202000D01*
G75*
G02*
X146778500Y-77102000I100000J0D01*
G01*
X147128500Y-77102000D01*
G75*
G02*
X147228500Y-77202000I0J-100000D01*
G01*
X147228500Y-77402000D01*
G75*
G02*
X147128500Y-77502000I-100000J0D01*
G01*
X146778500Y-77502000D01*
G75*
G02*
X146678500Y-77402000I0J100000D01*
G01*
G37*
%TD.AperFunction*%
%TD*%
%TO.P,D2,2*%
%TO.N,/USB1VBUS*%
X145855000Y-112141000D03*
%TO.P,D2,1*%
%TO.N,VBUS*%
X147955000Y-112141000D03*
%TD*%
%TO.P,C3,2*%
%TO.N,Net-(C3-Pad2)*%
%TA.AperFunction,SMDPad,CuDef*%
G36*
G01*
X145347500Y-108958500D02*
X144847500Y-108958500D01*
G75*
G02*
X144622500Y-108733500I0J225000D01*
G01*
X144622500Y-108283500D01*
G75*
G02*
X144847500Y-108058500I225000J0D01*
G01*
X145347500Y-108058500D01*
G75*
G02*
X145572500Y-108283500I0J-225000D01*
G01*
X145572500Y-108733500D01*
G75*
G02*
X145347500Y-108958500I-225000J0D01*
G01*
G37*
%TD.AperFunction*%
%TO.P,C3,1*%
%TO.N,GND*%
%TA.AperFunction,SMDPad,CuDef*%
G36*
G01*
X145347500Y-110508500D02*
X144847500Y-110508500D01*
G75*
G02*
X144622500Y-110283500I0J225000D01*
G01*
X144622500Y-109833500D01*
G75*
G02*
X144847500Y-109608500I225000J0D01*
G01*
X145347500Y-109608500D01*
G75*
G02*
X145572500Y-109833500I0J-225000D01*
G01*
X145572500Y-110283500D01*
G75*
G02*
X145347500Y-110508500I-225000J0D01*
G01*
G37*
%TD.AperFunction*%
%TD*%
D16*
%TO.P,D1,2*%
%TO.N,VBUS*%
X147002500Y-110143000D03*
%TO.P,D1,1*%
%TO.N,VDDH*%
X147002500Y-108043000D03*
%TD*%
D17*
%TO.P,U1,5*%
%TO.N,Net-(R3-Pad2)*%
X155300500Y-109159000D03*
%TO.P,U1,4*%
%TO.N,VBUS*%
X155300500Y-111059000D03*
%TO.P,U1,3*%
%TO.N,VBAT*%
X157500500Y-111059000D03*
%TO.P,U1,2*%
%TO.N,GND*%
X157500500Y-110109000D03*
%TO.P,U1,1*%
%TO.N,Net-(D4-Pad1)*%
X157500500Y-109159000D03*
%TD*%
%TO.P,C5,2*%
%TO.N,GND*%
%TA.AperFunction,SMDPad,CuDef*%
G36*
G01*
X155393200Y-104894800D02*
X154893200Y-104894800D01*
G75*
G02*
X154668200Y-104669800I0J225000D01*
G01*
X154668200Y-104219800D01*
G75*
G02*
X154893200Y-103994800I225000J0D01*
G01*
X155393200Y-103994800D01*
G75*
G02*
X155618200Y-104219800I0J-225000D01*
G01*
X155618200Y-104669800D01*
G75*
G02*
X155393200Y-104894800I-225000J0D01*
G01*
G37*
%TD.AperFunction*%
%TO.P,C5,1*%
%TO.N,VBAT*%
%TA.AperFunction,SMDPad,CuDef*%
G36*
G01*
X155393200Y-106444800D02*
X154893200Y-106444800D01*
G75*
G02*
X154668200Y-106219800I0J225000D01*
G01*
X154668200Y-105769800D01*
G75*
G02*
X154893200Y-105544800I225000J0D01*
G01*
X155393200Y-105544800D01*
G75*
G02*
X155618200Y-105769800I0J-225000D01*
G01*
X155618200Y-106219800D01*
G75*
G02*
X155393200Y-106444800I-225000J0D01*
G01*
G37*
%TD.AperFunction*%
%TD*%
D12*
%TO.P,J4,18*%
%TO.N,VBUS*%
X137795000Y-116586000D03*
%TO.P,J4,17*%
%TO.N,GND*%
X137795000Y-114046000D03*
%TO.P,J4,16*%
X137795000Y-111506000D03*
%TO.P,J4,15*%
%TO.N,VDD*%
X137795000Y-108966000D03*
%TO.P,J4,14*%
%TO.N,P0.12*%
X137795000Y-106426000D03*
%TO.P,J4,13*%
%TO.N,P0.07*%
X137795000Y-103886000D03*
%TO.P,J4,12*%
%TO.N,P0.15*%
X137795000Y-101346000D03*
%TO.P,J4,11*%
%TO.N,P0.17*%
X137795000Y-98806000D03*
%TO.P,J4,10*%
%TO.N,P0.20*%
X137795000Y-96266000D03*
%TO.P,J4,9*%
%TO.N,P0.13*%
X137795000Y-93726000D03*
%TO.P,J4,8*%
%TO.N,P0.22*%
X137795000Y-91186000D03*
%TO.P,J4,7*%
%TO.N,P0.24*%
X137795000Y-88646000D03*
%TO.P,J4,6*%
%TO.N,SWO*%
X137795000Y-86106000D03*
%TO.P,J4,5*%
%TO.N,P1.02*%
X137795000Y-83566000D03*
%TO.P,J4,4*%
%TO.N,P1.04*%
X137795000Y-81026000D03*
%TO.P,J4,3*%
%TO.N,P0.09*%
X137795000Y-78486000D03*
%TO.P,J4,2*%
%TO.N,P1.06*%
X137795000Y-75946000D03*
D13*
%TO.P,J4,1*%
%TO.N,P0.10*%
X137795000Y-73406000D03*
%TD*%
%TO.P,R3,2*%
%TO.N,Net-(R3-Pad2)*%
%TA.AperFunction,SMDPad,CuDef*%
G36*
G01*
X154794000Y-107780500D02*
X154794000Y-107230500D01*
G75*
G02*
X154994000Y-107030500I200000J0D01*
G01*
X155394000Y-107030500D01*
G75*
G02*
X155594000Y-107230500I0J-200000D01*
G01*
X155594000Y-107780500D01*
G75*
G02*
X155394000Y-107980500I-200000J0D01*
G01*
X154994000Y-107980500D01*
G75*
G02*
X154794000Y-107780500I0J200000D01*
G01*
G37*
%TD.AperFunction*%
%TO.P,R3,1*%
%TO.N,GND*%
%TA.AperFunction,SMDPad,CuDef*%
G36*
G01*
X153144000Y-107780500D02*
X153144000Y-107230500D01*
G75*
G02*
X153344000Y-107030500I200000J0D01*
G01*
X153744000Y-107030500D01*
G75*
G02*
X153944000Y-107230500I0J-200000D01*
G01*
X153944000Y-107780500D01*
G75*
G02*
X153744000Y-107980500I-200000J0D01*
G01*
X153344000Y-107980500D01*
G75*
G02*
X153144000Y-107780500I0J200000D01*
G01*
G37*
%TD.AperFunction*%
%TD*%
D18*
%TO.P,Q1,3*%
%TO.N,VBAT*%
X150987000Y-107581700D03*
%TO.P,Q1,2*%
%TO.N,VDDH*%
X148987000Y-106631700D03*
%TO.P,Q1,1*%
%TO.N,VBUS*%
X148987000Y-108531700D03*
%TD*%
%TO.P,C4,2*%
%TO.N,GND*%
%TA.AperFunction,SMDPad,CuDef*%
G36*
G01*
X142565000Y-99881500D02*
X142565000Y-99381500D01*
G75*
G02*
X142790000Y-99156500I225000J0D01*
G01*
X143240000Y-99156500D01*
G75*
G02*
X143465000Y-99381500I0J-225000D01*
G01*
X143465000Y-99881500D01*
G75*
G02*
X143240000Y-100106500I-225000J0D01*
G01*
X142790000Y-100106500D01*
G75*
G02*
X142565000Y-99881500I0J225000D01*
G01*
G37*
%TD.AperFunction*%
%TO.P,C4,1*%
%TO.N,VDD*%
%TA.AperFunction,SMDPad,CuDef*%
G36*
G01*
X141015000Y-99881500D02*
X141015000Y-99381500D01*
G75*
G02*
X141240000Y-99156500I225000J0D01*
G01*
X141690000Y-99156500D01*
G75*
G02*
X141915000Y-99381500I0J-225000D01*
G01*
X141915000Y-99881500D01*
G75*
G02*
X141690000Y-100106500I-225000J0D01*
G01*
X141240000Y-100106500D01*
G75*
G02*
X141015000Y-99881500I0J225000D01*
G01*
G37*
%TD.AperFunction*%
%TD*%
D17*
%TO.P,U2,5*%
%TO.N,VDD*%
X141444800Y-101462800D03*
%TO.P,U2,4*%
%TO.N,N/C*%
X141444800Y-103362800D03*
%TO.P,U2,3*%
%TO.N,VDDH*%
X143644800Y-103362800D03*
%TO.P,U2,2*%
%TO.N,GND*%
X143644800Y-102412800D03*
%TO.P,U2,1*%
%TO.N,VDDH*%
X143644800Y-101462800D03*
%TD*%
%TO.P,C2,2*%
%TO.N,GND*%
%TA.AperFunction,SMDPad,CuDef*%
G36*
G01*
X146438500Y-101723000D02*
X146438500Y-101223000D01*
G75*
G02*
X146663500Y-100998000I225000J0D01*
G01*
X147113500Y-100998000D01*
G75*
G02*
X147338500Y-101223000I0J-225000D01*
G01*
X147338500Y-101723000D01*
G75*
G02*
X147113500Y-101948000I-225000J0D01*
G01*
X146663500Y-101948000D01*
G75*
G02*
X146438500Y-101723000I0J225000D01*
G01*
G37*
%TD.AperFunction*%
%TO.P,C2,1*%
%TO.N,VDDH*%
%TA.AperFunction,SMDPad,CuDef*%
G36*
G01*
X144888500Y-101723000D02*
X144888500Y-101223000D01*
G75*
G02*
X145113500Y-100998000I225000J0D01*
G01*
X145563500Y-100998000D01*
G75*
G02*
X145788500Y-101223000I0J-225000D01*
G01*
X145788500Y-101723000D01*
G75*
G02*
X145563500Y-101948000I-225000J0D01*
G01*
X145113500Y-101948000D01*
G75*
G02*
X144888500Y-101723000I0J225000D01*
G01*
G37*
%TD.AperFunction*%
%TD*%
%TO.P,C6,2*%
%TO.N,GND*%
%TA.AperFunction,SMDPad,CuDef*%
G36*
G01*
X148975000Y-80919500D02*
X149475000Y-80919500D01*
G75*
G02*
X149700000Y-81144500I0J-225000D01*
G01*
X149700000Y-81594500D01*
G75*
G02*
X149475000Y-81819500I-225000J0D01*
G01*
X148975000Y-81819500D01*
G75*
G02*
X148750000Y-81594500I0J225000D01*
G01*
X148750000Y-81144500D01*
G75*
G02*
X148975000Y-80919500I225000J0D01*
G01*
G37*
%TD.AperFunction*%
%TO.P,C6,1*%
%TO.N,Net-(C6-Pad1)*%
%TA.AperFunction,SMDPad,CuDef*%
G36*
G01*
X148975000Y-79369500D02*
X149475000Y-79369500D01*
G75*
G02*
X149700000Y-79594500I0J-225000D01*
G01*
X149700000Y-80044500D01*
G75*
G02*
X149475000Y-80269500I-225000J0D01*
G01*
X148975000Y-80269500D01*
G75*
G02*
X148750000Y-80044500I0J225000D01*
G01*
X148750000Y-79594500D01*
G75*
G02*
X148975000Y-79369500I225000J0D01*
G01*
G37*
%TD.AperFunction*%
%TD*%
D12*
%TO.P,J7,6*%
%TO.N,SWC*%
X150495000Y-99441000D03*
%TO.P,J7,5*%
%TO.N,GND*%
X147955000Y-99441000D03*
%TO.P,J7,4*%
%TO.N,SWD*%
X150495000Y-96901000D03*
%TO.P,J7,3*%
%TO.N,RST*%
X147955000Y-96901000D03*
%TO.P,J7,2*%
%TO.N,VDD*%
X150495000Y-94361000D03*
D13*
%TO.P,J7,1*%
%TO.N,SWO*%
X147955000Y-94361000D03*
%TD*%
D12*
%TO.P,J3,2*%
%TO.N,VBAT*%
X157429200Y-106426000D03*
D13*
%TO.P,J3,1*%
%TO.N,GND*%
X157429200Y-103886000D03*
%TD*%
D19*
%TO.N,GND*%
X157861000Y-77851000D03*
X156210000Y-112217200D03*
X149199600Y-116789200D03*
X144722307Y-111850410D03*
X144477990Y-85219154D03*
X148212011Y-88831378D03*
X144221200Y-100330000D03*
X159512000Y-112776000D03*
X152258160Y-109033545D03*
X149288500Y-104648000D03*
X157704968Y-96012000D03*
X149199600Y-116789200D03*
X150622000Y-78549500D03*
X144843500Y-81280000D03*
X150558500Y-81343500D03*
X142960582Y-109581932D03*
%TO.N,VBUS*%
X155244800Y-110084002D03*
X141400540Y-85234774D03*
X147984500Y-108793002D03*
%TO.N,VDD*%
X140463272Y-86417191D03*
X149612022Y-88585956D03*
X149012593Y-102696254D03*
X145478500Y-92837000D03*
X155448000Y-100393500D03*
X146113500Y-78549500D03*
X141452600Y-97066100D03*
X141427200Y-98031300D03*
X144145000Y-97472500D03*
X143662400Y-98336100D03*
%TO.N,SWD*%
X141427200Y-95542100D03*
%TO.N,SWC*%
X152463500Y-79057500D03*
%TO.N,RST*%
X142600553Y-85540473D03*
X144591010Y-90115484D03*
X153136600Y-96989900D03*
%TO.N,VDDH*%
X144526000Y-106616500D03*
X146507200Y-88849200D03*
X145240906Y-103207837D03*
X145338800Y-98463100D03*
%TO.N,P0.15*%
X144932400Y-83566000D03*
X140640862Y-93333362D03*
%TO.N,P0.12*%
X148675856Y-83486280D03*
X149199600Y-100723700D03*
%TO.N,P0.08*%
X152209500Y-83502500D03*
X157530482Y-97930018D03*
%TO.N,P0.06*%
X153924000Y-104394000D03*
X155371800Y-101714300D03*
%TO.N,P0.05*%
X151407938Y-88433035D03*
X152844500Y-92519500D03*
%TO.N,P0.07*%
X146100800Y-83312000D03*
X142456943Y-108718004D03*
%TO.N,Net-(D4-Pad1)*%
X157226000Y-108153200D03*
%TO.N,P0.20*%
X145883409Y-76541425D03*
%TO.N,P0.17*%
X145034000Y-78803500D03*
%TO.N,P0.04*%
X156011498Y-94932500D03*
X150304500Y-83502500D03*
%TO.N,P1.09*%
X150546752Y-88941347D03*
X153924000Y-93916500D03*
%TO.N,P1.06*%
X146538950Y-72751950D03*
%TO.N,P1.04*%
X145323172Y-73271577D03*
%TO.N,P1.02*%
X144431499Y-73724283D03*
%TO.N,SWO*%
X152241250Y-75914250D03*
X144781647Y-74660990D03*
%TO.N,P0.25*%
X157949100Y-74091000D03*
%TO.N,P0.24*%
X140868896Y-78384896D03*
%TO.N,P0.22*%
X148463000Y-75946000D03*
%TO.N,/UART_D-*%
X142759388Y-112164002D03*
%TO.N,/UART_D+*%
X143774106Y-112168119D03*
%TO.N,/USB1VBUS*%
X141478000Y-112268000D03*
%TO.N,/USB2VBUS*%
X153416000Y-111887000D03*
%TO.N,Net-(D8-Pad2)*%
X141478000Y-108064300D03*
%TD*%
D20*
%TO.N,GND*%
X153544000Y-109219000D02*
X153543000Y-109220000D01*
X153544000Y-107696000D02*
X153544000Y-109219000D01*
X156870400Y-104444800D02*
X157429200Y-103886000D01*
X155143200Y-104444800D02*
X156870400Y-104444800D01*
X144729200Y-111843517D02*
X144722307Y-111850410D01*
X144068800Y-100177600D02*
X144221200Y-100330000D01*
X153543000Y-109220000D02*
X152444615Y-109220000D01*
X152444615Y-109220000D02*
X152258160Y-109033545D01*
X152273000Y-109048385D02*
X152258160Y-109033545D01*
X143522700Y-99631500D02*
X144221200Y-100330000D01*
X143015000Y-99631500D02*
X143522700Y-99631500D01*
X156875498Y-110109000D02*
X156400500Y-110583998D01*
X157500500Y-110109000D02*
X156875498Y-110109000D01*
X156400500Y-112026700D02*
X156210000Y-112217200D01*
X156400500Y-110583998D02*
X156400500Y-112026700D01*
X152209000Y-109082705D02*
X152258160Y-109033545D01*
X152209000Y-110236000D02*
X152209000Y-109082705D01*
X147955000Y-99441000D02*
X146875500Y-100520500D01*
X146875500Y-101460000D02*
X146888500Y-101473000D01*
X146875500Y-100520500D02*
X146875500Y-101460000D01*
X143649765Y-102407835D02*
X143644800Y-102412800D01*
X146575665Y-102407835D02*
X143649765Y-102407835D01*
X146888500Y-101473000D02*
X146888500Y-102095000D01*
X146888500Y-102095000D02*
X146575665Y-102407835D01*
X149505000Y-114173000D02*
X149505000Y-116483800D01*
X149505000Y-116483800D02*
X149199600Y-116789200D01*
X149628500Y-74627000D02*
X149628500Y-75270000D01*
X149710500Y-75352000D02*
X150353500Y-75352000D01*
X149628500Y-75270000D02*
X149710500Y-75352000D01*
X149662000Y-76002000D02*
X149628500Y-75968500D01*
X150353500Y-76002000D02*
X149662000Y-76002000D01*
X149628500Y-75270000D02*
X149628500Y-75968500D01*
X150353500Y-76652000D02*
X149740500Y-76652000D01*
X149740500Y-76652000D02*
X149628500Y-76540000D01*
X149628500Y-75968500D02*
X149628500Y-76540000D01*
X149710500Y-77302000D02*
X149628500Y-77384000D01*
X150353500Y-77302000D02*
X149710500Y-77302000D01*
X149628500Y-76540000D02*
X149628500Y-77384000D01*
X149628500Y-77384000D02*
X149628500Y-78027000D01*
X146050000Y-81369500D02*
X147637500Y-81369500D01*
X147637500Y-81369500D02*
X149225000Y-81369500D01*
X149628500Y-78027000D02*
X150099500Y-78027000D01*
X150099500Y-78027000D02*
X150622000Y-78549500D01*
X146050000Y-81369500D02*
X144933000Y-81369500D01*
X144933000Y-81369500D02*
X144843500Y-81280000D01*
X149225000Y-81369500D02*
X150532500Y-81369500D01*
X150532500Y-81369500D02*
X150558500Y-81343500D01*
X145097500Y-111475217D02*
X144722307Y-111850410D01*
X145097500Y-110058500D02*
X145097500Y-111475217D01*
D21*
X142367000Y-110012000D02*
X142797068Y-109581932D01*
X142797068Y-109581932D02*
X142960582Y-109581932D01*
X142367000Y-110912000D02*
X142367000Y-110012000D01*
D20*
%TO.N,VBUS*%
X155110000Y-110218802D02*
X155244800Y-110084002D01*
X155110000Y-111059000D02*
X155110000Y-110218802D01*
X159515990Y-115446990D02*
X160655000Y-116586000D01*
X157495473Y-115446990D02*
X159515990Y-115446990D01*
X155110000Y-113061517D02*
X157495473Y-115446990D01*
X155110000Y-111059000D02*
X155110000Y-113061517D01*
X138946010Y-115434990D02*
X146947010Y-115434990D01*
X137795000Y-116586000D02*
X138946010Y-115434990D01*
X147955000Y-114427000D02*
X147955000Y-112141000D01*
X146947010Y-115434990D02*
X147955000Y-114427000D01*
X154305600Y-110770000D02*
X153543000Y-110770000D01*
X155110000Y-111059000D02*
X154594600Y-111059000D01*
X154594600Y-111059000D02*
X154305600Y-110770000D01*
X150596600Y-112077500D02*
X151231600Y-111442500D01*
X150207000Y-112077500D02*
X150596600Y-112077500D01*
X152326044Y-111442500D02*
X151231600Y-111442500D01*
X153011544Y-110757000D02*
X152326044Y-111442500D01*
X153670000Y-110757000D02*
X153011544Y-110757000D01*
X148018500Y-112077500D02*
X147955000Y-112141000D01*
X150207000Y-112077500D02*
X148018500Y-112077500D01*
X150559000Y-110769900D02*
X151231600Y-111442500D01*
X150559000Y-110236000D02*
X150559000Y-110769900D01*
X148987000Y-108531700D02*
X148245802Y-108531700D01*
X148245802Y-108531700D02*
X147984500Y-108793002D01*
X147955000Y-108822502D02*
X147984500Y-108793002D01*
X147849300Y-110143000D02*
X147955000Y-110248700D01*
X147002500Y-110143000D02*
X147849300Y-110143000D01*
X147955000Y-112141000D02*
X147955000Y-110248700D01*
X147955000Y-110248700D02*
X147955000Y-108822502D01*
D21*
X141867000Y-106512000D02*
X141867000Y-107412000D01*
X142784159Y-108015572D02*
X144077077Y-109308490D01*
X144077077Y-109308490D02*
X146167990Y-109308490D01*
X146167990Y-109308490D02*
X147002500Y-110143000D01*
X141867000Y-107412000D02*
X142470572Y-108015572D01*
X142470572Y-108015572D02*
X142784159Y-108015572D01*
D20*
%TO.N,VDD*%
X141444800Y-101462800D02*
X141424700Y-101462800D01*
X141465000Y-101442600D02*
X141444800Y-101462800D01*
X141465000Y-99631500D02*
X141465000Y-101442600D01*
X148328500Y-78027000D02*
X147678500Y-78027000D01*
X146953500Y-77302000D02*
X146953500Y-77992500D01*
X146988000Y-78027000D02*
X147678500Y-78027000D01*
X146953500Y-77992500D02*
X146988000Y-78027000D01*
X146050000Y-79819500D02*
X147637500Y-79819500D01*
X147637500Y-79819500D02*
X147637500Y-78068000D01*
X146050000Y-79819500D02*
X146050000Y-78613000D01*
X146050000Y-78613000D02*
X146113500Y-78549500D01*
D21*
%TO.N,SWD*%
X150495000Y-96901000D02*
X149328102Y-98067898D01*
X149328102Y-98067898D02*
X147419896Y-98067898D01*
X147419896Y-98067898D02*
X146253200Y-96901202D01*
X146253200Y-96901202D02*
X146253200Y-95669100D01*
X146253200Y-95669100D02*
X145034000Y-94449900D01*
X142519400Y-94449900D02*
X141427200Y-95542100D01*
X145034000Y-94449900D02*
X142519400Y-94449900D01*
%TO.N,SWC*%
X157149800Y-99441000D02*
X150495000Y-99441000D01*
X159504999Y-93141699D02*
X159504999Y-97085801D01*
X158927800Y-92564500D02*
X159504999Y-93141699D01*
X152463500Y-79057500D02*
X158927800Y-85521800D01*
X159504999Y-97085801D02*
X157149800Y-99441000D01*
X158927800Y-85521800D02*
X158927800Y-92564500D01*
%TO.N,RST*%
X142600553Y-85540473D02*
X142600553Y-88125027D01*
X142600553Y-88125027D02*
X144591010Y-90115484D01*
X147955000Y-96901000D02*
X148005800Y-96901000D01*
X149105001Y-95750999D02*
X147955000Y-96901000D01*
X153136600Y-96989900D02*
X151897699Y-95750999D01*
X151897699Y-95750999D02*
X149105001Y-95750999D01*
D20*
%TO.N,VBAT*%
X157310000Y-111059000D02*
X158282600Y-111059000D01*
X158282600Y-111059000D02*
X158597600Y-110744000D01*
X158597600Y-107594400D02*
X157429200Y-106426000D01*
X158597600Y-110744000D02*
X158597600Y-107594400D01*
X156998000Y-105994800D02*
X157429200Y-106426000D01*
X155143200Y-105994800D02*
X156998000Y-105994800D01*
X152573900Y-105994800D02*
X155143200Y-105994800D01*
X150987000Y-107581700D02*
X152573900Y-105994800D01*
%TO.N,VDDH*%
X143644800Y-103362800D02*
X142986800Y-103362800D01*
X142986800Y-103362800D02*
X142646400Y-103022400D01*
X142885200Y-101462800D02*
X143644800Y-101462800D01*
X142646400Y-101701600D02*
X142885200Y-101462800D01*
X142646400Y-103022400D02*
X142646400Y-102362000D01*
X142646400Y-102362000D02*
X142646400Y-101701600D01*
X145085943Y-103362800D02*
X145240906Y-103207837D01*
X143644800Y-103362800D02*
X145085943Y-103362800D01*
X144526000Y-106616500D02*
X146812000Y-106616500D01*
X147002500Y-108043000D02*
X147002500Y-106616500D01*
X146812000Y-106616500D02*
X147002500Y-106616500D01*
X147002500Y-106616500D02*
X148730500Y-106616500D01*
X145328300Y-101462800D02*
X145338500Y-101473000D01*
X143644800Y-101462800D02*
X145328300Y-101462800D01*
X145338500Y-101473000D02*
X145338500Y-100582006D01*
X145338500Y-98463400D02*
X145338800Y-98463100D01*
X145338500Y-100582006D02*
X145338500Y-98463400D01*
D21*
%TO.N,P0.15*%
X144932400Y-83566000D02*
X144932400Y-84637562D01*
X140045024Y-99095976D02*
X140045024Y-98143476D01*
X137795000Y-101346000D02*
X140045024Y-99095976D01*
X140045024Y-93929200D02*
X140045024Y-98143476D01*
X140045024Y-98143476D02*
X140045024Y-98257978D01*
X140640862Y-93333362D02*
X140045024Y-93929200D01*
X145291012Y-84996174D02*
X145114169Y-84819331D01*
X145114169Y-84819331D02*
X145177991Y-84883153D01*
X144932400Y-84637562D02*
X145114169Y-84819331D01*
X140640862Y-93333362D02*
X141670624Y-92303600D01*
X141670624Y-92303600D02*
X144407582Y-92303600D01*
X144407582Y-92303600D02*
X145291012Y-91420170D01*
X145291012Y-91420170D02*
X145291012Y-84996174D01*
%TO.N,P0.12*%
X154120850Y-97402650D02*
X154120850Y-95002350D01*
X149199600Y-100723700D02*
X149199600Y-99034398D01*
X149199600Y-99034398D02*
X150050298Y-98183700D01*
X156768800Y-87376000D02*
X155244800Y-85852000D01*
X151041576Y-85852000D02*
X148675856Y-83486280D01*
X150050298Y-98183700D02*
X153339800Y-98183700D01*
X154120850Y-95002350D02*
X156768800Y-92354400D01*
X155244800Y-85852000D02*
X151041576Y-85852000D01*
X153339800Y-98183700D02*
X154120850Y-97402650D01*
X156768800Y-92354400D02*
X156768800Y-87376000D01*
X145611809Y-104311491D02*
X148799601Y-101123699D01*
X139909509Y-104311491D02*
X145611809Y-104311491D01*
X148799601Y-101123699D02*
X149199600Y-100723700D01*
X137795000Y-106426000D02*
X139909509Y-104311491D01*
%TO.N,P0.08*%
X155028900Y-83502500D02*
X152209500Y-83502500D01*
X158404978Y-86878578D02*
X155028900Y-83502500D01*
X157530482Y-97930018D02*
X158404978Y-97055522D01*
X158404978Y-97055522D02*
X158404978Y-86878578D01*
X142367000Y-105556298D02*
X142367000Y-106512000D01*
X142811310Y-105111988D02*
X142367000Y-105556298D01*
X152273000Y-103466900D02*
X151815800Y-103924100D01*
X160655000Y-101346000D02*
X157729198Y-101346000D01*
X157729198Y-101346000D02*
X155608298Y-103466900D01*
X155608298Y-103466900D02*
X152273000Y-103466900D01*
X147656112Y-105111988D02*
X142811310Y-105111988D01*
X151815800Y-103924100D02*
X148844000Y-103924100D01*
X148844000Y-103924100D02*
X147656112Y-105111988D01*
%TO.N,P0.06*%
X153358315Y-104394000D02*
X153924000Y-104394000D01*
X142867000Y-105621998D02*
X142976999Y-105511999D01*
X152240316Y-105511999D02*
X153358315Y-104394000D01*
X142976999Y-105511999D02*
X143741278Y-105511999D01*
X142867000Y-106512000D02*
X142867000Y-105621998D01*
X143741278Y-105511999D02*
X145707499Y-105511999D01*
X145339501Y-105511999D02*
X145707499Y-105511999D01*
X145707499Y-105511999D02*
X152240316Y-105511999D01*
X155796700Y-101714300D02*
X160655000Y-96856000D01*
X160655000Y-96856000D02*
X160655000Y-96266000D01*
X155371800Y-101714300D02*
X155796700Y-101714300D01*
%TO.N,P0.05*%
X151407938Y-91082938D02*
X151407938Y-90615962D01*
X151407938Y-88433035D02*
X151407938Y-90615962D01*
X152844500Y-92519500D02*
X151407938Y-91082938D01*
X151454501Y-102735999D02*
X155522920Y-102735999D01*
X141367000Y-110912000D02*
X140436600Y-109981600D01*
X150749000Y-103441500D02*
X151454501Y-102735999D01*
X140436600Y-109981600D02*
X140436600Y-106052398D01*
X148691600Y-103441500D02*
X150749000Y-103441500D01*
X140436600Y-106052398D02*
X141777021Y-104711977D01*
X147421123Y-104711977D02*
X148691600Y-103441500D01*
X141777021Y-104711977D02*
X147421123Y-104711977D01*
X159452919Y-98806000D02*
X160655000Y-98806000D01*
X155522920Y-102735999D02*
X159452919Y-98806000D01*
%TO.N,P0.07*%
X141867000Y-109300291D02*
X141863238Y-109296529D01*
X145700801Y-91576081D02*
X144573271Y-92703611D01*
X142754389Y-92703611D02*
X140445035Y-95012965D01*
X144573271Y-92703611D02*
X142754389Y-92703611D01*
X145700801Y-83711999D02*
X145700801Y-91576081D01*
X146100800Y-83312000D02*
X145700801Y-83711999D01*
X141867000Y-109402500D02*
X141867000Y-109228000D01*
X141867000Y-110912000D02*
X141867000Y-109402500D01*
X141867000Y-109402500D02*
X141867000Y-109300291D01*
X138963400Y-102717600D02*
X138963400Y-101180900D01*
X137795000Y-103886000D02*
X138963400Y-102717600D01*
X140445035Y-95012965D02*
X140445035Y-99699265D01*
X138963400Y-101180900D02*
X140445035Y-99699265D01*
X141867000Y-109300291D02*
X142449287Y-108718004D01*
X142449287Y-108718004D02*
X142456943Y-108718004D01*
%TO.N,Net-(C6-Pad1)*%
X148978500Y-78027000D02*
X148978500Y-78302000D01*
X148978500Y-79573000D02*
X148978500Y-78027000D01*
X149225000Y-79819500D02*
X148978500Y-79573000D01*
%TO.N,Net-(D4-Pad1)*%
X157310000Y-108237200D02*
X157226000Y-108153200D01*
X157500500Y-109159000D02*
X156720500Y-109159000D01*
X156720500Y-109159000D02*
X156654500Y-109093000D01*
X156654500Y-109093000D02*
X156654500Y-108394500D01*
X156895800Y-108153200D02*
X157226000Y-108153200D01*
X156654500Y-108394500D02*
X156895800Y-108153200D01*
%TO.N,P0.20*%
X139745023Y-85533738D02*
X139345012Y-85933749D01*
X139745023Y-83310877D02*
X139745023Y-85533738D01*
X139345012Y-85933749D02*
X139345012Y-92936484D01*
X139345012Y-92936484D02*
X138945001Y-93336495D01*
X138945001Y-93336495D02*
X138945001Y-95115999D01*
X138945001Y-95115999D02*
X137795000Y-96266000D01*
X140610950Y-82069550D02*
X140610950Y-82444950D01*
X140610950Y-82444950D02*
X139745023Y-83310877D01*
X146422834Y-76002000D02*
X145883409Y-76541425D01*
X146953500Y-76002000D02*
X146422834Y-76002000D01*
X145883409Y-76797091D02*
X140610950Y-82069550D01*
X145883409Y-76541425D02*
X145883409Y-76797091D01*
%TO.N,P0.17*%
X139345012Y-97255988D02*
X137795000Y-98806000D01*
X140145034Y-85717190D02*
X139745023Y-86117201D01*
X139745023Y-86117201D02*
X139745023Y-93102173D01*
X139745023Y-93102173D02*
X139345012Y-93502184D01*
X139345012Y-93502184D02*
X139345012Y-97255988D01*
X145034000Y-78380798D02*
X145034000Y-78803500D01*
X146762798Y-76652000D02*
X145034000Y-78380798D01*
X146953500Y-76652000D02*
X146762798Y-76652000D01*
X140145034Y-83692466D02*
X140145034Y-83693534D01*
X145034000Y-78803500D02*
X140145034Y-83692466D01*
X140145034Y-83693534D02*
X140145034Y-85717190D01*
%TO.N,P0.04*%
X157704976Y-93239022D02*
X156011498Y-94932500D01*
X157704976Y-87143776D02*
X157704976Y-93239022D01*
X155244800Y-84683600D02*
X157704976Y-87143776D01*
X150304500Y-83502500D02*
X151485600Y-84683600D01*
X151485600Y-84683600D02*
X155244800Y-84683600D01*
%TO.N,P1.09*%
X150546752Y-92244090D02*
X152213671Y-93911009D01*
X150546752Y-88941347D02*
X150546752Y-92244090D01*
X152213671Y-93911009D02*
X153918509Y-93911009D01*
X153918509Y-93911009D02*
X153924000Y-93916500D01*
%TO.N,P1.06*%
X138303000Y-75946000D02*
X137795000Y-75946000D01*
X146538950Y-72751950D02*
X146358576Y-72571576D01*
X141677424Y-72571576D02*
X138303000Y-75946000D01*
X146358576Y-72571576D02*
X141677424Y-72571576D01*
%TO.N,P1.04*%
X142195317Y-73024281D02*
X145075876Y-73024281D01*
X138945001Y-79875999D02*
X138945001Y-76274597D01*
X138945001Y-76274597D02*
X142195317Y-73024281D01*
X145075876Y-73024281D02*
X145323172Y-73271577D01*
X137795000Y-81026000D02*
X138945001Y-79875999D01*
%TO.N,P1.02*%
X137795000Y-83563800D02*
X139345012Y-82013788D01*
X137795000Y-83566000D02*
X137795000Y-83563800D01*
X139345012Y-82013788D02*
X139345012Y-78205988D01*
X139345012Y-78205988D02*
X139345012Y-77997390D01*
X139345012Y-78205988D02*
X139345012Y-76808988D01*
X139345012Y-76808988D02*
X142429717Y-73724283D01*
X142429717Y-73724283D02*
X144431499Y-73724283D01*
%TO.N,SWO*%
X138945001Y-84955999D02*
X137795000Y-86106000D01*
X139745023Y-82179477D02*
X138945001Y-82979499D01*
X138945001Y-82979499D02*
X138945001Y-84955999D01*
X139745023Y-78313977D02*
X139745023Y-78631477D01*
X139745023Y-78631477D02*
X139745023Y-82179477D01*
X139745023Y-78631477D02*
X139745023Y-77361477D01*
X139745023Y-77361477D02*
X142445510Y-74660990D01*
X142445510Y-74660990D02*
X144781647Y-74660990D01*
X150495000Y-82486500D02*
X151763499Y-81218001D01*
X147320000Y-89027000D02*
X147320000Y-83121500D01*
X147955000Y-82486500D02*
X150495000Y-82486500D01*
X147320000Y-83121500D02*
X147955000Y-82486500D01*
X147955000Y-89662000D02*
X147320000Y-89027000D01*
X147955000Y-94361000D02*
X147955000Y-89662000D01*
X151763499Y-76392001D02*
X152241250Y-75914250D01*
X151763499Y-81218001D02*
X151763499Y-76392001D01*
%TO.N,P0.26*%
X148328500Y-74162800D02*
X148328500Y-74627000D01*
X160655000Y-93726000D02*
X159504999Y-92575999D01*
X159504999Y-84841699D02*
X158851600Y-84188300D01*
X159504999Y-92575999D02*
X159504999Y-84841699D01*
X158851600Y-84188300D02*
X158851600Y-73291700D01*
X158851600Y-73291700D02*
X149199600Y-73291700D01*
X149199600Y-73291700D02*
X148328500Y-74162800D01*
%TO.N,P0.25*%
X148978500Y-74627000D02*
X148978500Y-74122400D01*
X157910090Y-74051990D02*
X157949100Y-74091000D01*
X149048910Y-74051990D02*
X157910090Y-74051990D01*
X148978500Y-74122400D02*
X149048910Y-74051990D01*
%TO.N,P0.24*%
X146196192Y-74627000D02*
X147678500Y-74627000D01*
X142438296Y-78384896D02*
X146196192Y-74627000D01*
X140868896Y-78384896D02*
X142438296Y-78384896D01*
%TO.N,P0.22*%
X146953500Y-75352000D02*
X147869000Y-75352000D01*
X147869000Y-75352000D02*
X148463000Y-75946000D01*
X145147046Y-76244688D02*
X145147046Y-76883454D01*
X146039734Y-75352000D02*
X145147046Y-76244688D01*
X140169350Y-82320850D02*
X139345012Y-83145188D01*
X139345012Y-83145188D02*
X139345012Y-85368049D01*
X138945001Y-90035999D02*
X137795000Y-91186000D01*
X145147046Y-76883454D02*
X140169350Y-81861150D01*
X146953500Y-75352000D02*
X146039734Y-75352000D01*
X139345012Y-85368049D02*
X138945001Y-85768060D01*
X138945001Y-85768060D02*
X138945001Y-90035999D01*
X140169350Y-81861150D02*
X140169350Y-82320850D01*
%TO.N,Net-(R3-Pad2)*%
X155194000Y-109075000D02*
X155110000Y-109159000D01*
X155194000Y-107696000D02*
X155194000Y-109075000D01*
%TO.N,/UART_D-*%
X142867000Y-112056390D02*
X142759388Y-112164002D01*
X142867000Y-110912000D02*
X142867000Y-112056390D01*
%TO.N,/UART_D+*%
X143367000Y-110912000D02*
X143774106Y-111319106D01*
X143774106Y-111319106D02*
X143774106Y-112168119D01*
D20*
%TO.N,/USB1VBUS*%
X142178121Y-112968121D02*
X145027879Y-112968121D01*
X141478000Y-112268000D02*
X142178121Y-112968121D01*
X145027879Y-112968121D02*
X145855000Y-112141000D01*
%TO.N,/USB2VBUS*%
X153225500Y-112077500D02*
X153416000Y-111887000D01*
X152307000Y-112077500D02*
X153225500Y-112077500D01*
D21*
%TO.N,Net-(D8-Pad2)*%
X141331800Y-106476800D02*
X141367000Y-106512000D01*
X141367000Y-107953300D02*
X141478000Y-108064300D01*
X141367000Y-106512000D02*
X141367000Y-107953300D01*
%TO.N,Net-(C3-Pad2)*%
X143910300Y-108508500D02*
X145097500Y-108508500D01*
X143367000Y-107965200D02*
X143910300Y-108508500D01*
X143367000Y-106512000D02*
X143367000Y-107965200D01*
%TD*%
D22*
%TO.N,VDD*%
X144841897Y-97550336D02*
X144679026Y-97659163D01*
X144534863Y-97803326D01*
X144421595Y-97972844D01*
X144343574Y-98161202D01*
X144303800Y-98361161D01*
X144303800Y-98565039D01*
X144343574Y-98764998D01*
X144421595Y-98953356D01*
X144503501Y-99075937D01*
X144503501Y-99330876D01*
X144377975Y-99305907D01*
X144142146Y-99070078D01*
X144115991Y-99038209D01*
X143988846Y-98933864D01*
X143968969Y-98923240D01*
X143957618Y-98902003D01*
X143850284Y-98771216D01*
X143719497Y-98663882D01*
X143570283Y-98584125D01*
X143408377Y-98535012D01*
X143240000Y-98518428D01*
X142790000Y-98518428D01*
X142621623Y-98535012D01*
X142459717Y-98584125D01*
X142313649Y-98662200D01*
X142269494Y-98625963D01*
X142159180Y-98566998D01*
X142039482Y-98530688D01*
X141915000Y-98518428D01*
X141750750Y-98521500D01*
X141592000Y-98680250D01*
X141592000Y-99504500D01*
X141612000Y-99504500D01*
X141612000Y-99758500D01*
X141592000Y-99758500D01*
X141592000Y-100582750D01*
X141621300Y-100612050D01*
X141571800Y-100661550D01*
X141571800Y-101335800D01*
X141591800Y-101335800D01*
X141591800Y-101589800D01*
X141571800Y-101589800D01*
X141571800Y-101609800D01*
X141317800Y-101609800D01*
X141317800Y-101589800D01*
X140438550Y-101589800D01*
X140279800Y-101748550D01*
X140276728Y-101787800D01*
X140288988Y-101912282D01*
X140325298Y-102031980D01*
X140384263Y-102142294D01*
X140463615Y-102238985D01*
X140560306Y-102318337D01*
X140670620Y-102377302D01*
X140787641Y-102412800D01*
X140670620Y-102448298D01*
X140560306Y-102507263D01*
X140463615Y-102586615D01*
X140384263Y-102683306D01*
X140325298Y-102793620D01*
X140288988Y-102913318D01*
X140276728Y-103037800D01*
X140276728Y-103576491D01*
X139945603Y-103576491D01*
X139909508Y-103572936D01*
X139873413Y-103576491D01*
X139873404Y-103576491D01*
X139765424Y-103587126D01*
X139626876Y-103629154D01*
X139579569Y-103654440D01*
X139579963Y-103123288D01*
X139645737Y-103000233D01*
X139687765Y-102861685D01*
X139698400Y-102753705D01*
X139698400Y-102753698D01*
X139701955Y-102717601D01*
X139698400Y-102681504D01*
X139698400Y-101485346D01*
X140365686Y-100818061D01*
X140325298Y-100893620D01*
X140288988Y-101013318D01*
X140276728Y-101137800D01*
X140279800Y-101177050D01*
X140438550Y-101335800D01*
X141317800Y-101335800D01*
X141317800Y-100661550D01*
X141288500Y-100632250D01*
X141338000Y-100582750D01*
X141338000Y-99758500D01*
X141318000Y-99758500D01*
X141318000Y-99504500D01*
X141338000Y-99504500D01*
X141338000Y-98680250D01*
X141180035Y-98522285D01*
X141180035Y-96548213D01*
X141325261Y-96577100D01*
X141529139Y-96577100D01*
X141729098Y-96537326D01*
X141917456Y-96459305D01*
X142086974Y-96346037D01*
X142231137Y-96201874D01*
X142344405Y-96032356D01*
X142422426Y-95843998D01*
X142462200Y-95644039D01*
X142462200Y-95546546D01*
X142492046Y-95516700D01*
X144843406Y-95516700D01*
X144841897Y-97550336D01*
%TA.AperFunction,Conductor*%
D23*
G36*
X144841897Y-97550336D02*
G01*
X144679026Y-97659163D01*
X144534863Y-97803326D01*
X144421595Y-97972844D01*
X144343574Y-98161202D01*
X144303800Y-98361161D01*
X144303800Y-98565039D01*
X144343574Y-98764998D01*
X144421595Y-98953356D01*
X144503501Y-99075937D01*
X144503501Y-99330876D01*
X144377975Y-99305907D01*
X144142146Y-99070078D01*
X144115991Y-99038209D01*
X143988846Y-98933864D01*
X143968969Y-98923240D01*
X143957618Y-98902003D01*
X143850284Y-98771216D01*
X143719497Y-98663882D01*
X143570283Y-98584125D01*
X143408377Y-98535012D01*
X143240000Y-98518428D01*
X142790000Y-98518428D01*
X142621623Y-98535012D01*
X142459717Y-98584125D01*
X142313649Y-98662200D01*
X142269494Y-98625963D01*
X142159180Y-98566998D01*
X142039482Y-98530688D01*
X141915000Y-98518428D01*
X141750750Y-98521500D01*
X141592000Y-98680250D01*
X141592000Y-99504500D01*
X141612000Y-99504500D01*
X141612000Y-99758500D01*
X141592000Y-99758500D01*
X141592000Y-100582750D01*
X141621300Y-100612050D01*
X141571800Y-100661550D01*
X141571800Y-101335800D01*
X141591800Y-101335800D01*
X141591800Y-101589800D01*
X141571800Y-101589800D01*
X141571800Y-101609800D01*
X141317800Y-101609800D01*
X141317800Y-101589800D01*
X140438550Y-101589800D01*
X140279800Y-101748550D01*
X140276728Y-101787800D01*
X140288988Y-101912282D01*
X140325298Y-102031980D01*
X140384263Y-102142294D01*
X140463615Y-102238985D01*
X140560306Y-102318337D01*
X140670620Y-102377302D01*
X140787641Y-102412800D01*
X140670620Y-102448298D01*
X140560306Y-102507263D01*
X140463615Y-102586615D01*
X140384263Y-102683306D01*
X140325298Y-102793620D01*
X140288988Y-102913318D01*
X140276728Y-103037800D01*
X140276728Y-103576491D01*
X139945603Y-103576491D01*
X139909508Y-103572936D01*
X139873413Y-103576491D01*
X139873404Y-103576491D01*
X139765424Y-103587126D01*
X139626876Y-103629154D01*
X139579569Y-103654440D01*
X139579963Y-103123288D01*
X139645737Y-103000233D01*
X139687765Y-102861685D01*
X139698400Y-102753705D01*
X139698400Y-102753698D01*
X139701955Y-102717601D01*
X139698400Y-102681504D01*
X139698400Y-101485346D01*
X140365686Y-100818061D01*
X140325298Y-100893620D01*
X140288988Y-101013318D01*
X140276728Y-101137800D01*
X140279800Y-101177050D01*
X140438550Y-101335800D01*
X141317800Y-101335800D01*
X141317800Y-100661550D01*
X141288500Y-100632250D01*
X141338000Y-100582750D01*
X141338000Y-99758500D01*
X141318000Y-99758500D01*
X141318000Y-99504500D01*
X141338000Y-99504500D01*
X141338000Y-98680250D01*
X141180035Y-98522285D01*
X141180035Y-96548213D01*
X141325261Y-96577100D01*
X141529139Y-96577100D01*
X141729098Y-96537326D01*
X141917456Y-96459305D01*
X142086974Y-96346037D01*
X142231137Y-96201874D01*
X142344405Y-96032356D01*
X142422426Y-95843998D01*
X142462200Y-95644039D01*
X142462200Y-95546546D01*
X142492046Y-95516700D01*
X144843406Y-95516700D01*
X144841897Y-97550336D01*
G37*
%TD.AperFunction*%
%TD*%
M02*
