%TF.GenerationSoftware,KiCad,Pcbnew,5.1.10-88a1d61d58~88~ubuntu18.04.1*%
%TF.CreationDate,2021-06-05T10:08:30+03:00*%
%TF.ProjectId,ebyte-E73-2G4M08S1x-board,65627974-652d-4453-9733-2d3247344d30,rev?*%
%TF.SameCoordinates,Original*%
%TF.FileFunction,Copper,L1,Top*%
%TF.FilePolarity,Positive*%
%FSLAX46Y46*%
G04 Gerber Fmt 4.6, Leading zero omitted, Abs format (unit mm)*
G04 Created by KiCad (PCBNEW 5.1.10-88a1d61d58~88~ubuntu18.04.1) date 2021-06-05 10:08:30*
%MOMM*%
%LPD*%
G01*
G04 APERTURE LIST*
%TA.AperFunction,SMDPad,CuDef*%
%ADD10R,1.000000X1.500000*%
%TD*%
%TA.AperFunction,SMDPad,CuDef*%
%ADD11R,2.400000X0.740000*%
%TD*%
%TA.AperFunction,SMDPad,CuDef*%
%ADD12R,2.400000X1.500000*%
%TD*%
%TA.AperFunction,SMDPad,CuDef*%
%ADD13R,1.100000X0.600000*%
%TD*%
%TA.AperFunction,SMDPad,CuDef*%
%ADD14R,1.050000X0.650000*%
%TD*%
%TA.AperFunction,SMDPad,CuDef*%
%ADD15R,1.430000X2.500000*%
%TD*%
%TA.AperFunction,ComponentPad*%
%ADD16O,1.350000X1.700000*%
%TD*%
%TA.AperFunction,ComponentPad*%
%ADD17O,1.100000X1.500000*%
%TD*%
%TA.AperFunction,SMDPad,CuDef*%
%ADD18R,0.400000X1.650000*%
%TD*%
%TA.AperFunction,SMDPad,CuDef*%
%ADD19R,2.000000X1.500000*%
%TD*%
%TA.AperFunction,SMDPad,CuDef*%
%ADD20R,1.825000X0.700000*%
%TD*%
%TA.AperFunction,SMDPad,CuDef*%
%ADD21R,1.350000X2.000000*%
%TD*%
%TA.AperFunction,ComponentPad*%
%ADD22O,1.700000X1.700000*%
%TD*%
%TA.AperFunction,ComponentPad*%
%ADD23R,1.700000X1.700000*%
%TD*%
%TA.AperFunction,SMDPad,CuDef*%
%ADD24R,1.000000X1.000000*%
%TD*%
%TA.AperFunction,ViaPad*%
%ADD25C,0.800000*%
%TD*%
%TA.AperFunction,Conductor*%
%ADD26C,0.200000*%
%TD*%
%TA.AperFunction,Conductor*%
%ADD27C,0.400000*%
%TD*%
G04 APERTURE END LIST*
%TO.P,U5,40*%
%TO.N,P1.04*%
%TA.AperFunction,SMDPad,CuDef*%
G36*
G01*
X153405000Y-74341000D02*
X153805000Y-74341000D01*
G75*
G02*
X154005000Y-74541000I0J-200000D01*
G01*
X154005000Y-74941000D01*
G75*
G02*
X153805000Y-75141000I-200000J0D01*
G01*
X153405000Y-75141000D01*
G75*
G02*
X153205000Y-74941000I0J200000D01*
G01*
X153205000Y-74541000D01*
G75*
G02*
X153405000Y-74341000I200000J0D01*
G01*
G37*
%TD.AperFunction*%
%TO.P,U5,42*%
%TO.N,P1.06*%
%TA.AperFunction,SMDPad,CuDef*%
G36*
G01*
X153405000Y-73071000D02*
X153805000Y-73071000D01*
G75*
G02*
X154005000Y-73271000I0J-200000D01*
G01*
X154005000Y-73671000D01*
G75*
G02*
X153805000Y-73871000I-200000J0D01*
G01*
X153405000Y-73871000D01*
G75*
G02*
X153205000Y-73671000I0J200000D01*
G01*
X153205000Y-73271000D01*
G75*
G02*
X153405000Y-73071000I200000J0D01*
G01*
G37*
%TD.AperFunction*%
%TO.P,U5,38*%
%TO.N,P1.02*%
%TA.AperFunction,SMDPad,CuDef*%
G36*
G01*
X153405000Y-75611000D02*
X153805000Y-75611000D01*
G75*
G02*
X154005000Y-75811000I0J-200000D01*
G01*
X154005000Y-76211000D01*
G75*
G02*
X153805000Y-76411000I-200000J0D01*
G01*
X153405000Y-76411000D01*
G75*
G02*
X153205000Y-76211000I0J200000D01*
G01*
X153205000Y-75811000D01*
G75*
G02*
X153405000Y-75611000I200000J0D01*
G01*
G37*
%TD.AperFunction*%
%TO.P,U5,36*%
%TO.N,SWO*%
%TA.AperFunction,SMDPad,CuDef*%
G36*
G01*
X153405000Y-76881000D02*
X153805000Y-76881000D01*
G75*
G02*
X154005000Y-77081000I0J-200000D01*
G01*
X154005000Y-77481000D01*
G75*
G02*
X153805000Y-77681000I-200000J0D01*
G01*
X153405000Y-77681000D01*
G75*
G02*
X153205000Y-77481000I0J200000D01*
G01*
X153205000Y-77081000D01*
G75*
G02*
X153405000Y-76881000I200000J0D01*
G01*
G37*
%TD.AperFunction*%
%TO.P,U5,34*%
%TO.N,P0.22*%
%TA.AperFunction,SMDPad,CuDef*%
G36*
G01*
X153405000Y-78151000D02*
X153805000Y-78151000D01*
G75*
G02*
X154005000Y-78351000I0J-200000D01*
G01*
X154005000Y-78751000D01*
G75*
G02*
X153805000Y-78951000I-200000J0D01*
G01*
X153405000Y-78951000D01*
G75*
G02*
X153205000Y-78751000I0J200000D01*
G01*
X153205000Y-78351000D01*
G75*
G02*
X153405000Y-78151000I200000J0D01*
G01*
G37*
%TD.AperFunction*%
%TO.P,U5,32*%
%TO.N,P0.20*%
%TA.AperFunction,SMDPad,CuDef*%
G36*
G01*
X153405000Y-79421000D02*
X153805000Y-79421000D01*
G75*
G02*
X154005000Y-79621000I0J-200000D01*
G01*
X154005000Y-80021000D01*
G75*
G02*
X153805000Y-80221000I-200000J0D01*
G01*
X153405000Y-80221000D01*
G75*
G02*
X153205000Y-80021000I0J200000D01*
G01*
X153205000Y-79621000D01*
G75*
G02*
X153405000Y-79421000I200000J0D01*
G01*
G37*
%TD.AperFunction*%
%TO.P,U5,30*%
%TO.N,P0.17*%
%TA.AperFunction,SMDPad,CuDef*%
G36*
G01*
X153405000Y-80691000D02*
X153805000Y-80691000D01*
G75*
G02*
X154005000Y-80891000I0J-200000D01*
G01*
X154005000Y-81291000D01*
G75*
G02*
X153805000Y-81491000I-200000J0D01*
G01*
X153405000Y-81491000D01*
G75*
G02*
X153205000Y-81291000I0J200000D01*
G01*
X153205000Y-80891000D01*
G75*
G02*
X153405000Y-80691000I200000J0D01*
G01*
G37*
%TD.AperFunction*%
%TO.P,U5,28*%
%TO.N,P0.15*%
%TA.AperFunction,SMDPad,CuDef*%
G36*
G01*
X153405000Y-81961000D02*
X153805000Y-81961000D01*
G75*
G02*
X154005000Y-82161000I0J-200000D01*
G01*
X154005000Y-82561000D01*
G75*
G02*
X153805000Y-82761000I-200000J0D01*
G01*
X153405000Y-82761000D01*
G75*
G02*
X153205000Y-82561000I0J200000D01*
G01*
X153205000Y-82161000D01*
G75*
G02*
X153405000Y-81961000I200000J0D01*
G01*
G37*
%TD.AperFunction*%
%TO.P,U5,24*%
%TO.N,GND*%
%TA.AperFunction,SMDPad,CuDef*%
G36*
G01*
X145215000Y-84351000D02*
X145615000Y-84351000D01*
G75*
G02*
X145815000Y-84551000I0J-200000D01*
G01*
X145815000Y-84951000D01*
G75*
G02*
X145615000Y-85151000I-200000J0D01*
G01*
X145215000Y-85151000D01*
G75*
G02*
X145015000Y-84951000I0J200000D01*
G01*
X145015000Y-84551000D01*
G75*
G02*
X145215000Y-84351000I200000J0D01*
G01*
G37*
%TD.AperFunction*%
%TO.P,U5,22*%
%TO.N,P0.07*%
%TA.AperFunction,SMDPad,CuDef*%
G36*
G01*
X146485000Y-84351000D02*
X146885000Y-84351000D01*
G75*
G02*
X147085000Y-84551000I0J-200000D01*
G01*
X147085000Y-84951000D01*
G75*
G02*
X146885000Y-85151000I-200000J0D01*
G01*
X146485000Y-85151000D01*
G75*
G02*
X146285000Y-84951000I0J200000D01*
G01*
X146285000Y-84551000D01*
G75*
G02*
X146485000Y-84351000I200000J0D01*
G01*
G37*
%TD.AperFunction*%
%TO.P,U5,20*%
%TO.N,P0.12*%
%TA.AperFunction,SMDPad,CuDef*%
G36*
G01*
X147755000Y-84351000D02*
X148155000Y-84351000D01*
G75*
G02*
X148355000Y-84551000I0J-200000D01*
G01*
X148355000Y-84951000D01*
G75*
G02*
X148155000Y-85151000I-200000J0D01*
G01*
X147755000Y-85151000D01*
G75*
G02*
X147555000Y-84951000I0J200000D01*
G01*
X147555000Y-84551000D01*
G75*
G02*
X147755000Y-84351000I200000J0D01*
G01*
G37*
%TD.AperFunction*%
%TO.P,U5,18*%
%TO.N,P0.04*%
%TA.AperFunction,SMDPad,CuDef*%
G36*
G01*
X149025000Y-84351000D02*
X149425000Y-84351000D01*
G75*
G02*
X149625000Y-84551000I0J-200000D01*
G01*
X149625000Y-84951000D01*
G75*
G02*
X149425000Y-85151000I-200000J0D01*
G01*
X149025000Y-85151000D01*
G75*
G02*
X148825000Y-84951000I0J200000D01*
G01*
X148825000Y-84551000D01*
G75*
G02*
X149025000Y-84351000I200000J0D01*
G01*
G37*
%TD.AperFunction*%
%TO.P,U5,16*%
%TO.N,P0.08*%
%TA.AperFunction,SMDPad,CuDef*%
G36*
G01*
X150295000Y-84351000D02*
X150695000Y-84351000D01*
G75*
G02*
X150895000Y-84551000I0J-200000D01*
G01*
X150895000Y-84951000D01*
G75*
G02*
X150695000Y-85151000I-200000J0D01*
G01*
X150295000Y-85151000D01*
G75*
G02*
X150095000Y-84951000I0J200000D01*
G01*
X150095000Y-84551000D01*
G75*
G02*
X150295000Y-84351000I200000J0D01*
G01*
G37*
%TD.AperFunction*%
%TO.P,U5,14*%
%TO.N,P0.06*%
%TA.AperFunction,SMDPad,CuDef*%
G36*
G01*
X151565000Y-84351000D02*
X151965000Y-84351000D01*
G75*
G02*
X152165000Y-84551000I0J-200000D01*
G01*
X152165000Y-84951000D01*
G75*
G02*
X151965000Y-85151000I-200000J0D01*
G01*
X151565000Y-85151000D01*
G75*
G02*
X151365000Y-84951000I0J200000D01*
G01*
X151365000Y-84551000D01*
G75*
G02*
X151565000Y-84351000I200000J0D01*
G01*
G37*
%TD.AperFunction*%
%TO.P,U5,12*%
%TO.N,P0.26*%
%TA.AperFunction,SMDPad,CuDef*%
G36*
G01*
X152835000Y-84351000D02*
X153235000Y-84351000D01*
G75*
G02*
X153435000Y-84551000I0J-200000D01*
G01*
X153435000Y-84951000D01*
G75*
G02*
X153235000Y-85151000I-200000J0D01*
G01*
X152835000Y-85151000D01*
G75*
G02*
X152635000Y-84951000I0J200000D01*
G01*
X152635000Y-84551000D01*
G75*
G02*
X152835000Y-84351000I200000J0D01*
G01*
G37*
%TD.AperFunction*%
%TO.P,U5,25*%
%TO.N,Net-(TP1-Pad1)*%
%TA.AperFunction,SMDPad,CuDef*%
G36*
G01*
X144575000Y-85841000D02*
X144975000Y-85841000D01*
G75*
G02*
X145175000Y-86041000I0J-200000D01*
G01*
X145175000Y-87641000D01*
G75*
G02*
X144975000Y-87841000I-200000J0D01*
G01*
X144575000Y-87841000D01*
G75*
G02*
X144375000Y-87641000I0J200000D01*
G01*
X144375000Y-86041000D01*
G75*
G02*
X144575000Y-85841000I200000J0D01*
G01*
G37*
%TD.AperFunction*%
%TO.P,U5,23*%
%TO.N,VDDH*%
%TA.AperFunction,SMDPad,CuDef*%
G36*
G01*
X145845000Y-85841000D02*
X146245000Y-85841000D01*
G75*
G02*
X146445000Y-86041000I0J-200000D01*
G01*
X146445000Y-87641000D01*
G75*
G02*
X146245000Y-87841000I-200000J0D01*
G01*
X145845000Y-87841000D01*
G75*
G02*
X145645000Y-87641000I0J200000D01*
G01*
X145645000Y-86041000D01*
G75*
G02*
X145845000Y-85841000I200000J0D01*
G01*
G37*
%TD.AperFunction*%
%TO.P,U5,21*%
%TO.N,GND*%
%TA.AperFunction,SMDPad,CuDef*%
G36*
G01*
X147115000Y-85841000D02*
X147515000Y-85841000D01*
G75*
G02*
X147715000Y-86041000I0J-200000D01*
G01*
X147715000Y-87641000D01*
G75*
G02*
X147515000Y-87841000I-200000J0D01*
G01*
X147115000Y-87841000D01*
G75*
G02*
X146915000Y-87641000I0J200000D01*
G01*
X146915000Y-86041000D01*
G75*
G02*
X147115000Y-85841000I200000J0D01*
G01*
G37*
%TD.AperFunction*%
%TO.P,U5,19*%
%TO.N,VDD*%
%TA.AperFunction,SMDPad,CuDef*%
G36*
G01*
X148385000Y-85841000D02*
X148785000Y-85841000D01*
G75*
G02*
X148985000Y-86041000I0J-200000D01*
G01*
X148985000Y-87641000D01*
G75*
G02*
X148785000Y-87841000I-200000J0D01*
G01*
X148385000Y-87841000D01*
G75*
G02*
X148185000Y-87641000I0J200000D01*
G01*
X148185000Y-86041000D01*
G75*
G02*
X148385000Y-85841000I200000J0D01*
G01*
G37*
%TD.AperFunction*%
%TO.P,U5,17*%
%TO.N,P1.09*%
%TA.AperFunction,SMDPad,CuDef*%
G36*
G01*
X149655000Y-85841000D02*
X150055000Y-85841000D01*
G75*
G02*
X150255000Y-86041000I0J-200000D01*
G01*
X150255000Y-87641000D01*
G75*
G02*
X150055000Y-87841000I-200000J0D01*
G01*
X149655000Y-87841000D01*
G75*
G02*
X149455000Y-87641000I0J200000D01*
G01*
X149455000Y-86041000D01*
G75*
G02*
X149655000Y-85841000I200000J0D01*
G01*
G37*
%TD.AperFunction*%
%TO.P,U5,15*%
%TO.N,P0.05*%
%TA.AperFunction,SMDPad,CuDef*%
G36*
G01*
X150925000Y-85841000D02*
X151325000Y-85841000D01*
G75*
G02*
X151525000Y-86041000I0J-200000D01*
G01*
X151525000Y-87641000D01*
G75*
G02*
X151325000Y-87841000I-200000J0D01*
G01*
X150925000Y-87841000D01*
G75*
G02*
X150725000Y-87641000I0J200000D01*
G01*
X150725000Y-86041000D01*
G75*
G02*
X150925000Y-85841000I200000J0D01*
G01*
G37*
%TD.AperFunction*%
%TO.P,U5,13*%
%TO.N,Net-(C8-Pad1)*%
%TA.AperFunction,SMDPad,CuDef*%
G36*
G01*
X152195000Y-85841000D02*
X152595000Y-85841000D01*
G75*
G02*
X152795000Y-86041000I0J-200000D01*
G01*
X152795000Y-87641000D01*
G75*
G02*
X152595000Y-87841000I-200000J0D01*
G01*
X152195000Y-87841000D01*
G75*
G02*
X151995000Y-87641000I0J200000D01*
G01*
X151995000Y-86041000D01*
G75*
G02*
X152195000Y-85841000I200000J0D01*
G01*
G37*
%TD.AperFunction*%
%TO.P,U5,11*%
%TO.N,Net-(C7-Pad1)*%
%TA.AperFunction,SMDPad,CuDef*%
G36*
G01*
X153465000Y-85841000D02*
X153865000Y-85841000D01*
G75*
G02*
X154065000Y-86041000I0J-200000D01*
G01*
X154065000Y-87641000D01*
G75*
G02*
X153865000Y-87841000I-200000J0D01*
G01*
X153465000Y-87841000D01*
G75*
G02*
X153265000Y-87641000I0J200000D01*
G01*
X153265000Y-86041000D01*
G75*
G02*
X153465000Y-85841000I200000J0D01*
G01*
G37*
%TD.AperFunction*%
%TO.P,U5,43*%
%TO.N,P0.10*%
%TA.AperFunction,SMDPad,CuDef*%
G36*
G01*
X143731000Y-72621000D02*
X143731000Y-73021000D01*
G75*
G02*
X143531000Y-73221000I-200000J0D01*
G01*
X141931000Y-73221000D01*
G75*
G02*
X141731000Y-73021000I0J200000D01*
G01*
X141731000Y-72621000D01*
G75*
G02*
X141931000Y-72421000I200000J0D01*
G01*
X143531000Y-72421000D01*
G75*
G02*
X143731000Y-72621000I0J-200000D01*
G01*
G37*
%TD.AperFunction*%
%TO.P,U5,41*%
%TO.N,P0.09*%
%TA.AperFunction,SMDPad,CuDef*%
G36*
G01*
X143731000Y-73891000D02*
X143731000Y-74291000D01*
G75*
G02*
X143531000Y-74491000I-200000J0D01*
G01*
X141931000Y-74491000D01*
G75*
G02*
X141731000Y-74291000I0J200000D01*
G01*
X141731000Y-73891000D01*
G75*
G02*
X141931000Y-73691000I200000J0D01*
G01*
X143531000Y-73691000D01*
G75*
G02*
X143731000Y-73891000I0J-200000D01*
G01*
G37*
%TD.AperFunction*%
%TO.P,U5,39*%
%TO.N,SWC*%
%TA.AperFunction,SMDPad,CuDef*%
G36*
G01*
X143731000Y-75161000D02*
X143731000Y-75561000D01*
G75*
G02*
X143531000Y-75761000I-200000J0D01*
G01*
X141931000Y-75761000D01*
G75*
G02*
X141731000Y-75561000I0J200000D01*
G01*
X141731000Y-75161000D01*
G75*
G02*
X141931000Y-74961000I200000J0D01*
G01*
X143531000Y-74961000D01*
G75*
G02*
X143731000Y-75161000I0J-200000D01*
G01*
G37*
%TD.AperFunction*%
%TO.P,U5,37*%
%TO.N,SWD*%
%TA.AperFunction,SMDPad,CuDef*%
G36*
G01*
X143731000Y-76431000D02*
X143731000Y-76831000D01*
G75*
G02*
X143531000Y-77031000I-200000J0D01*
G01*
X141931000Y-77031000D01*
G75*
G02*
X141731000Y-76831000I0J200000D01*
G01*
X141731000Y-76431000D01*
G75*
G02*
X141931000Y-76231000I200000J0D01*
G01*
X143531000Y-76231000D01*
G75*
G02*
X143731000Y-76431000I0J-200000D01*
G01*
G37*
%TD.AperFunction*%
%TO.P,U5,31*%
%TO.N,NRF_D+*%
%TA.AperFunction,SMDPad,CuDef*%
G36*
G01*
X143731000Y-80241000D02*
X143731000Y-80641000D01*
G75*
G02*
X143531000Y-80841000I-200000J0D01*
G01*
X141931000Y-80841000D01*
G75*
G02*
X141731000Y-80641000I0J200000D01*
G01*
X141731000Y-80241000D01*
G75*
G02*
X141931000Y-80041000I200000J0D01*
G01*
X143531000Y-80041000D01*
G75*
G02*
X143731000Y-80241000I0J-200000D01*
G01*
G37*
%TD.AperFunction*%
%TO.P,U5,35*%
%TO.N,P0.24*%
%TA.AperFunction,SMDPad,CuDef*%
G36*
G01*
X143731000Y-77701000D02*
X143731000Y-78101000D01*
G75*
G02*
X143531000Y-78301000I-200000J0D01*
G01*
X141931000Y-78301000D01*
G75*
G02*
X141731000Y-78101000I0J200000D01*
G01*
X141731000Y-77701000D01*
G75*
G02*
X141931000Y-77501000I200000J0D01*
G01*
X143531000Y-77501000D01*
G75*
G02*
X143731000Y-77701000I0J-200000D01*
G01*
G37*
%TD.AperFunction*%
%TO.P,U5,27*%
%TO.N,VBUS*%
%TA.AperFunction,SMDPad,CuDef*%
G36*
G01*
X143731000Y-82781000D02*
X143731000Y-83181000D01*
G75*
G02*
X143531000Y-83381000I-200000J0D01*
G01*
X141931000Y-83381000D01*
G75*
G02*
X141731000Y-83181000I0J200000D01*
G01*
X141731000Y-82781000D01*
G75*
G02*
X141931000Y-82581000I200000J0D01*
G01*
X143531000Y-82581000D01*
G75*
G02*
X143731000Y-82781000I0J-200000D01*
G01*
G37*
%TD.AperFunction*%
%TO.P,U5,33*%
%TO.N,P0.13*%
%TA.AperFunction,SMDPad,CuDef*%
G36*
G01*
X143731000Y-78971000D02*
X143731000Y-79371000D01*
G75*
G02*
X143531000Y-79571000I-200000J0D01*
G01*
X141931000Y-79571000D01*
G75*
G02*
X141731000Y-79371000I0J200000D01*
G01*
X141731000Y-78971000D01*
G75*
G02*
X141931000Y-78771000I200000J0D01*
G01*
X143531000Y-78771000D01*
G75*
G02*
X143731000Y-78971000I0J-200000D01*
G01*
G37*
%TD.AperFunction*%
%TO.P,U5,26*%
%TO.N,RST*%
%TA.AperFunction,SMDPad,CuDef*%
G36*
G01*
X143735000Y-84041000D02*
X143735000Y-84441000D01*
G75*
G02*
X143535000Y-84641000I-200000J0D01*
G01*
X141935000Y-84641000D01*
G75*
G02*
X141735000Y-84441000I0J200000D01*
G01*
X141735000Y-84041000D01*
G75*
G02*
X141935000Y-83841000I200000J0D01*
G01*
X143535000Y-83841000D01*
G75*
G02*
X143735000Y-84041000I0J-200000D01*
G01*
G37*
%TD.AperFunction*%
%TO.P,U5,29*%
%TO.N,NRF_D-*%
%TA.AperFunction,SMDPad,CuDef*%
G36*
G01*
X143731000Y-81511000D02*
X143731000Y-81911000D01*
G75*
G02*
X143531000Y-82111000I-200000J0D01*
G01*
X141931000Y-82111000D01*
G75*
G02*
X141731000Y-81911000I0J200000D01*
G01*
X141731000Y-81511000D01*
G75*
G02*
X141931000Y-81311000I200000J0D01*
G01*
X143531000Y-81311000D01*
G75*
G02*
X143731000Y-81511000I0J-200000D01*
G01*
G37*
%TD.AperFunction*%
%TO.P,U5,1*%
%TO.N,Net-(TP2-Pad1)*%
%TA.AperFunction,SMDPad,CuDef*%
G36*
G01*
X156725000Y-72621000D02*
X156725000Y-73021000D01*
G75*
G02*
X156525000Y-73221000I-200000J0D01*
G01*
X154925000Y-73221000D01*
G75*
G02*
X154725000Y-73021000I0J200000D01*
G01*
X154725000Y-72621000D01*
G75*
G02*
X154925000Y-72421000I200000J0D01*
G01*
X156525000Y-72421000D01*
G75*
G02*
X156725000Y-72621000I0J-200000D01*
G01*
G37*
%TD.AperFunction*%
%TO.P,U5,2*%
%TO.N,P0.25*%
%TA.AperFunction,SMDPad,CuDef*%
G36*
G01*
X156725000Y-73891000D02*
X156725000Y-74291000D01*
G75*
G02*
X156525000Y-74491000I-200000J0D01*
G01*
X154925000Y-74491000D01*
G75*
G02*
X154725000Y-74291000I0J200000D01*
G01*
X154725000Y-73891000D01*
G75*
G02*
X154925000Y-73691000I200000J0D01*
G01*
X156525000Y-73691000D01*
G75*
G02*
X156725000Y-73891000I0J-200000D01*
G01*
G37*
%TD.AperFunction*%
%TO.P,U5,3*%
%TO.N,P0.03*%
%TA.AperFunction,SMDPad,CuDef*%
G36*
G01*
X156725000Y-75161000D02*
X156725000Y-75561000D01*
G75*
G02*
X156525000Y-75761000I-200000J0D01*
G01*
X154925000Y-75761000D01*
G75*
G02*
X154725000Y-75561000I0J200000D01*
G01*
X154725000Y-75161000D01*
G75*
G02*
X154925000Y-74961000I200000J0D01*
G01*
X156525000Y-74961000D01*
G75*
G02*
X156725000Y-75161000I0J-200000D01*
G01*
G37*
%TD.AperFunction*%
%TO.P,U5,4*%
%TO.N,P0.28*%
%TA.AperFunction,SMDPad,CuDef*%
G36*
G01*
X156725000Y-76431000D02*
X156725000Y-76831000D01*
G75*
G02*
X156525000Y-77031000I-200000J0D01*
G01*
X154925000Y-77031000D01*
G75*
G02*
X154725000Y-76831000I0J200000D01*
G01*
X154725000Y-76431000D01*
G75*
G02*
X154925000Y-76231000I200000J0D01*
G01*
X156525000Y-76231000D01*
G75*
G02*
X156725000Y-76431000I0J-200000D01*
G01*
G37*
%TD.AperFunction*%
%TO.P,U5,5*%
%TO.N,GND*%
%TA.AperFunction,SMDPad,CuDef*%
G36*
G01*
X156725000Y-77701000D02*
X156725000Y-78101000D01*
G75*
G02*
X156525000Y-78301000I-200000J0D01*
G01*
X154925000Y-78301000D01*
G75*
G02*
X154725000Y-78101000I0J200000D01*
G01*
X154725000Y-77701000D01*
G75*
G02*
X154925000Y-77501000I200000J0D01*
G01*
X156525000Y-77501000D01*
G75*
G02*
X156725000Y-77701000I0J-200000D01*
G01*
G37*
%TD.AperFunction*%
%TO.P,U5,6*%
%TO.N,P1.05*%
%TA.AperFunction,SMDPad,CuDef*%
G36*
G01*
X156725000Y-78971000D02*
X156725000Y-79371000D01*
G75*
G02*
X156525000Y-79571000I-200000J0D01*
G01*
X154925000Y-79571000D01*
G75*
G02*
X154725000Y-79371000I0J200000D01*
G01*
X154725000Y-78971000D01*
G75*
G02*
X154925000Y-78771000I200000J0D01*
G01*
X156525000Y-78771000D01*
G75*
G02*
X156725000Y-78971000I0J-200000D01*
G01*
G37*
%TD.AperFunction*%
%TO.P,U5,7*%
%TO.N,P0.02*%
%TA.AperFunction,SMDPad,CuDef*%
G36*
G01*
X156725000Y-80241000D02*
X156725000Y-80641000D01*
G75*
G02*
X156525000Y-80841000I-200000J0D01*
G01*
X154925000Y-80841000D01*
G75*
G02*
X154725000Y-80641000I0J200000D01*
G01*
X154725000Y-80241000D01*
G75*
G02*
X154925000Y-80041000I200000J0D01*
G01*
X156525000Y-80041000D01*
G75*
G02*
X156725000Y-80241000I0J-200000D01*
G01*
G37*
%TD.AperFunction*%
%TO.P,U5,8*%
%TO.N,P0.29*%
%TA.AperFunction,SMDPad,CuDef*%
G36*
G01*
X156725000Y-81511000D02*
X156725000Y-81911000D01*
G75*
G02*
X156525000Y-82111000I-200000J0D01*
G01*
X154925000Y-82111000D01*
G75*
G02*
X154725000Y-81911000I0J200000D01*
G01*
X154725000Y-81511000D01*
G75*
G02*
X154925000Y-81311000I200000J0D01*
G01*
X156525000Y-81311000D01*
G75*
G02*
X156725000Y-81511000I0J-200000D01*
G01*
G37*
%TD.AperFunction*%
%TO.P,U5,9*%
%TO.N,P0.31*%
%TA.AperFunction,SMDPad,CuDef*%
G36*
G01*
X156725000Y-82781000D02*
X156725000Y-83181000D01*
G75*
G02*
X156525000Y-83381000I-200000J0D01*
G01*
X154925000Y-83381000D01*
G75*
G02*
X154725000Y-83181000I0J200000D01*
G01*
X154725000Y-82781000D01*
G75*
G02*
X154925000Y-82581000I200000J0D01*
G01*
X156525000Y-82581000D01*
G75*
G02*
X156725000Y-82781000I0J-200000D01*
G01*
G37*
%TD.AperFunction*%
%TO.P,U5,10*%
%TO.N,P0.30*%
%TA.AperFunction,SMDPad,CuDef*%
G36*
G01*
X156725000Y-84051000D02*
X156725000Y-84451000D01*
G75*
G02*
X156525000Y-84651000I-200000J0D01*
G01*
X154925000Y-84651000D01*
G75*
G02*
X154725000Y-84451000I0J200000D01*
G01*
X154725000Y-84051000D01*
G75*
G02*
X154925000Y-83851000I200000J0D01*
G01*
X156525000Y-83851000D01*
G75*
G02*
X156725000Y-84051000I0J-200000D01*
G01*
G37*
%TD.AperFunction*%
%TD*%
D10*
%TO.P,D7,1*%
%TO.N,VDD*%
X153911500Y-100367000D03*
%TO.P,D7,2*%
%TO.N,N/C*%
X157111500Y-100367000D03*
%TO.P,D7,4*%
%TO.N,P0.04*%
X153911500Y-95467000D03*
%TO.P,D7,3*%
%TO.N,GND*%
X157111500Y-95467000D03*
%TD*%
D11*
%TO.P,J6,10*%
%TO.N,RST*%
X151220000Y-107823000D03*
%TO.P,J6,9*%
%TO.N,GND*%
X147320000Y-107823000D03*
%TO.P,J6,8*%
%TO.N,N/C*%
X151220000Y-106553000D03*
%TO.P,J6,7*%
X147320000Y-106553000D03*
%TO.P,J6,6*%
%TO.N,SWO*%
X151220000Y-105283000D03*
%TO.P,J6,5*%
%TO.N,GND*%
X147320000Y-105283000D03*
%TO.P,J6,4*%
%TO.N,SWC*%
X151220000Y-104013000D03*
%TO.P,J6,3*%
%TO.N,GND*%
X147320000Y-104013000D03*
%TO.P,J6,2*%
%TO.N,SWD*%
X151220000Y-102743000D03*
%TO.P,J6,1*%
%TO.N,VDD*%
X147320000Y-102743000D03*
%TD*%
%TO.P,R8,2*%
%TO.N,Net-(D8-Pad1)*%
%TA.AperFunction,SMDPad,CuDef*%
G36*
G01*
X140673500Y-109557000D02*
X140123500Y-109557000D01*
G75*
G02*
X139923500Y-109357000I0J200000D01*
G01*
X139923500Y-108957000D01*
G75*
G02*
X140123500Y-108757000I200000J0D01*
G01*
X140673500Y-108757000D01*
G75*
G02*
X140873500Y-108957000I0J-200000D01*
G01*
X140873500Y-109357000D01*
G75*
G02*
X140673500Y-109557000I-200000J0D01*
G01*
G37*
%TD.AperFunction*%
%TO.P,R8,1*%
%TO.N,GND*%
%TA.AperFunction,SMDPad,CuDef*%
G36*
G01*
X140673500Y-111207000D02*
X140123500Y-111207000D01*
G75*
G02*
X139923500Y-111007000I0J200000D01*
G01*
X139923500Y-110607000D01*
G75*
G02*
X140123500Y-110407000I200000J0D01*
G01*
X140673500Y-110407000D01*
G75*
G02*
X140873500Y-110607000I0J-200000D01*
G01*
X140873500Y-111007000D01*
G75*
G02*
X140673500Y-111207000I-200000J0D01*
G01*
G37*
%TD.AperFunction*%
%TD*%
%TO.P,D8,2*%
%TO.N,Net-(D8-Pad2)*%
%TA.AperFunction,SMDPad,CuDef*%
G36*
G01*
X140654750Y-106609500D02*
X140142250Y-106609500D01*
G75*
G02*
X139923500Y-106390750I0J218750D01*
G01*
X139923500Y-105953250D01*
G75*
G02*
X140142250Y-105734500I218750J0D01*
G01*
X140654750Y-105734500D01*
G75*
G02*
X140873500Y-105953250I0J-218750D01*
G01*
X140873500Y-106390750D01*
G75*
G02*
X140654750Y-106609500I-218750J0D01*
G01*
G37*
%TD.AperFunction*%
%TO.P,D8,1*%
%TO.N,Net-(D8-Pad1)*%
%TA.AperFunction,SMDPad,CuDef*%
G36*
G01*
X140654750Y-108184500D02*
X140142250Y-108184500D01*
G75*
G02*
X139923500Y-107965750I0J218750D01*
G01*
X139923500Y-107528250D01*
G75*
G02*
X140142250Y-107309500I218750J0D01*
G01*
X140654750Y-107309500D01*
G75*
G02*
X140873500Y-107528250I0J-218750D01*
G01*
X140873500Y-107965750D01*
G75*
G02*
X140654750Y-108184500I-218750J0D01*
G01*
G37*
%TD.AperFunction*%
%TD*%
%TO.P,R7,2*%
%TO.N,P0.15*%
%TA.AperFunction,SMDPad,CuDef*%
G36*
G01*
X141965000Y-91865000D02*
X142515000Y-91865000D01*
G75*
G02*
X142715000Y-92065000I0J-200000D01*
G01*
X142715000Y-92465000D01*
G75*
G02*
X142515000Y-92665000I-200000J0D01*
G01*
X141965000Y-92665000D01*
G75*
G02*
X141765000Y-92465000I0J200000D01*
G01*
X141765000Y-92065000D01*
G75*
G02*
X141965000Y-91865000I200000J0D01*
G01*
G37*
%TD.AperFunction*%
%TO.P,R7,1*%
%TO.N,Net-(D6-Pad1)*%
%TA.AperFunction,SMDPad,CuDef*%
G36*
G01*
X141965000Y-90215000D02*
X142515000Y-90215000D01*
G75*
G02*
X142715000Y-90415000I0J-200000D01*
G01*
X142715000Y-90815000D01*
G75*
G02*
X142515000Y-91015000I-200000J0D01*
G01*
X141965000Y-91015000D01*
G75*
G02*
X141765000Y-90815000I0J200000D01*
G01*
X141765000Y-90415000D01*
G75*
G02*
X141965000Y-90215000I200000J0D01*
G01*
G37*
%TD.AperFunction*%
%TD*%
D12*
%TO.P,Y1,3*%
%TO.N,N/C*%
X156843500Y-90868500D03*
D13*
%TO.P,Y1,2*%
%TO.N,Net-(C8-Pad1)*%
X151243500Y-90368500D03*
%TO.P,Y1,1*%
%TO.N,Net-(C7-Pad1)*%
X151243500Y-91368500D03*
%TD*%
%TO.P,C7,2*%
%TO.N,GND*%
%TA.AperFunction,SMDPad,CuDef*%
G36*
G01*
X148188500Y-91507500D02*
X148188500Y-92007500D01*
G75*
G02*
X147963500Y-92232500I-225000J0D01*
G01*
X147513500Y-92232500D01*
G75*
G02*
X147288500Y-92007500I0J225000D01*
G01*
X147288500Y-91507500D01*
G75*
G02*
X147513500Y-91282500I225000J0D01*
G01*
X147963500Y-91282500D01*
G75*
G02*
X148188500Y-91507500I0J-225000D01*
G01*
G37*
%TD.AperFunction*%
%TO.P,C7,1*%
%TO.N,Net-(C7-Pad1)*%
%TA.AperFunction,SMDPad,CuDef*%
G36*
G01*
X149738500Y-91507500D02*
X149738500Y-92007500D01*
G75*
G02*
X149513500Y-92232500I-225000J0D01*
G01*
X149063500Y-92232500D01*
G75*
G02*
X148838500Y-92007500I0J225000D01*
G01*
X148838500Y-91507500D01*
G75*
G02*
X149063500Y-91282500I225000J0D01*
G01*
X149513500Y-91282500D01*
G75*
G02*
X149738500Y-91507500I0J-225000D01*
G01*
G37*
%TD.AperFunction*%
%TD*%
D14*
%TO.P,SW2,2*%
%TO.N,GND*%
X144188000Y-96515500D03*
X140038000Y-96515500D03*
%TO.P,SW2,1*%
%TO.N,RST*%
X144188000Y-94365500D03*
X140038000Y-94365500D03*
%TD*%
%TO.P,R5,2*%
%TO.N,VDD*%
%TA.AperFunction,SMDPad,CuDef*%
G36*
G01*
X144672500Y-91228500D02*
X144672500Y-91778500D01*
G75*
G02*
X144472500Y-91978500I-200000J0D01*
G01*
X144072500Y-91978500D01*
G75*
G02*
X143872500Y-91778500I0J200000D01*
G01*
X143872500Y-91228500D01*
G75*
G02*
X144072500Y-91028500I200000J0D01*
G01*
X144472500Y-91028500D01*
G75*
G02*
X144672500Y-91228500I0J-200000D01*
G01*
G37*
%TD.AperFunction*%
%TO.P,R5,1*%
%TO.N,RST*%
%TA.AperFunction,SMDPad,CuDef*%
G36*
G01*
X146322500Y-91228500D02*
X146322500Y-91778500D01*
G75*
G02*
X146122500Y-91978500I-200000J0D01*
G01*
X145722500Y-91978500D01*
G75*
G02*
X145522500Y-91778500I0J200000D01*
G01*
X145522500Y-91228500D01*
G75*
G02*
X145722500Y-91028500I200000J0D01*
G01*
X146122500Y-91028500D01*
G75*
G02*
X146322500Y-91228500I0J-200000D01*
G01*
G37*
%TD.AperFunction*%
%TD*%
%TO.P,D6,2*%
%TO.N,VDD*%
%TA.AperFunction,SMDPad,CuDef*%
G36*
G01*
X142496250Y-88042000D02*
X141983750Y-88042000D01*
G75*
G02*
X141765000Y-87823250I0J218750D01*
G01*
X141765000Y-87385750D01*
G75*
G02*
X141983750Y-87167000I218750J0D01*
G01*
X142496250Y-87167000D01*
G75*
G02*
X142715000Y-87385750I0J-218750D01*
G01*
X142715000Y-87823250D01*
G75*
G02*
X142496250Y-88042000I-218750J0D01*
G01*
G37*
%TD.AperFunction*%
%TO.P,D6,1*%
%TO.N,Net-(D6-Pad1)*%
%TA.AperFunction,SMDPad,CuDef*%
G36*
G01*
X142496250Y-89617000D02*
X141983750Y-89617000D01*
G75*
G02*
X141765000Y-89398250I0J218750D01*
G01*
X141765000Y-88960750D01*
G75*
G02*
X141983750Y-88742000I218750J0D01*
G01*
X142496250Y-88742000D01*
G75*
G02*
X142715000Y-88960750I0J-218750D01*
G01*
X142715000Y-89398250D01*
G75*
G02*
X142496250Y-89617000I-218750J0D01*
G01*
G37*
%TD.AperFunction*%
%TD*%
D15*
%TO.P,J1,6*%
%TO.N,Net-(J1-Pad6)*%
X144445000Y-116955000D03*
X142525000Y-116955000D03*
D16*
X146215000Y-116685000D03*
X140755000Y-116685000D03*
D17*
X145905000Y-113685000D03*
X141065000Y-113685000D03*
D18*
%TO.P,J1,5*%
%TO.N,GND*%
X144785000Y-113805000D03*
%TO.P,J1,4*%
%TO.N,N/C*%
X144135000Y-113805000D03*
%TO.P,J1,3*%
%TO.N,/UART_D+*%
X143485000Y-113805000D03*
%TO.P,J1,2*%
%TO.N,/UART_D-*%
X142835000Y-113805000D03*
%TO.P,J1,1*%
%TO.N,/USB1VBUS*%
X142185000Y-113805000D03*
D19*
%TO.P,J1,6*%
%TO.N,Net-(J1-Pad6)*%
X146385000Y-113685000D03*
X140635000Y-113705000D03*
D20*
X146485000Y-115005000D03*
X140535000Y-115005000D03*
D21*
X140755000Y-115755000D03*
X146235000Y-115755000D03*
%TD*%
D15*
%TO.P,J2,6*%
%TO.N,Net-(J1-Pad6)*%
X155829000Y-116967000D03*
X153909000Y-116967000D03*
D16*
X157599000Y-116697000D03*
X152139000Y-116697000D03*
D17*
X157289000Y-113697000D03*
X152449000Y-113697000D03*
D18*
%TO.P,J2,5*%
%TO.N,GND*%
X156169000Y-113817000D03*
%TO.P,J2,4*%
%TO.N,N/C*%
X155519000Y-113817000D03*
%TO.P,J2,3*%
%TO.N,NRF_D+*%
X154869000Y-113817000D03*
%TO.P,J2,2*%
%TO.N,NRF_D-*%
X154219000Y-113817000D03*
%TO.P,J2,1*%
%TO.N,/USB2VBUS*%
X153569000Y-113817000D03*
D19*
%TO.P,J2,6*%
%TO.N,Net-(J1-Pad6)*%
X157769000Y-113697000D03*
X152019000Y-113717000D03*
D20*
X157869000Y-115017000D03*
X151919000Y-115017000D03*
D21*
X152139000Y-115767000D03*
X157619000Y-115767000D03*
%TD*%
D22*
%TO.P,J5,18*%
%TO.N,VBUS*%
X160655000Y-116586000D03*
%TO.P,J5,17*%
%TO.N,GND*%
X160655000Y-114046000D03*
%TO.P,J5,16*%
X160655000Y-111506000D03*
%TO.P,J5,15*%
%TO.N,VDD*%
X160655000Y-108966000D03*
%TO.P,J5,14*%
%TO.N,P0.04*%
X160655000Y-106426000D03*
%TO.P,J5,13*%
%TO.N,P1.09*%
X160655000Y-103886000D03*
%TO.P,J5,12*%
%TO.N,P0.08*%
X160655000Y-101346000D03*
%TO.P,J5,11*%
%TO.N,P0.05*%
X160655000Y-98806000D03*
%TO.P,J5,10*%
%TO.N,P0.06*%
X160655000Y-96266000D03*
%TO.P,J5,9*%
%TO.N,P0.26*%
X160655000Y-93726000D03*
%TO.P,J5,8*%
%TO.N,P0.30*%
X160655000Y-91186000D03*
%TO.P,J5,7*%
%TO.N,P0.31*%
X160655000Y-88646000D03*
%TO.P,J5,6*%
%TO.N,P0.29*%
X160655000Y-86106000D03*
%TO.P,J5,5*%
%TO.N,P0.02*%
X160655000Y-83566000D03*
%TO.P,J5,4*%
%TO.N,P1.05*%
X160655000Y-81026000D03*
%TO.P,J5,3*%
%TO.N,P0.28*%
X160655000Y-78486000D03*
%TO.P,J5,2*%
%TO.N,P0.03*%
X160655000Y-75946000D03*
D23*
%TO.P,J5,1*%
%TO.N,P0.25*%
X160655000Y-73406000D03*
%TD*%
%TO.P,R6,2*%
%TO.N,P0.13*%
%TA.AperFunction,SMDPad,CuDef*%
G36*
G01*
X140314000Y-91865000D02*
X140864000Y-91865000D01*
G75*
G02*
X141064000Y-92065000I0J-200000D01*
G01*
X141064000Y-92465000D01*
G75*
G02*
X140864000Y-92665000I-200000J0D01*
G01*
X140314000Y-92665000D01*
G75*
G02*
X140114000Y-92465000I0J200000D01*
G01*
X140114000Y-92065000D01*
G75*
G02*
X140314000Y-91865000I200000J0D01*
G01*
G37*
%TD.AperFunction*%
%TO.P,R6,1*%
%TO.N,Net-(D5-Pad1)*%
%TA.AperFunction,SMDPad,CuDef*%
G36*
G01*
X140314000Y-90215000D02*
X140864000Y-90215000D01*
G75*
G02*
X141064000Y-90415000I0J-200000D01*
G01*
X141064000Y-90815000D01*
G75*
G02*
X140864000Y-91015000I-200000J0D01*
G01*
X140314000Y-91015000D01*
G75*
G02*
X140114000Y-90815000I0J200000D01*
G01*
X140114000Y-90415000D01*
G75*
G02*
X140314000Y-90215000I200000J0D01*
G01*
G37*
%TD.AperFunction*%
%TD*%
%TO.P,D5,2*%
%TO.N,VDD*%
%TA.AperFunction,SMDPad,CuDef*%
G36*
G01*
X140845250Y-88042000D02*
X140332750Y-88042000D01*
G75*
G02*
X140114000Y-87823250I0J218750D01*
G01*
X140114000Y-87385750D01*
G75*
G02*
X140332750Y-87167000I218750J0D01*
G01*
X140845250Y-87167000D01*
G75*
G02*
X141064000Y-87385750I0J-218750D01*
G01*
X141064000Y-87823250D01*
G75*
G02*
X140845250Y-88042000I-218750J0D01*
G01*
G37*
%TD.AperFunction*%
%TO.P,D5,1*%
%TO.N,Net-(D5-Pad1)*%
%TA.AperFunction,SMDPad,CuDef*%
G36*
G01*
X140845250Y-89617000D02*
X140332750Y-89617000D01*
G75*
G02*
X140114000Y-89398250I0J218750D01*
G01*
X140114000Y-88960750D01*
G75*
G02*
X140332750Y-88742000I218750J0D01*
G01*
X140845250Y-88742000D01*
G75*
G02*
X141064000Y-88960750I0J-218750D01*
G01*
X141064000Y-89398250D01*
G75*
G02*
X140845250Y-89617000I-218750J0D01*
G01*
G37*
%TD.AperFunction*%
%TD*%
D22*
%TO.P,J4,18*%
%TO.N,VBUS*%
X137795000Y-116586000D03*
%TO.P,J4,17*%
%TO.N,GND*%
X137795000Y-114046000D03*
%TO.P,J4,16*%
X137795000Y-111506000D03*
%TO.P,J4,15*%
%TO.N,VDD*%
X137795000Y-108966000D03*
%TO.P,J4,14*%
%TO.N,P0.12*%
X137795000Y-106426000D03*
%TO.P,J4,13*%
%TO.N,P0.07*%
X137795000Y-103886000D03*
%TO.P,J4,12*%
%TO.N,P0.15*%
X137795000Y-101346000D03*
%TO.P,J4,11*%
%TO.N,P0.17*%
X137795000Y-98806000D03*
%TO.P,J4,10*%
%TO.N,P0.20*%
X137795000Y-96266000D03*
%TO.P,J4,9*%
%TO.N,P0.13*%
X137795000Y-93726000D03*
%TO.P,J4,8*%
%TO.N,P0.22*%
X137795000Y-91186000D03*
%TO.P,J4,7*%
%TO.N,P0.24*%
X137795000Y-88646000D03*
%TO.P,J4,6*%
%TO.N,SWO*%
X137795000Y-86106000D03*
%TO.P,J4,5*%
%TO.N,P1.02*%
X137795000Y-83566000D03*
%TO.P,J4,4*%
%TO.N,P1.04*%
X137795000Y-81026000D03*
%TO.P,J4,3*%
%TO.N,P0.09*%
X137795000Y-78486000D03*
%TO.P,J4,2*%
%TO.N,P1.06*%
X137795000Y-75946000D03*
D23*
%TO.P,J4,1*%
%TO.N,P0.10*%
X137795000Y-73406000D03*
%TD*%
D24*
%TO.P,TP1,1*%
%TO.N,Net-(TP1-Pad1)*%
X144780000Y-88950800D03*
%TD*%
%TO.P,D4,2*%
%TO.N,Net-(D4-Pad2)*%
%TA.AperFunction,SMDPad,CuDef*%
G36*
G01*
X155005750Y-106076000D02*
X154493250Y-106076000D01*
G75*
G02*
X154274500Y-105857250I0J218750D01*
G01*
X154274500Y-105419750D01*
G75*
G02*
X154493250Y-105201000I218750J0D01*
G01*
X155005750Y-105201000D01*
G75*
G02*
X155224500Y-105419750I0J-218750D01*
G01*
X155224500Y-105857250D01*
G75*
G02*
X155005750Y-106076000I-218750J0D01*
G01*
G37*
%TD.AperFunction*%
%TO.P,D4,1*%
%TO.N,Net-(D4-Pad1)*%
%TA.AperFunction,SMDPad,CuDef*%
G36*
G01*
X155005750Y-107651000D02*
X154493250Y-107651000D01*
G75*
G02*
X154274500Y-107432250I0J218750D01*
G01*
X154274500Y-106994750D01*
G75*
G02*
X154493250Y-106776000I218750J0D01*
G01*
X155005750Y-106776000D01*
G75*
G02*
X155224500Y-106994750I0J-218750D01*
G01*
X155224500Y-107432250D01*
G75*
G02*
X155005750Y-107651000I-218750J0D01*
G01*
G37*
%TD.AperFunction*%
%TD*%
%TO.P,R4,2*%
%TO.N,Net-(D4-Pad2)*%
%TA.AperFunction,SMDPad,CuDef*%
G36*
G01*
X154642000Y-108881500D02*
X154642000Y-109431500D01*
G75*
G02*
X154442000Y-109631500I-200000J0D01*
G01*
X154042000Y-109631500D01*
G75*
G02*
X153842000Y-109431500I0J200000D01*
G01*
X153842000Y-108881500D01*
G75*
G02*
X154042000Y-108681500I200000J0D01*
G01*
X154442000Y-108681500D01*
G75*
G02*
X154642000Y-108881500I0J-200000D01*
G01*
G37*
%TD.AperFunction*%
%TO.P,R4,1*%
%TO.N,VBUS*%
%TA.AperFunction,SMDPad,CuDef*%
G36*
G01*
X156292000Y-108881500D02*
X156292000Y-109431500D01*
G75*
G02*
X156092000Y-109631500I-200000J0D01*
G01*
X155692000Y-109631500D01*
G75*
G02*
X155492000Y-109431500I0J200000D01*
G01*
X155492000Y-108881500D01*
G75*
G02*
X155692000Y-108681500I200000J0D01*
G01*
X156092000Y-108681500D01*
G75*
G02*
X156292000Y-108881500I0J-200000D01*
G01*
G37*
%TD.AperFunction*%
%TD*%
%TO.P,R1,2*%
%TO.N,GND*%
%TA.AperFunction,SMDPad,CuDef*%
G36*
G01*
X148950000Y-114916000D02*
X149500000Y-114916000D01*
G75*
G02*
X149700000Y-115116000I0J-200000D01*
G01*
X149700000Y-115516000D01*
G75*
G02*
X149500000Y-115716000I-200000J0D01*
G01*
X148950000Y-115716000D01*
G75*
G02*
X148750000Y-115516000I0J200000D01*
G01*
X148750000Y-115116000D01*
G75*
G02*
X148950000Y-114916000I200000J0D01*
G01*
G37*
%TD.AperFunction*%
%TO.P,R1,1*%
%TO.N,Net-(J1-Pad6)*%
%TA.AperFunction,SMDPad,CuDef*%
G36*
G01*
X148950000Y-113266000D02*
X149500000Y-113266000D01*
G75*
G02*
X149700000Y-113466000I0J-200000D01*
G01*
X149700000Y-113866000D01*
G75*
G02*
X149500000Y-114066000I-200000J0D01*
G01*
X148950000Y-114066000D01*
G75*
G02*
X148750000Y-113866000I0J200000D01*
G01*
X148750000Y-113466000D01*
G75*
G02*
X148950000Y-113266000I200000J0D01*
G01*
G37*
%TD.AperFunction*%
%TD*%
D22*
%TO.P,J7,6*%
%TO.N,SWC*%
X150495000Y-99441000D03*
%TO.P,J7,5*%
%TO.N,GND*%
X147955000Y-99441000D03*
%TO.P,J7,4*%
%TO.N,SWD*%
X150495000Y-96901000D03*
%TO.P,J7,3*%
%TO.N,RST*%
X147955000Y-96901000D03*
%TO.P,J7,2*%
%TO.N,VDD*%
X150495000Y-94361000D03*
D23*
%TO.P,J7,1*%
%TO.N,SWO*%
X147955000Y-94361000D03*
%TD*%
D22*
%TO.P,J3,2*%
%TO.N,VBAT*%
X157429200Y-106426000D03*
D23*
%TO.P,J3,1*%
%TO.N,GND*%
X157429200Y-103886000D03*
%TD*%
D14*
%TO.P,SW1,2*%
%TO.N,GND*%
X144188000Y-103818000D03*
X140038000Y-103818000D03*
%TO.P,SW1,1*%
%TO.N,P0.12*%
X144188000Y-101668000D03*
X140038000Y-101668000D03*
%TD*%
%TO.P,C8,2*%
%TO.N,GND*%
%TA.AperFunction,SMDPad,CuDef*%
G36*
G01*
X148188500Y-89920000D02*
X148188500Y-90420000D01*
G75*
G02*
X147963500Y-90645000I-225000J0D01*
G01*
X147513500Y-90645000D01*
G75*
G02*
X147288500Y-90420000I0J225000D01*
G01*
X147288500Y-89920000D01*
G75*
G02*
X147513500Y-89695000I225000J0D01*
G01*
X147963500Y-89695000D01*
G75*
G02*
X148188500Y-89920000I0J-225000D01*
G01*
G37*
%TD.AperFunction*%
%TO.P,C8,1*%
%TO.N,Net-(C8-Pad1)*%
%TA.AperFunction,SMDPad,CuDef*%
G36*
G01*
X149738500Y-89920000D02*
X149738500Y-90420000D01*
G75*
G02*
X149513500Y-90645000I-225000J0D01*
G01*
X149063500Y-90645000D01*
G75*
G02*
X148838500Y-90420000I0J225000D01*
G01*
X148838500Y-89920000D01*
G75*
G02*
X149063500Y-89695000I225000J0D01*
G01*
X149513500Y-89695000D01*
G75*
G02*
X149738500Y-89920000I0J-225000D01*
G01*
G37*
%TD.AperFunction*%
%TD*%
D24*
%TO.P,TP2,1*%
%TO.N,Net-(TP2-Pad1)*%
X157988000Y-72885300D03*
%TD*%
D25*
%TO.N,GND*%
X157861000Y-77851000D03*
X156210000Y-112217200D03*
X149199600Y-116789200D03*
X144722307Y-111850410D03*
X144477990Y-85219154D03*
X148212011Y-88831378D03*
X144221200Y-100330000D03*
X159512000Y-112776000D03*
X152258160Y-109033545D03*
X149288500Y-104648000D03*
X157704968Y-96012000D03*
X149199600Y-116789200D03*
X150622000Y-78549500D03*
X144843500Y-81280000D03*
X150558500Y-81343500D03*
X142960582Y-109581932D03*
%TO.N,VBUS*%
X155244800Y-110084002D03*
X141400540Y-85234774D03*
X147984500Y-108793002D03*
%TO.N,VDD*%
X140463272Y-86417191D03*
X149612022Y-88585956D03*
X149012593Y-102696254D03*
X145478500Y-92837000D03*
X155448000Y-100393500D03*
X146113500Y-78549500D03*
X141452600Y-97066100D03*
X141427200Y-98031300D03*
X144145000Y-97472500D03*
X143662400Y-98336100D03*
%TO.N,SWD*%
X141427200Y-95542100D03*
%TO.N,SWC*%
X152463500Y-79057500D03*
%TO.N,RST*%
X142600553Y-85540473D03*
X144591010Y-90115484D03*
X153136600Y-96989900D03*
%TO.N,VDDH*%
X144526000Y-106616500D03*
X146507200Y-88849200D03*
X145240906Y-103207837D03*
X145338800Y-98463100D03*
%TO.N,P0.15*%
X144932400Y-83566000D03*
X140640862Y-93333362D03*
%TO.N,P0.12*%
X148675856Y-83486280D03*
X149199600Y-100723700D03*
%TO.N,P0.08*%
X152209500Y-83502500D03*
X157530482Y-97930018D03*
%TO.N,P0.06*%
X153924000Y-104394000D03*
X155371800Y-101714300D03*
%TO.N,P0.05*%
X151407938Y-88433035D03*
X152844500Y-92519500D03*
%TO.N,P0.07*%
X146100800Y-83312000D03*
X142456943Y-108718004D03*
%TO.N,Net-(D4-Pad1)*%
X157226000Y-108153200D03*
%TO.N,P0.20*%
X145883409Y-76541425D03*
%TO.N,P0.17*%
X145034000Y-78803500D03*
%TO.N,P0.04*%
X156011498Y-94932500D03*
X150304500Y-83502500D03*
%TO.N,P1.09*%
X150546752Y-88941347D03*
X153924000Y-93916500D03*
%TO.N,P1.06*%
X146538950Y-72751950D03*
%TO.N,P1.04*%
X145323172Y-73271577D03*
%TO.N,P1.02*%
X144431499Y-73724283D03*
%TO.N,SWO*%
X152241250Y-75914250D03*
X144781647Y-74660990D03*
%TO.N,P0.25*%
X157949100Y-74091000D03*
%TO.N,P0.24*%
X140868896Y-78384896D03*
%TO.N,P0.22*%
X148463000Y-75946000D03*
%TO.N,/UART_D-*%
X142759388Y-112164002D03*
%TO.N,/UART_D+*%
X143774106Y-112168119D03*
%TO.N,/USB1VBUS*%
X141478000Y-112268000D03*
%TO.N,/USB2VBUS*%
X153416000Y-111887000D03*
%TO.N,Net-(D8-Pad2)*%
X141478000Y-108064300D03*
%TD*%
D26*
%TO.N,GND*%
X155725000Y-77901000D02*
X157811000Y-77901000D01*
X157811000Y-77901000D02*
X157861000Y-77851000D01*
D27*
X156169000Y-113817000D02*
X156169000Y-112258200D01*
X156169000Y-112258200D02*
X156210000Y-112217200D01*
X149225000Y-115316000D02*
X149225000Y-116763800D01*
X149225000Y-116763800D02*
X149199600Y-116789200D01*
X144785000Y-113805000D02*
X144785000Y-111913103D01*
X144785000Y-111913103D02*
X144722307Y-111850410D01*
X145415000Y-84751000D02*
X144946144Y-84751000D01*
X147315000Y-86841000D02*
X147315000Y-87934367D01*
X147315000Y-87934367D02*
X148212011Y-88831378D01*
X147320000Y-104013000D02*
X147360458Y-104013000D01*
X148653500Y-104013000D02*
X149288500Y-104648000D01*
X147320000Y-104013000D02*
X148653500Y-104013000D01*
X148653500Y-105283000D02*
X149288500Y-104648000D01*
X147320000Y-105283000D02*
X148653500Y-105283000D01*
X147738500Y-91757500D02*
X147738500Y-90170000D01*
X147738500Y-89304889D02*
X148212011Y-88831378D01*
X147738500Y-90170000D02*
X147738500Y-89304889D01*
X157139283Y-96012000D02*
X157704968Y-96012000D01*
X157111500Y-96038500D02*
X157138000Y-96012000D01*
X157138000Y-96012000D02*
X157139283Y-96012000D01*
X144946144Y-84751000D02*
X144477990Y-85219154D01*
X147320000Y-104013000D02*
X147164489Y-104168511D01*
X144983011Y-104168511D02*
X144632500Y-103818000D01*
X147164489Y-104168511D02*
X144983011Y-104168511D01*
X145986500Y-107823000D02*
X147320000Y-107823000D01*
X145669000Y-107823000D02*
X145986500Y-107823000D01*
X145478500Y-105473500D02*
X145478500Y-107632500D01*
X147320000Y-105283000D02*
X145669000Y-105283000D01*
X145478500Y-107632500D02*
X145669000Y-107823000D01*
X145669000Y-105283000D02*
X145478500Y-105473500D01*
X138494000Y-110807000D02*
X137795000Y-111506000D01*
X140398500Y-110807000D02*
X138494000Y-110807000D01*
X145029500Y-96515500D02*
X147955000Y-99441000D01*
X144188000Y-96515500D02*
X145029500Y-96515500D01*
%TO.N,VBUS*%
X155269200Y-110059602D02*
X155244800Y-110084002D01*
X141731000Y-82981000D02*
X141000541Y-83711459D01*
X141000541Y-84834775D02*
X141400540Y-85234774D01*
X142731000Y-82981000D02*
X141731000Y-82981000D01*
X141000541Y-83711459D02*
X141000541Y-84834775D01*
X155244800Y-109803700D02*
X155892000Y-109156500D01*
X155244800Y-110084002D02*
X155244800Y-109803700D01*
%TO.N,VDD*%
X148585000Y-87558934D02*
X149612022Y-88585956D01*
X148585000Y-86841000D02*
X148585000Y-87558934D01*
X148965847Y-102743000D02*
X149012593Y-102696254D01*
X147320000Y-102743000D02*
X148965847Y-102743000D01*
D26*
X140463272Y-87478772D02*
X140589000Y-87604500D01*
D27*
X144272500Y-91631000D02*
X145478500Y-92837000D01*
X144272500Y-91503500D02*
X144272500Y-91631000D01*
X155421500Y-100367000D02*
X155448000Y-100393500D01*
X153911500Y-100367000D02*
X155421500Y-100367000D01*
D26*
X140589000Y-87604500D02*
X142240000Y-87604500D01*
X140463272Y-86417191D02*
X140463272Y-87478772D01*
%TO.N,SWD*%
X151220000Y-102743000D02*
X151220000Y-102221200D01*
X151220000Y-102221200D02*
X151841200Y-101600000D01*
X151841200Y-98247200D02*
X150495000Y-96901000D01*
X151841200Y-101600000D02*
X151841200Y-98247200D01*
X142731000Y-76631000D02*
X141352002Y-76631000D01*
X141352002Y-76631000D02*
X138107003Y-79875999D01*
X138107003Y-79875999D02*
X137242999Y-79875999D01*
X137242999Y-79875999D02*
X136644999Y-80473999D01*
X141427200Y-95542100D02*
X141001099Y-95115999D01*
X136644999Y-80473999D02*
X136644999Y-94507701D01*
X137253297Y-95115999D02*
X136644999Y-94507701D01*
X141001099Y-95115999D02*
X137253297Y-95115999D01*
%TO.N,SWC*%
X149719999Y-102077505D02*
X150495000Y-101302504D01*
X150495000Y-101302504D02*
X150495000Y-99441000D01*
X149719999Y-103912999D02*
X149719999Y-102077505D01*
X149820000Y-104013000D02*
X149719999Y-103912999D01*
X151220000Y-104013000D02*
X149820000Y-104013000D01*
X142731000Y-75361000D02*
X146544500Y-75361000D01*
X146544500Y-75361000D02*
X148463000Y-77279500D01*
X148463000Y-77279500D02*
X150685500Y-77279500D01*
X150685500Y-77279500D02*
X152463500Y-79057500D01*
%TO.N,RST*%
X142735000Y-84241000D02*
X142735000Y-85406026D01*
X142735000Y-85406026D02*
X142600553Y-85540473D01*
X144591010Y-90115484D02*
X145677984Y-90115484D01*
X145922500Y-90360000D02*
X145922500Y-91503500D01*
X145677984Y-90115484D02*
X145922500Y-90360000D01*
X146761200Y-95707200D02*
X147955000Y-96901000D01*
X145922500Y-91503500D02*
X145922500Y-92012659D01*
X145922500Y-92012659D02*
X146761200Y-92851359D01*
X146753000Y-94175000D02*
X146761200Y-94183200D01*
X146761200Y-92851359D02*
X146761200Y-94183200D01*
X146744000Y-94365500D02*
X146761200Y-94348300D01*
X144632500Y-94365500D02*
X146744000Y-94365500D01*
X146761200Y-94183200D02*
X146761200Y-94348300D01*
X146761200Y-94348300D02*
X146761200Y-95707200D01*
X153120012Y-104788690D02*
X153120012Y-102066012D01*
X152720001Y-107722999D02*
X152720001Y-105188701D01*
X153120012Y-102066012D02*
X153035000Y-101981000D01*
X151220000Y-107823000D02*
X152620000Y-107823000D01*
X152720001Y-105188701D02*
X153120012Y-104788690D01*
X152620000Y-107823000D02*
X152720001Y-107722999D01*
X152781000Y-101727000D02*
X153120012Y-102066012D01*
X152781000Y-98488500D02*
X152781000Y-101727000D01*
X152781000Y-98488500D02*
X152781000Y-97345500D01*
X152781000Y-97345500D02*
X153136600Y-96989900D01*
D27*
%TO.N,VDDH*%
X146045000Y-86841000D02*
X146045000Y-88387000D01*
X146045000Y-88387000D02*
X146507200Y-88849200D01*
D26*
%TO.N,P0.15*%
X144845000Y-83478600D02*
X144932400Y-83566000D01*
X142240000Y-92265000D02*
X142240000Y-92218990D01*
X142240000Y-92265000D02*
X141171638Y-93333362D01*
X141171638Y-93333362D02*
X140640862Y-93333362D01*
X144932400Y-83566000D02*
X144932400Y-83223100D01*
X144932400Y-83223100D02*
X145796000Y-82359500D01*
X153603500Y-82359500D02*
X153605000Y-82361000D01*
X145796000Y-82359500D02*
X153603500Y-82359500D01*
%TO.N,P0.13*%
X142858000Y-79171000D02*
X141858000Y-79171000D01*
X139256000Y-92265000D02*
X137795000Y-93726000D01*
X141118794Y-79171000D02*
X139446000Y-80843794D01*
X142731000Y-79171000D02*
X141118794Y-79171000D01*
X139446000Y-92264500D02*
X139446500Y-92265000D01*
X140589000Y-92265000D02*
X139446500Y-92265000D01*
X139446000Y-80843794D02*
X139446000Y-92264500D01*
X139446500Y-92265000D02*
X139256000Y-92265000D01*
%TO.N,P0.12*%
X147955000Y-84207136D02*
X148675856Y-83486280D01*
X147955000Y-84751000D02*
X147955000Y-84207136D01*
X144632500Y-101668000D02*
X147517278Y-101668000D01*
X148255300Y-101668000D02*
X148010300Y-101668000D01*
X147517278Y-101668000D02*
X148010300Y-101668000D01*
X149199600Y-100723700D02*
X148255300Y-101668000D01*
%TO.N,P0.08*%
X160655000Y-101346000D02*
X157530482Y-98221482D01*
X157530482Y-98221482D02*
X157530482Y-97930018D01*
X152209500Y-83502500D02*
X151384000Y-83502500D01*
X150495000Y-84391500D02*
X150495000Y-84751000D01*
X151384000Y-83502500D02*
X150495000Y-84391500D01*
%TO.N,P0.06*%
X153924000Y-104394000D02*
X153924000Y-103174800D01*
X153924000Y-103174800D02*
X154228800Y-102870000D01*
X151765000Y-84751000D02*
X152504011Y-85490011D01*
X152504011Y-85490011D02*
X155848011Y-85490011D01*
X155848011Y-85490011D02*
X158304011Y-87946011D01*
X159504999Y-94278001D02*
X160655000Y-95428002D01*
X160655000Y-95428002D02*
X160655000Y-96266000D01*
X158304011Y-87946011D02*
X158304011Y-89025511D01*
X158704977Y-91775977D02*
X159504999Y-92575999D01*
X158704977Y-89426477D02*
X158704977Y-91775977D01*
X158304011Y-89025511D02*
X158704977Y-89426477D01*
X159504999Y-92575999D02*
X159504999Y-94278001D01*
X154228800Y-102870000D02*
X155371800Y-101727000D01*
X155371800Y-101727000D02*
X155371800Y-101714300D01*
%TO.N,P0.05*%
X151125000Y-88150097D02*
X151407938Y-88433035D01*
X151125000Y-86841000D02*
X151125000Y-88150097D01*
X157035500Y-92519500D02*
X152844500Y-92519500D01*
X160655000Y-98806000D02*
X159504999Y-97655999D01*
X159504999Y-97655999D02*
X159504999Y-94988999D01*
X159504999Y-94988999D02*
X157035500Y-92519500D01*
%TO.N,P0.07*%
X146685000Y-84751000D02*
X146685000Y-83896200D01*
X146685000Y-83896200D02*
X146100800Y-83312000D01*
X142456943Y-108007241D02*
X142456943Y-108718004D01*
X140842099Y-104735999D02*
X141814001Y-105707901D01*
X137795000Y-103886000D02*
X138644999Y-104735999D01*
X141814001Y-105707901D02*
X141814001Y-107364299D01*
X138644999Y-104735999D02*
X140842099Y-104735999D01*
X141814001Y-107364299D02*
X142456943Y-108007241D01*
%TO.N,Net-(TP1-Pad1)*%
X144775000Y-88945800D02*
X144780000Y-88950800D01*
X144775000Y-86841000D02*
X144775000Y-88945800D01*
%TO.N,Net-(TP2-Pad1)*%
X157923700Y-72821000D02*
X157988000Y-72885300D01*
X155725000Y-72821000D02*
X157923700Y-72821000D01*
%TO.N,Net-(C7-Pad1)*%
X151243500Y-91368500D02*
X152979500Y-91368500D01*
X153665000Y-90683000D02*
X153665000Y-86841000D01*
X152979500Y-91368500D02*
X153665000Y-90683000D01*
X149288500Y-91757500D02*
X149923500Y-91757500D01*
X150312500Y-91368500D02*
X151243500Y-91368500D01*
X149923500Y-91757500D02*
X150312500Y-91368500D01*
%TO.N,Net-(D4-Pad2)*%
X153619000Y-106769000D02*
X154749500Y-105638500D01*
X153619000Y-108533500D02*
X153619000Y-106769000D01*
X154242000Y-109156500D02*
X153619000Y-108533500D01*
%TO.N,Net-(D4-Pad1)*%
X156286300Y-107213500D02*
X157226000Y-108153200D01*
X154749500Y-107213500D02*
X156286300Y-107213500D01*
%TO.N,Net-(D6-Pad1)*%
X142240000Y-89179500D02*
X142240000Y-90615000D01*
%TO.N,P0.20*%
X149162984Y-79821000D02*
X153605000Y-79821000D01*
X145883409Y-76541425D02*
X149162984Y-79821000D01*
%TO.N,P0.17*%
X145034000Y-78803500D02*
X144907000Y-78676500D01*
X153605000Y-81091000D02*
X152909500Y-81091000D01*
X152241250Y-80422750D02*
X146653250Y-80422750D01*
X152909500Y-81091000D02*
X152241250Y-80422750D01*
X146653250Y-80422750D02*
X145034000Y-78803500D01*
%TO.N,P0.10*%
X142731000Y-72821000D02*
X141682000Y-72821000D01*
X138380000Y-72821000D02*
X142731000Y-72821000D01*
X137795000Y-73406000D02*
X138380000Y-72821000D01*
%TO.N,P0.09*%
X137795000Y-78154000D02*
X137795000Y-78486000D01*
X142858000Y-74091000D02*
X141858000Y-74091000D01*
X142731000Y-74091000D02*
X141174000Y-74091000D01*
X141174000Y-74091000D02*
X139192000Y-76073000D01*
X139192000Y-77089000D02*
X137795000Y-78486000D01*
X139192000Y-76073000D02*
X139192000Y-77089000D01*
%TO.N,P0.04*%
X159504999Y-105275999D02*
X160655000Y-106426000D01*
X156011498Y-94932500D02*
X156011498Y-97400998D01*
X159504999Y-100894499D02*
X159504999Y-105275999D01*
X156011498Y-97400998D02*
X159504999Y-100894499D01*
X155476998Y-95467000D02*
X156011498Y-94932500D01*
X153911500Y-95467000D02*
X155476998Y-95467000D01*
X150304500Y-83671500D02*
X149225000Y-84751000D01*
X150304500Y-83502500D02*
X150304500Y-83671500D01*
%TO.N,P0.03*%
X155725000Y-75361000D02*
X158736500Y-75361000D01*
X159321500Y-75946000D02*
X160655000Y-75946000D01*
X158736500Y-75361000D02*
X159321500Y-75946000D01*
%TO.N,P0.02*%
X157530000Y-80441000D02*
X160655000Y-83566000D01*
X155725000Y-80441000D02*
X157530000Y-80441000D01*
%TO.N,P1.09*%
X150312024Y-87298024D02*
X150312024Y-88706619D01*
X150312024Y-88706619D02*
X150546752Y-88941347D01*
X149855000Y-86841000D02*
X150312024Y-87298024D01*
X160655000Y-103886000D02*
X161805001Y-102735999D01*
X159104988Y-95287488D02*
X157728509Y-93911009D01*
X160967003Y-99956001D02*
X160102999Y-99956001D01*
X161805001Y-100793999D02*
X160967003Y-99956001D01*
X161805001Y-102735999D02*
X161805001Y-100793999D01*
X160102999Y-99956001D02*
X159104988Y-98957990D01*
X159104988Y-98957990D02*
X159104988Y-95287488D01*
X157723018Y-93916500D02*
X157728509Y-93911009D01*
X153924000Y-93916500D02*
X157723018Y-93916500D01*
%TO.N,P1.06*%
X153605000Y-73471000D02*
X147258000Y-73471000D01*
X147258000Y-73471000D02*
X146538950Y-72751950D01*
%TO.N,P1.05*%
X158800000Y-79171000D02*
X160655000Y-81026000D01*
X155725000Y-79171000D02*
X158800000Y-79171000D01*
%TO.N,P1.04*%
X152797011Y-73933011D02*
X145984606Y-73933011D01*
X145984606Y-73933011D02*
X145323172Y-73271577D01*
X153605000Y-74741000D02*
X152797011Y-73933011D01*
%TO.N,P1.02*%
X152032703Y-74438703D02*
X145595364Y-74438703D01*
X144668204Y-73960988D02*
X144431499Y-73724283D01*
X145117649Y-73960988D02*
X144668204Y-73960988D01*
X145595364Y-74438703D02*
X145117649Y-73960988D01*
X153605000Y-76011000D02*
X152032703Y-74438703D01*
%TO.N,SWO*%
X147955000Y-94361000D02*
X147396200Y-94361000D01*
X152720001Y-102231701D02*
X152720001Y-104612999D01*
X152720001Y-104612999D02*
X152050000Y-105283000D01*
X152273000Y-101784700D02*
X152720001Y-102231701D01*
X152050000Y-105283000D02*
X151220000Y-105283000D01*
X152273000Y-96393000D02*
X152273000Y-101784700D01*
X151391001Y-95511001D02*
X152273000Y-96393000D01*
X149105001Y-95511001D02*
X151391001Y-95511001D01*
X147955000Y-94361000D02*
X149105001Y-95511001D01*
X152654000Y-76330000D02*
X153605000Y-77281000D01*
X152654000Y-76327000D02*
X152654000Y-76330000D01*
X152241250Y-75914250D02*
X152654000Y-76327000D01*
X151213266Y-74886266D02*
X145006923Y-74886266D01*
X152241250Y-75914250D02*
X151213266Y-74886266D01*
X145006923Y-74886266D02*
X144781647Y-74660990D01*
%TO.N,P0.31*%
X159504999Y-87495999D02*
X160655000Y-88646000D01*
X159504999Y-85760999D02*
X159504999Y-87495999D01*
X156725000Y-82981000D02*
X159504999Y-85760999D01*
X155725000Y-82981000D02*
X156725000Y-82981000D01*
%TO.N,P0.30*%
X155725000Y-84251000D02*
X156768000Y-84251000D01*
X156768000Y-84251000D02*
X159104988Y-86587988D01*
X159104988Y-88695088D02*
X159504999Y-89095099D01*
X159104988Y-86587988D02*
X159104988Y-88695088D01*
X159504999Y-90035999D02*
X160655000Y-91186000D01*
X159504999Y-89095099D02*
X159504999Y-90035999D01*
%TO.N,P0.29*%
X160655000Y-85641000D02*
X160655000Y-86106000D01*
X156725000Y-81711000D02*
X160655000Y-85641000D01*
X155725000Y-81711000D02*
X156725000Y-81711000D01*
%TO.N,P0.28*%
X158800000Y-76631000D02*
X160655000Y-78486000D01*
X155725000Y-76631000D02*
X158800000Y-76631000D01*
%TO.N,P0.26*%
X160655000Y-93726000D02*
X160655000Y-92975600D01*
X154051000Y-85090000D02*
X153712000Y-84751000D01*
X160655000Y-92888002D02*
X159104988Y-91337990D01*
X153712000Y-84751000D02*
X153035000Y-84751000D01*
X158704022Y-88859822D02*
X158704022Y-87584022D01*
X160655000Y-93726000D02*
X160655000Y-92888002D01*
X159104988Y-91337990D02*
X159104988Y-89260788D01*
X156210000Y-85090000D02*
X154051000Y-85090000D01*
X159104988Y-89260788D02*
X158704022Y-88859822D01*
X158704022Y-87584022D02*
X156210000Y-85090000D01*
%TO.N,P0.25*%
X159970000Y-74091000D02*
X160655000Y-73406000D01*
X155700400Y-74066400D02*
X155725000Y-74091000D01*
X159512000Y-73406000D02*
X160655000Y-73406000D01*
X158827000Y-74091000D02*
X159512000Y-73406000D01*
X155725000Y-74091000D02*
X157949100Y-74091000D01*
X157949100Y-74091000D02*
X158827000Y-74091000D01*
%TO.N,P0.24*%
X142858000Y-77901000D02*
X141858000Y-77901000D01*
X137795000Y-88646000D02*
X138945001Y-87495999D01*
X138945001Y-80308791D02*
X140586981Y-78666811D01*
X142731000Y-77901000D02*
X141352792Y-77901000D01*
X138945001Y-87495999D02*
X138945001Y-80308791D01*
X141352792Y-77901000D02*
X140868896Y-78384896D01*
X140868896Y-78384896D02*
X140586981Y-78666811D01*
%TO.N,P0.22*%
X148463000Y-75946000D02*
X150812500Y-75946000D01*
X153417500Y-78551000D02*
X153605000Y-78551000D01*
X150812500Y-75946000D02*
X153417500Y-78551000D01*
%TO.N,Net-(J1-Pad6)*%
X140635000Y-116565000D02*
X140755000Y-116685000D01*
X146385000Y-115605000D02*
X146235000Y-115755000D01*
X146385000Y-113685000D02*
X146385000Y-115605000D01*
X145645000Y-115755000D02*
X144445000Y-116955000D01*
X146235000Y-115755000D02*
X145645000Y-115755000D01*
X141325000Y-115755000D02*
X142525000Y-116955000D01*
X140755000Y-115755000D02*
X141325000Y-115755000D01*
X140635000Y-115635000D02*
X140755000Y-115755000D01*
X140635000Y-113705000D02*
X140635000Y-115635000D01*
X149206000Y-113685000D02*
X149225000Y-113666000D01*
X145905000Y-113685000D02*
X149206000Y-113685000D01*
X151968000Y-113666000D02*
X152019000Y-113717000D01*
X149225000Y-113666000D02*
X151968000Y-113666000D01*
X152019000Y-114917000D02*
X151919000Y-115017000D01*
X152019000Y-113717000D02*
X152019000Y-114917000D01*
X151959000Y-115017000D02*
X153909000Y-116967000D01*
X151919000Y-115017000D02*
X151959000Y-115017000D01*
X155829000Y-116967000D02*
X153909000Y-116967000D01*
X155919000Y-116967000D02*
X157869000Y-115017000D01*
X155829000Y-116967000D02*
X155919000Y-116967000D01*
X157289000Y-114437000D02*
X157869000Y-115017000D01*
X157289000Y-113697000D02*
X157289000Y-114437000D01*
X142525000Y-116955000D02*
X144445000Y-116955000D01*
%TO.N,Net-(C8-Pad1)*%
X152395000Y-86841000D02*
X152395000Y-90111500D01*
X152138000Y-90368500D02*
X151243500Y-90368500D01*
X152395000Y-90111500D02*
X152138000Y-90368500D01*
X149288500Y-90170000D02*
X149860000Y-90170000D01*
X150058500Y-90368500D02*
X151243500Y-90368500D01*
X149860000Y-90170000D02*
X150058500Y-90368500D01*
%TO.N,/UART_D-*%
X142835000Y-113805000D02*
X142835000Y-112239614D01*
X142835000Y-112239614D02*
X142759388Y-112164002D01*
%TO.N,/UART_D+*%
X143485000Y-112457225D02*
X143774106Y-112168119D01*
X143485000Y-113805000D02*
X143485000Y-112457225D01*
D27*
%TO.N,/USB1VBUS*%
X142185000Y-113805000D02*
X142185000Y-112784998D01*
X141668002Y-112268000D02*
X141478000Y-112268000D01*
X142185000Y-112784998D02*
X141668002Y-112268000D01*
%TO.N,/USB2VBUS*%
X153569000Y-113817000D02*
X153569000Y-112040000D01*
X153569000Y-112040000D02*
X153416000Y-111887000D01*
D26*
%TO.N,Net-(D5-Pad1)*%
X140589000Y-89140900D02*
X140589000Y-90424000D01*
%TO.N,Net-(D8-Pad2)*%
X140398500Y-106172000D02*
X140398500Y-105791000D01*
X140398500Y-106538360D02*
X140398500Y-106172000D01*
X141478000Y-107617860D02*
X140398500Y-106538360D01*
X141478000Y-108064300D02*
X141478000Y-107617860D01*
%TO.N,Net-(D8-Pad1)*%
X140398500Y-107747000D02*
X140398500Y-109157000D01*
%TO.N,NRF_D+*%
X143731000Y-80441000D02*
X142731000Y-80441000D01*
X144035010Y-84648112D02*
X144035010Y-80745010D01*
X144035010Y-80745010D02*
X143731000Y-80441000D01*
X144035010Y-84648112D02*
X144020612Y-84648112D01*
X143510000Y-106967072D02*
X143588714Y-107045786D01*
X143510000Y-85173122D02*
X144035010Y-84648112D01*
X142684500Y-94297500D02*
X143510000Y-93472000D01*
X143510000Y-93472000D02*
X143510000Y-85173122D01*
X143588714Y-107045786D02*
X142684500Y-106141572D01*
X142684500Y-106141572D02*
X142684500Y-94297500D01*
X154869000Y-111689000D02*
X154869000Y-113817000D01*
X143588714Y-107045786D02*
X146451930Y-109909000D01*
X153089000Y-109909000D02*
X154869000Y-111689000D01*
X146451930Y-109909000D02*
X153089000Y-109909000D01*
%TO.N,NRF_D-*%
X154219000Y-111674000D02*
X152854011Y-110309011D01*
X154219000Y-113817000D02*
X154219000Y-111674000D01*
X143065500Y-86995000D02*
X143065500Y-93281500D01*
X143065500Y-93281500D02*
X142240000Y-94107000D01*
X142684500Y-86614000D02*
X143065500Y-86995000D01*
X141655323Y-86614000D02*
X142684500Y-86614000D01*
X140414400Y-83027600D02*
X140414400Y-85373077D01*
X141731000Y-81711000D02*
X140414400Y-83027600D01*
X142240000Y-106299000D02*
X143097250Y-107156250D01*
X142731000Y-81711000D02*
X141731000Y-81711000D01*
X142240000Y-94107000D02*
X142240000Y-106299000D01*
X143097250Y-107156250D02*
X142938500Y-106997500D01*
X140414400Y-85373077D02*
X141655323Y-86614000D01*
X146250011Y-110309011D02*
X151850711Y-110309011D01*
X143097250Y-107156250D02*
X146250011Y-110309011D01*
X152854011Y-110309011D02*
X151850711Y-110309011D01*
X151850711Y-110309011D02*
X151647511Y-110309011D01*
%TD*%
M02*
