%TF.GenerationSoftware,KiCad,Pcbnew,5.1.10-88a1d61d58~88~ubuntu18.04.1*%
%TF.CreationDate,2021-05-30T13:33:07+03:00*%
%TF.ProjectId,ebyte-E73-2G4M08S1x-board,65627974-652d-4453-9733-2d3247344d30,rev?*%
%TF.SameCoordinates,Original*%
%TF.FileFunction,Soldermask,Top*%
%TF.FilePolarity,Negative*%
%FSLAX46Y46*%
G04 Gerber Fmt 4.6, Leading zero omitted, Abs format (unit mm)*
G04 Created by KiCad (PCBNEW 5.1.10-88a1d61d58~88~ubuntu18.04.1) date 2021-05-30 13:33:07*
%MOMM*%
%LPD*%
G01*
G04 APERTURE LIST*
%ADD10R,1.000000X1.500000*%
%ADD11R,2.400000X1.500000*%
%ADD12R,1.100000X0.600000*%
%ADD13R,1.050000X0.650000*%
%ADD14R,1.430000X2.500000*%
%ADD15O,1.350000X1.700000*%
%ADD16O,1.100000X1.500000*%
%ADD17R,0.400000X1.650000*%
%ADD18R,2.000000X1.500000*%
%ADD19R,1.825000X0.700000*%
%ADD20R,1.350000X2.000000*%
%ADD21O,1.700000X1.700000*%
%ADD22R,1.700000X1.700000*%
%ADD23R,1.000000X1.000000*%
%ADD24R,2.400000X0.740000*%
G04 APERTURE END LIST*
%TO.C,R8*%
G36*
G01*
X140673500Y-109557000D02*
X140123500Y-109557000D01*
G75*
G02*
X139923500Y-109357000I0J200000D01*
G01*
X139923500Y-108957000D01*
G75*
G02*
X140123500Y-108757000I200000J0D01*
G01*
X140673500Y-108757000D01*
G75*
G02*
X140873500Y-108957000I0J-200000D01*
G01*
X140873500Y-109357000D01*
G75*
G02*
X140673500Y-109557000I-200000J0D01*
G01*
G37*
G36*
G01*
X140673500Y-111207000D02*
X140123500Y-111207000D01*
G75*
G02*
X139923500Y-111007000I0J200000D01*
G01*
X139923500Y-110607000D01*
G75*
G02*
X140123500Y-110407000I200000J0D01*
G01*
X140673500Y-110407000D01*
G75*
G02*
X140873500Y-110607000I0J-200000D01*
G01*
X140873500Y-111007000D01*
G75*
G02*
X140673500Y-111207000I-200000J0D01*
G01*
G37*
%TD*%
%TO.C,D8*%
G36*
G01*
X140654750Y-106609500D02*
X140142250Y-106609500D01*
G75*
G02*
X139923500Y-106390750I0J218750D01*
G01*
X139923500Y-105953250D01*
G75*
G02*
X140142250Y-105734500I218750J0D01*
G01*
X140654750Y-105734500D01*
G75*
G02*
X140873500Y-105953250I0J-218750D01*
G01*
X140873500Y-106390750D01*
G75*
G02*
X140654750Y-106609500I-218750J0D01*
G01*
G37*
G36*
G01*
X140654750Y-108184500D02*
X140142250Y-108184500D01*
G75*
G02*
X139923500Y-107965750I0J218750D01*
G01*
X139923500Y-107528250D01*
G75*
G02*
X140142250Y-107309500I218750J0D01*
G01*
X140654750Y-107309500D01*
G75*
G02*
X140873500Y-107528250I0J-218750D01*
G01*
X140873500Y-107965750D01*
G75*
G02*
X140654750Y-108184500I-218750J0D01*
G01*
G37*
%TD*%
D10*
%TO.C,D7*%
X153911500Y-100367000D03*
X157111500Y-100367000D03*
X153911500Y-95467000D03*
X157111500Y-95467000D03*
%TD*%
%TO.C,R7*%
G36*
G01*
X141965000Y-91865000D02*
X142515000Y-91865000D01*
G75*
G02*
X142715000Y-92065000I0J-200000D01*
G01*
X142715000Y-92465000D01*
G75*
G02*
X142515000Y-92665000I-200000J0D01*
G01*
X141965000Y-92665000D01*
G75*
G02*
X141765000Y-92465000I0J200000D01*
G01*
X141765000Y-92065000D01*
G75*
G02*
X141965000Y-91865000I200000J0D01*
G01*
G37*
G36*
G01*
X141965000Y-90215000D02*
X142515000Y-90215000D01*
G75*
G02*
X142715000Y-90415000I0J-200000D01*
G01*
X142715000Y-90815000D01*
G75*
G02*
X142515000Y-91015000I-200000J0D01*
G01*
X141965000Y-91015000D01*
G75*
G02*
X141765000Y-90815000I0J200000D01*
G01*
X141765000Y-90415000D01*
G75*
G02*
X141965000Y-90215000I200000J0D01*
G01*
G37*
%TD*%
D11*
%TO.C,Y1*%
X156843500Y-90868500D03*
D12*
X151243500Y-90368500D03*
X151243500Y-91368500D03*
%TD*%
%TO.C,C7*%
G36*
G01*
X148188500Y-91507500D02*
X148188500Y-92007500D01*
G75*
G02*
X147963500Y-92232500I-225000J0D01*
G01*
X147513500Y-92232500D01*
G75*
G02*
X147288500Y-92007500I0J225000D01*
G01*
X147288500Y-91507500D01*
G75*
G02*
X147513500Y-91282500I225000J0D01*
G01*
X147963500Y-91282500D01*
G75*
G02*
X148188500Y-91507500I0J-225000D01*
G01*
G37*
G36*
G01*
X149738500Y-91507500D02*
X149738500Y-92007500D01*
G75*
G02*
X149513500Y-92232500I-225000J0D01*
G01*
X149063500Y-92232500D01*
G75*
G02*
X148838500Y-92007500I0J225000D01*
G01*
X148838500Y-91507500D01*
G75*
G02*
X149063500Y-91282500I225000J0D01*
G01*
X149513500Y-91282500D01*
G75*
G02*
X149738500Y-91507500I0J-225000D01*
G01*
G37*
%TD*%
D13*
%TO.C,SW2*%
X144632500Y-96515500D03*
X140482500Y-96515500D03*
X144632500Y-94365500D03*
X140482500Y-94365500D03*
%TD*%
%TO.C,R5*%
G36*
G01*
X144672500Y-91228500D02*
X144672500Y-91778500D01*
G75*
G02*
X144472500Y-91978500I-200000J0D01*
G01*
X144072500Y-91978500D01*
G75*
G02*
X143872500Y-91778500I0J200000D01*
G01*
X143872500Y-91228500D01*
G75*
G02*
X144072500Y-91028500I200000J0D01*
G01*
X144472500Y-91028500D01*
G75*
G02*
X144672500Y-91228500I0J-200000D01*
G01*
G37*
G36*
G01*
X146322500Y-91228500D02*
X146322500Y-91778500D01*
G75*
G02*
X146122500Y-91978500I-200000J0D01*
G01*
X145722500Y-91978500D01*
G75*
G02*
X145522500Y-91778500I0J200000D01*
G01*
X145522500Y-91228500D01*
G75*
G02*
X145722500Y-91028500I200000J0D01*
G01*
X146122500Y-91028500D01*
G75*
G02*
X146322500Y-91228500I0J-200000D01*
G01*
G37*
%TD*%
%TO.C,D6*%
G36*
G01*
X142496250Y-88042000D02*
X141983750Y-88042000D01*
G75*
G02*
X141765000Y-87823250I0J218750D01*
G01*
X141765000Y-87385750D01*
G75*
G02*
X141983750Y-87167000I218750J0D01*
G01*
X142496250Y-87167000D01*
G75*
G02*
X142715000Y-87385750I0J-218750D01*
G01*
X142715000Y-87823250D01*
G75*
G02*
X142496250Y-88042000I-218750J0D01*
G01*
G37*
G36*
G01*
X142496250Y-89617000D02*
X141983750Y-89617000D01*
G75*
G02*
X141765000Y-89398250I0J218750D01*
G01*
X141765000Y-88960750D01*
G75*
G02*
X141983750Y-88742000I218750J0D01*
G01*
X142496250Y-88742000D01*
G75*
G02*
X142715000Y-88960750I0J-218750D01*
G01*
X142715000Y-89398250D01*
G75*
G02*
X142496250Y-89617000I-218750J0D01*
G01*
G37*
%TD*%
%TO.C,U5*%
G36*
G01*
X156725000Y-84051000D02*
X156725000Y-84451000D01*
G75*
G02*
X156525000Y-84651000I-200000J0D01*
G01*
X154925000Y-84651000D01*
G75*
G02*
X154725000Y-84451000I0J200000D01*
G01*
X154725000Y-84051000D01*
G75*
G02*
X154925000Y-83851000I200000J0D01*
G01*
X156525000Y-83851000D01*
G75*
G02*
X156725000Y-84051000I0J-200000D01*
G01*
G37*
G36*
G01*
X156725000Y-82781000D02*
X156725000Y-83181000D01*
G75*
G02*
X156525000Y-83381000I-200000J0D01*
G01*
X154925000Y-83381000D01*
G75*
G02*
X154725000Y-83181000I0J200000D01*
G01*
X154725000Y-82781000D01*
G75*
G02*
X154925000Y-82581000I200000J0D01*
G01*
X156525000Y-82581000D01*
G75*
G02*
X156725000Y-82781000I0J-200000D01*
G01*
G37*
G36*
G01*
X156725000Y-81511000D02*
X156725000Y-81911000D01*
G75*
G02*
X156525000Y-82111000I-200000J0D01*
G01*
X154925000Y-82111000D01*
G75*
G02*
X154725000Y-81911000I0J200000D01*
G01*
X154725000Y-81511000D01*
G75*
G02*
X154925000Y-81311000I200000J0D01*
G01*
X156525000Y-81311000D01*
G75*
G02*
X156725000Y-81511000I0J-200000D01*
G01*
G37*
G36*
G01*
X156725000Y-80241000D02*
X156725000Y-80641000D01*
G75*
G02*
X156525000Y-80841000I-200000J0D01*
G01*
X154925000Y-80841000D01*
G75*
G02*
X154725000Y-80641000I0J200000D01*
G01*
X154725000Y-80241000D01*
G75*
G02*
X154925000Y-80041000I200000J0D01*
G01*
X156525000Y-80041000D01*
G75*
G02*
X156725000Y-80241000I0J-200000D01*
G01*
G37*
G36*
G01*
X156725000Y-78971000D02*
X156725000Y-79371000D01*
G75*
G02*
X156525000Y-79571000I-200000J0D01*
G01*
X154925000Y-79571000D01*
G75*
G02*
X154725000Y-79371000I0J200000D01*
G01*
X154725000Y-78971000D01*
G75*
G02*
X154925000Y-78771000I200000J0D01*
G01*
X156525000Y-78771000D01*
G75*
G02*
X156725000Y-78971000I0J-200000D01*
G01*
G37*
G36*
G01*
X156725000Y-77701000D02*
X156725000Y-78101000D01*
G75*
G02*
X156525000Y-78301000I-200000J0D01*
G01*
X154925000Y-78301000D01*
G75*
G02*
X154725000Y-78101000I0J200000D01*
G01*
X154725000Y-77701000D01*
G75*
G02*
X154925000Y-77501000I200000J0D01*
G01*
X156525000Y-77501000D01*
G75*
G02*
X156725000Y-77701000I0J-200000D01*
G01*
G37*
G36*
G01*
X156725000Y-76431000D02*
X156725000Y-76831000D01*
G75*
G02*
X156525000Y-77031000I-200000J0D01*
G01*
X154925000Y-77031000D01*
G75*
G02*
X154725000Y-76831000I0J200000D01*
G01*
X154725000Y-76431000D01*
G75*
G02*
X154925000Y-76231000I200000J0D01*
G01*
X156525000Y-76231000D01*
G75*
G02*
X156725000Y-76431000I0J-200000D01*
G01*
G37*
G36*
G01*
X156725000Y-75161000D02*
X156725000Y-75561000D01*
G75*
G02*
X156525000Y-75761000I-200000J0D01*
G01*
X154925000Y-75761000D01*
G75*
G02*
X154725000Y-75561000I0J200000D01*
G01*
X154725000Y-75161000D01*
G75*
G02*
X154925000Y-74961000I200000J0D01*
G01*
X156525000Y-74961000D01*
G75*
G02*
X156725000Y-75161000I0J-200000D01*
G01*
G37*
G36*
G01*
X156725000Y-73891000D02*
X156725000Y-74291000D01*
G75*
G02*
X156525000Y-74491000I-200000J0D01*
G01*
X154925000Y-74491000D01*
G75*
G02*
X154725000Y-74291000I0J200000D01*
G01*
X154725000Y-73891000D01*
G75*
G02*
X154925000Y-73691000I200000J0D01*
G01*
X156525000Y-73691000D01*
G75*
G02*
X156725000Y-73891000I0J-200000D01*
G01*
G37*
G36*
G01*
X156725000Y-72621000D02*
X156725000Y-73021000D01*
G75*
G02*
X156525000Y-73221000I-200000J0D01*
G01*
X154925000Y-73221000D01*
G75*
G02*
X154725000Y-73021000I0J200000D01*
G01*
X154725000Y-72621000D01*
G75*
G02*
X154925000Y-72421000I200000J0D01*
G01*
X156525000Y-72421000D01*
G75*
G02*
X156725000Y-72621000I0J-200000D01*
G01*
G37*
G36*
G01*
X143731000Y-81511000D02*
X143731000Y-81911000D01*
G75*
G02*
X143531000Y-82111000I-200000J0D01*
G01*
X141931000Y-82111000D01*
G75*
G02*
X141731000Y-81911000I0J200000D01*
G01*
X141731000Y-81511000D01*
G75*
G02*
X141931000Y-81311000I200000J0D01*
G01*
X143531000Y-81311000D01*
G75*
G02*
X143731000Y-81511000I0J-200000D01*
G01*
G37*
G36*
G01*
X143735000Y-84041000D02*
X143735000Y-84441000D01*
G75*
G02*
X143535000Y-84641000I-200000J0D01*
G01*
X141935000Y-84641000D01*
G75*
G02*
X141735000Y-84441000I0J200000D01*
G01*
X141735000Y-84041000D01*
G75*
G02*
X141935000Y-83841000I200000J0D01*
G01*
X143535000Y-83841000D01*
G75*
G02*
X143735000Y-84041000I0J-200000D01*
G01*
G37*
G36*
G01*
X143731000Y-78971000D02*
X143731000Y-79371000D01*
G75*
G02*
X143531000Y-79571000I-200000J0D01*
G01*
X141931000Y-79571000D01*
G75*
G02*
X141731000Y-79371000I0J200000D01*
G01*
X141731000Y-78971000D01*
G75*
G02*
X141931000Y-78771000I200000J0D01*
G01*
X143531000Y-78771000D01*
G75*
G02*
X143731000Y-78971000I0J-200000D01*
G01*
G37*
G36*
G01*
X143731000Y-82781000D02*
X143731000Y-83181000D01*
G75*
G02*
X143531000Y-83381000I-200000J0D01*
G01*
X141931000Y-83381000D01*
G75*
G02*
X141731000Y-83181000I0J200000D01*
G01*
X141731000Y-82781000D01*
G75*
G02*
X141931000Y-82581000I200000J0D01*
G01*
X143531000Y-82581000D01*
G75*
G02*
X143731000Y-82781000I0J-200000D01*
G01*
G37*
G36*
G01*
X143731000Y-77701000D02*
X143731000Y-78101000D01*
G75*
G02*
X143531000Y-78301000I-200000J0D01*
G01*
X141931000Y-78301000D01*
G75*
G02*
X141731000Y-78101000I0J200000D01*
G01*
X141731000Y-77701000D01*
G75*
G02*
X141931000Y-77501000I200000J0D01*
G01*
X143531000Y-77501000D01*
G75*
G02*
X143731000Y-77701000I0J-200000D01*
G01*
G37*
G36*
G01*
X143731000Y-80241000D02*
X143731000Y-80641000D01*
G75*
G02*
X143531000Y-80841000I-200000J0D01*
G01*
X141931000Y-80841000D01*
G75*
G02*
X141731000Y-80641000I0J200000D01*
G01*
X141731000Y-80241000D01*
G75*
G02*
X141931000Y-80041000I200000J0D01*
G01*
X143531000Y-80041000D01*
G75*
G02*
X143731000Y-80241000I0J-200000D01*
G01*
G37*
G36*
G01*
X143731000Y-76431000D02*
X143731000Y-76831000D01*
G75*
G02*
X143531000Y-77031000I-200000J0D01*
G01*
X141931000Y-77031000D01*
G75*
G02*
X141731000Y-76831000I0J200000D01*
G01*
X141731000Y-76431000D01*
G75*
G02*
X141931000Y-76231000I200000J0D01*
G01*
X143531000Y-76231000D01*
G75*
G02*
X143731000Y-76431000I0J-200000D01*
G01*
G37*
G36*
G01*
X143731000Y-75161000D02*
X143731000Y-75561000D01*
G75*
G02*
X143531000Y-75761000I-200000J0D01*
G01*
X141931000Y-75761000D01*
G75*
G02*
X141731000Y-75561000I0J200000D01*
G01*
X141731000Y-75161000D01*
G75*
G02*
X141931000Y-74961000I200000J0D01*
G01*
X143531000Y-74961000D01*
G75*
G02*
X143731000Y-75161000I0J-200000D01*
G01*
G37*
G36*
G01*
X143731000Y-73891000D02*
X143731000Y-74291000D01*
G75*
G02*
X143531000Y-74491000I-200000J0D01*
G01*
X141931000Y-74491000D01*
G75*
G02*
X141731000Y-74291000I0J200000D01*
G01*
X141731000Y-73891000D01*
G75*
G02*
X141931000Y-73691000I200000J0D01*
G01*
X143531000Y-73691000D01*
G75*
G02*
X143731000Y-73891000I0J-200000D01*
G01*
G37*
G36*
G01*
X143731000Y-72621000D02*
X143731000Y-73021000D01*
G75*
G02*
X143531000Y-73221000I-200000J0D01*
G01*
X141931000Y-73221000D01*
G75*
G02*
X141731000Y-73021000I0J200000D01*
G01*
X141731000Y-72621000D01*
G75*
G02*
X141931000Y-72421000I200000J0D01*
G01*
X143531000Y-72421000D01*
G75*
G02*
X143731000Y-72621000I0J-200000D01*
G01*
G37*
G36*
G01*
X153465000Y-85841000D02*
X153865000Y-85841000D01*
G75*
G02*
X154065000Y-86041000I0J-200000D01*
G01*
X154065000Y-87641000D01*
G75*
G02*
X153865000Y-87841000I-200000J0D01*
G01*
X153465000Y-87841000D01*
G75*
G02*
X153265000Y-87641000I0J200000D01*
G01*
X153265000Y-86041000D01*
G75*
G02*
X153465000Y-85841000I200000J0D01*
G01*
G37*
G36*
G01*
X152195000Y-85841000D02*
X152595000Y-85841000D01*
G75*
G02*
X152795000Y-86041000I0J-200000D01*
G01*
X152795000Y-87641000D01*
G75*
G02*
X152595000Y-87841000I-200000J0D01*
G01*
X152195000Y-87841000D01*
G75*
G02*
X151995000Y-87641000I0J200000D01*
G01*
X151995000Y-86041000D01*
G75*
G02*
X152195000Y-85841000I200000J0D01*
G01*
G37*
G36*
G01*
X150925000Y-85841000D02*
X151325000Y-85841000D01*
G75*
G02*
X151525000Y-86041000I0J-200000D01*
G01*
X151525000Y-87641000D01*
G75*
G02*
X151325000Y-87841000I-200000J0D01*
G01*
X150925000Y-87841000D01*
G75*
G02*
X150725000Y-87641000I0J200000D01*
G01*
X150725000Y-86041000D01*
G75*
G02*
X150925000Y-85841000I200000J0D01*
G01*
G37*
G36*
G01*
X149655000Y-85841000D02*
X150055000Y-85841000D01*
G75*
G02*
X150255000Y-86041000I0J-200000D01*
G01*
X150255000Y-87641000D01*
G75*
G02*
X150055000Y-87841000I-200000J0D01*
G01*
X149655000Y-87841000D01*
G75*
G02*
X149455000Y-87641000I0J200000D01*
G01*
X149455000Y-86041000D01*
G75*
G02*
X149655000Y-85841000I200000J0D01*
G01*
G37*
G36*
G01*
X148385000Y-85841000D02*
X148785000Y-85841000D01*
G75*
G02*
X148985000Y-86041000I0J-200000D01*
G01*
X148985000Y-87641000D01*
G75*
G02*
X148785000Y-87841000I-200000J0D01*
G01*
X148385000Y-87841000D01*
G75*
G02*
X148185000Y-87641000I0J200000D01*
G01*
X148185000Y-86041000D01*
G75*
G02*
X148385000Y-85841000I200000J0D01*
G01*
G37*
G36*
G01*
X147115000Y-85841000D02*
X147515000Y-85841000D01*
G75*
G02*
X147715000Y-86041000I0J-200000D01*
G01*
X147715000Y-87641000D01*
G75*
G02*
X147515000Y-87841000I-200000J0D01*
G01*
X147115000Y-87841000D01*
G75*
G02*
X146915000Y-87641000I0J200000D01*
G01*
X146915000Y-86041000D01*
G75*
G02*
X147115000Y-85841000I200000J0D01*
G01*
G37*
G36*
G01*
X145845000Y-85841000D02*
X146245000Y-85841000D01*
G75*
G02*
X146445000Y-86041000I0J-200000D01*
G01*
X146445000Y-87641000D01*
G75*
G02*
X146245000Y-87841000I-200000J0D01*
G01*
X145845000Y-87841000D01*
G75*
G02*
X145645000Y-87641000I0J200000D01*
G01*
X145645000Y-86041000D01*
G75*
G02*
X145845000Y-85841000I200000J0D01*
G01*
G37*
G36*
G01*
X144575000Y-85841000D02*
X144975000Y-85841000D01*
G75*
G02*
X145175000Y-86041000I0J-200000D01*
G01*
X145175000Y-87641000D01*
G75*
G02*
X144975000Y-87841000I-200000J0D01*
G01*
X144575000Y-87841000D01*
G75*
G02*
X144375000Y-87641000I0J200000D01*
G01*
X144375000Y-86041000D01*
G75*
G02*
X144575000Y-85841000I200000J0D01*
G01*
G37*
G36*
G01*
X152835000Y-84351000D02*
X153235000Y-84351000D01*
G75*
G02*
X153435000Y-84551000I0J-200000D01*
G01*
X153435000Y-84951000D01*
G75*
G02*
X153235000Y-85151000I-200000J0D01*
G01*
X152835000Y-85151000D01*
G75*
G02*
X152635000Y-84951000I0J200000D01*
G01*
X152635000Y-84551000D01*
G75*
G02*
X152835000Y-84351000I200000J0D01*
G01*
G37*
G36*
G01*
X151565000Y-84351000D02*
X151965000Y-84351000D01*
G75*
G02*
X152165000Y-84551000I0J-200000D01*
G01*
X152165000Y-84951000D01*
G75*
G02*
X151965000Y-85151000I-200000J0D01*
G01*
X151565000Y-85151000D01*
G75*
G02*
X151365000Y-84951000I0J200000D01*
G01*
X151365000Y-84551000D01*
G75*
G02*
X151565000Y-84351000I200000J0D01*
G01*
G37*
G36*
G01*
X150295000Y-84351000D02*
X150695000Y-84351000D01*
G75*
G02*
X150895000Y-84551000I0J-200000D01*
G01*
X150895000Y-84951000D01*
G75*
G02*
X150695000Y-85151000I-200000J0D01*
G01*
X150295000Y-85151000D01*
G75*
G02*
X150095000Y-84951000I0J200000D01*
G01*
X150095000Y-84551000D01*
G75*
G02*
X150295000Y-84351000I200000J0D01*
G01*
G37*
G36*
G01*
X149025000Y-84351000D02*
X149425000Y-84351000D01*
G75*
G02*
X149625000Y-84551000I0J-200000D01*
G01*
X149625000Y-84951000D01*
G75*
G02*
X149425000Y-85151000I-200000J0D01*
G01*
X149025000Y-85151000D01*
G75*
G02*
X148825000Y-84951000I0J200000D01*
G01*
X148825000Y-84551000D01*
G75*
G02*
X149025000Y-84351000I200000J0D01*
G01*
G37*
G36*
G01*
X147755000Y-84351000D02*
X148155000Y-84351000D01*
G75*
G02*
X148355000Y-84551000I0J-200000D01*
G01*
X148355000Y-84951000D01*
G75*
G02*
X148155000Y-85151000I-200000J0D01*
G01*
X147755000Y-85151000D01*
G75*
G02*
X147555000Y-84951000I0J200000D01*
G01*
X147555000Y-84551000D01*
G75*
G02*
X147755000Y-84351000I200000J0D01*
G01*
G37*
G36*
G01*
X146485000Y-84351000D02*
X146885000Y-84351000D01*
G75*
G02*
X147085000Y-84551000I0J-200000D01*
G01*
X147085000Y-84951000D01*
G75*
G02*
X146885000Y-85151000I-200000J0D01*
G01*
X146485000Y-85151000D01*
G75*
G02*
X146285000Y-84951000I0J200000D01*
G01*
X146285000Y-84551000D01*
G75*
G02*
X146485000Y-84351000I200000J0D01*
G01*
G37*
G36*
G01*
X145215000Y-84351000D02*
X145615000Y-84351000D01*
G75*
G02*
X145815000Y-84551000I0J-200000D01*
G01*
X145815000Y-84951000D01*
G75*
G02*
X145615000Y-85151000I-200000J0D01*
G01*
X145215000Y-85151000D01*
G75*
G02*
X145015000Y-84951000I0J200000D01*
G01*
X145015000Y-84551000D01*
G75*
G02*
X145215000Y-84351000I200000J0D01*
G01*
G37*
G36*
G01*
X144645000Y-81961000D02*
X145045000Y-81961000D01*
G75*
G02*
X145245000Y-82161000I0J-200000D01*
G01*
X145245000Y-82561000D01*
G75*
G02*
X145045000Y-82761000I-200000J0D01*
G01*
X144645000Y-82761000D01*
G75*
G02*
X144445000Y-82561000I0J200000D01*
G01*
X144445000Y-82161000D01*
G75*
G02*
X144645000Y-81961000I200000J0D01*
G01*
G37*
G36*
G01*
X144645000Y-80691000D02*
X145045000Y-80691000D01*
G75*
G02*
X145245000Y-80891000I0J-200000D01*
G01*
X145245000Y-81291000D01*
G75*
G02*
X145045000Y-81491000I-200000J0D01*
G01*
X144645000Y-81491000D01*
G75*
G02*
X144445000Y-81291000I0J200000D01*
G01*
X144445000Y-80891000D01*
G75*
G02*
X144645000Y-80691000I200000J0D01*
G01*
G37*
G36*
G01*
X144645000Y-79421000D02*
X145045000Y-79421000D01*
G75*
G02*
X145245000Y-79621000I0J-200000D01*
G01*
X145245000Y-80021000D01*
G75*
G02*
X145045000Y-80221000I-200000J0D01*
G01*
X144645000Y-80221000D01*
G75*
G02*
X144445000Y-80021000I0J200000D01*
G01*
X144445000Y-79621000D01*
G75*
G02*
X144645000Y-79421000I200000J0D01*
G01*
G37*
G36*
G01*
X144645000Y-78151000D02*
X145045000Y-78151000D01*
G75*
G02*
X145245000Y-78351000I0J-200000D01*
G01*
X145245000Y-78751000D01*
G75*
G02*
X145045000Y-78951000I-200000J0D01*
G01*
X144645000Y-78951000D01*
G75*
G02*
X144445000Y-78751000I0J200000D01*
G01*
X144445000Y-78351000D01*
G75*
G02*
X144645000Y-78151000I200000J0D01*
G01*
G37*
G36*
G01*
X144645000Y-76881000D02*
X145045000Y-76881000D01*
G75*
G02*
X145245000Y-77081000I0J-200000D01*
G01*
X145245000Y-77481000D01*
G75*
G02*
X145045000Y-77681000I-200000J0D01*
G01*
X144645000Y-77681000D01*
G75*
G02*
X144445000Y-77481000I0J200000D01*
G01*
X144445000Y-77081000D01*
G75*
G02*
X144645000Y-76881000I200000J0D01*
G01*
G37*
G36*
G01*
X144645000Y-75611000D02*
X145045000Y-75611000D01*
G75*
G02*
X145245000Y-75811000I0J-200000D01*
G01*
X145245000Y-76211000D01*
G75*
G02*
X145045000Y-76411000I-200000J0D01*
G01*
X144645000Y-76411000D01*
G75*
G02*
X144445000Y-76211000I0J200000D01*
G01*
X144445000Y-75811000D01*
G75*
G02*
X144645000Y-75611000I200000J0D01*
G01*
G37*
G36*
G01*
X144645000Y-73071000D02*
X145045000Y-73071000D01*
G75*
G02*
X145245000Y-73271000I0J-200000D01*
G01*
X145245000Y-73671000D01*
G75*
G02*
X145045000Y-73871000I-200000J0D01*
G01*
X144645000Y-73871000D01*
G75*
G02*
X144445000Y-73671000I0J200000D01*
G01*
X144445000Y-73271000D01*
G75*
G02*
X144645000Y-73071000I200000J0D01*
G01*
G37*
G36*
G01*
X144645000Y-74341000D02*
X145045000Y-74341000D01*
G75*
G02*
X145245000Y-74541000I0J-200000D01*
G01*
X145245000Y-74941000D01*
G75*
G02*
X145045000Y-75141000I-200000J0D01*
G01*
X144645000Y-75141000D01*
G75*
G02*
X144445000Y-74941000I0J200000D01*
G01*
X144445000Y-74541000D01*
G75*
G02*
X144645000Y-74341000I200000J0D01*
G01*
G37*
%TD*%
D14*
%TO.C,J1*%
X144445000Y-116955000D03*
X142525000Y-116955000D03*
D15*
X146215000Y-116685000D03*
X140755000Y-116685000D03*
D16*
X145905000Y-113685000D03*
X141065000Y-113685000D03*
D17*
X144785000Y-113805000D03*
X144135000Y-113805000D03*
X143485000Y-113805000D03*
X142835000Y-113805000D03*
X142185000Y-113805000D03*
D18*
X146385000Y-113685000D03*
X140635000Y-113705000D03*
D19*
X146485000Y-115005000D03*
X140535000Y-115005000D03*
D20*
X140755000Y-115755000D03*
X146235000Y-115755000D03*
%TD*%
D14*
%TO.C,J2*%
X155829000Y-116967000D03*
X153909000Y-116967000D03*
D15*
X157599000Y-116697000D03*
X152139000Y-116697000D03*
D16*
X157289000Y-113697000D03*
X152449000Y-113697000D03*
D17*
X156169000Y-113817000D03*
X155519000Y-113817000D03*
X154869000Y-113817000D03*
X154219000Y-113817000D03*
X153569000Y-113817000D03*
D18*
X157769000Y-113697000D03*
X152019000Y-113717000D03*
D19*
X157869000Y-115017000D03*
X151919000Y-115017000D03*
D20*
X152139000Y-115767000D03*
X157619000Y-115767000D03*
%TD*%
D21*
%TO.C,J5*%
X160655000Y-116586000D03*
X160655000Y-114046000D03*
X160655000Y-111506000D03*
X160655000Y-108966000D03*
X160655000Y-106426000D03*
X160655000Y-103886000D03*
X160655000Y-101346000D03*
X160655000Y-98806000D03*
X160655000Y-96266000D03*
X160655000Y-93726000D03*
X160655000Y-91186000D03*
X160655000Y-88646000D03*
X160655000Y-86106000D03*
X160655000Y-83566000D03*
X160655000Y-81026000D03*
X160655000Y-78486000D03*
X160655000Y-75946000D03*
D22*
X160655000Y-73406000D03*
%TD*%
%TO.C,R6*%
G36*
G01*
X140314000Y-91865000D02*
X140864000Y-91865000D01*
G75*
G02*
X141064000Y-92065000I0J-200000D01*
G01*
X141064000Y-92465000D01*
G75*
G02*
X140864000Y-92665000I-200000J0D01*
G01*
X140314000Y-92665000D01*
G75*
G02*
X140114000Y-92465000I0J200000D01*
G01*
X140114000Y-92065000D01*
G75*
G02*
X140314000Y-91865000I200000J0D01*
G01*
G37*
G36*
G01*
X140314000Y-90215000D02*
X140864000Y-90215000D01*
G75*
G02*
X141064000Y-90415000I0J-200000D01*
G01*
X141064000Y-90815000D01*
G75*
G02*
X140864000Y-91015000I-200000J0D01*
G01*
X140314000Y-91015000D01*
G75*
G02*
X140114000Y-90815000I0J200000D01*
G01*
X140114000Y-90415000D01*
G75*
G02*
X140314000Y-90215000I200000J0D01*
G01*
G37*
%TD*%
%TO.C,D5*%
G36*
G01*
X140845250Y-88042000D02*
X140332750Y-88042000D01*
G75*
G02*
X140114000Y-87823250I0J218750D01*
G01*
X140114000Y-87385750D01*
G75*
G02*
X140332750Y-87167000I218750J0D01*
G01*
X140845250Y-87167000D01*
G75*
G02*
X141064000Y-87385750I0J-218750D01*
G01*
X141064000Y-87823250D01*
G75*
G02*
X140845250Y-88042000I-218750J0D01*
G01*
G37*
G36*
G01*
X140845250Y-89617000D02*
X140332750Y-89617000D01*
G75*
G02*
X140114000Y-89398250I0J218750D01*
G01*
X140114000Y-88960750D01*
G75*
G02*
X140332750Y-88742000I218750J0D01*
G01*
X140845250Y-88742000D01*
G75*
G02*
X141064000Y-88960750I0J-218750D01*
G01*
X141064000Y-89398250D01*
G75*
G02*
X140845250Y-89617000I-218750J0D01*
G01*
G37*
%TD*%
D21*
%TO.C,J4*%
X137795000Y-116586000D03*
X137795000Y-114046000D03*
X137795000Y-111506000D03*
X137795000Y-108966000D03*
X137795000Y-106426000D03*
X137795000Y-103886000D03*
X137795000Y-101346000D03*
X137795000Y-98806000D03*
X137795000Y-96266000D03*
X137795000Y-93726000D03*
X137795000Y-91186000D03*
X137795000Y-88646000D03*
X137795000Y-86106000D03*
X137795000Y-83566000D03*
X137795000Y-81026000D03*
X137795000Y-78486000D03*
X137795000Y-75946000D03*
D22*
X137795000Y-73406000D03*
%TD*%
D23*
%TO.C,TP1*%
X144780000Y-88950800D03*
%TD*%
%TO.C,D4*%
G36*
G01*
X155005750Y-106076000D02*
X154493250Y-106076000D01*
G75*
G02*
X154274500Y-105857250I0J218750D01*
G01*
X154274500Y-105419750D01*
G75*
G02*
X154493250Y-105201000I218750J0D01*
G01*
X155005750Y-105201000D01*
G75*
G02*
X155224500Y-105419750I0J-218750D01*
G01*
X155224500Y-105857250D01*
G75*
G02*
X155005750Y-106076000I-218750J0D01*
G01*
G37*
G36*
G01*
X155005750Y-107651000D02*
X154493250Y-107651000D01*
G75*
G02*
X154274500Y-107432250I0J218750D01*
G01*
X154274500Y-106994750D01*
G75*
G02*
X154493250Y-106776000I218750J0D01*
G01*
X155005750Y-106776000D01*
G75*
G02*
X155224500Y-106994750I0J-218750D01*
G01*
X155224500Y-107432250D01*
G75*
G02*
X155005750Y-107651000I-218750J0D01*
G01*
G37*
%TD*%
D24*
%TO.C,J6*%
X151220000Y-107823000D03*
X147320000Y-107823000D03*
X151220000Y-106553000D03*
X147320000Y-106553000D03*
X151220000Y-105283000D03*
X147320000Y-105283000D03*
X151220000Y-104013000D03*
X147320000Y-104013000D03*
X151220000Y-102743000D03*
X147320000Y-102743000D03*
%TD*%
%TO.C,R4*%
G36*
G01*
X154642000Y-108881500D02*
X154642000Y-109431500D01*
G75*
G02*
X154442000Y-109631500I-200000J0D01*
G01*
X154042000Y-109631500D01*
G75*
G02*
X153842000Y-109431500I0J200000D01*
G01*
X153842000Y-108881500D01*
G75*
G02*
X154042000Y-108681500I200000J0D01*
G01*
X154442000Y-108681500D01*
G75*
G02*
X154642000Y-108881500I0J-200000D01*
G01*
G37*
G36*
G01*
X156292000Y-108881500D02*
X156292000Y-109431500D01*
G75*
G02*
X156092000Y-109631500I-200000J0D01*
G01*
X155692000Y-109631500D01*
G75*
G02*
X155492000Y-109431500I0J200000D01*
G01*
X155492000Y-108881500D01*
G75*
G02*
X155692000Y-108681500I200000J0D01*
G01*
X156092000Y-108681500D01*
G75*
G02*
X156292000Y-108881500I0J-200000D01*
G01*
G37*
%TD*%
%TO.C,R1*%
G36*
G01*
X148950000Y-114916000D02*
X149500000Y-114916000D01*
G75*
G02*
X149700000Y-115116000I0J-200000D01*
G01*
X149700000Y-115516000D01*
G75*
G02*
X149500000Y-115716000I-200000J0D01*
G01*
X148950000Y-115716000D01*
G75*
G02*
X148750000Y-115516000I0J200000D01*
G01*
X148750000Y-115116000D01*
G75*
G02*
X148950000Y-114916000I200000J0D01*
G01*
G37*
G36*
G01*
X148950000Y-113266000D02*
X149500000Y-113266000D01*
G75*
G02*
X149700000Y-113466000I0J-200000D01*
G01*
X149700000Y-113866000D01*
G75*
G02*
X149500000Y-114066000I-200000J0D01*
G01*
X148950000Y-114066000D01*
G75*
G02*
X148750000Y-113866000I0J200000D01*
G01*
X148750000Y-113466000D01*
G75*
G02*
X148950000Y-113266000I200000J0D01*
G01*
G37*
%TD*%
D21*
%TO.C,J7*%
X150495000Y-99441000D03*
X147955000Y-99441000D03*
X150495000Y-96901000D03*
X147955000Y-96901000D03*
X150495000Y-94361000D03*
D22*
X147955000Y-94361000D03*
%TD*%
D21*
%TO.C,J3*%
X157429200Y-106426000D03*
D22*
X157429200Y-103886000D03*
%TD*%
D13*
%TO.C,SW1*%
X144188000Y-103818000D03*
X140038000Y-103818000D03*
X144188000Y-101668000D03*
X140038000Y-101668000D03*
%TD*%
%TO.C,C8*%
G36*
G01*
X148188500Y-89920000D02*
X148188500Y-90420000D01*
G75*
G02*
X147963500Y-90645000I-225000J0D01*
G01*
X147513500Y-90645000D01*
G75*
G02*
X147288500Y-90420000I0J225000D01*
G01*
X147288500Y-89920000D01*
G75*
G02*
X147513500Y-89695000I225000J0D01*
G01*
X147963500Y-89695000D01*
G75*
G02*
X148188500Y-89920000I0J-225000D01*
G01*
G37*
G36*
G01*
X149738500Y-89920000D02*
X149738500Y-90420000D01*
G75*
G02*
X149513500Y-90645000I-225000J0D01*
G01*
X149063500Y-90645000D01*
G75*
G02*
X148838500Y-90420000I0J225000D01*
G01*
X148838500Y-89920000D01*
G75*
G02*
X149063500Y-89695000I225000J0D01*
G01*
X149513500Y-89695000D01*
G75*
G02*
X149738500Y-89920000I0J-225000D01*
G01*
G37*
%TD*%
D23*
%TO.C,TP2*%
X157734000Y-72326500D03*
%TD*%
M02*
